<?xml version="1.0" encoding="UTF-8" standalone="no"?>
<svg
   height="421"
   viewBox="0 -960 31200 16840"
   width="780"
   version="1.1"
   id="svg4760"
   sodipodi:docname="рр.svg"
   xml:space="preserve"
   inkscape:version="1.2 (dc2aedaf03, 2022-05-15)"
   xmlns:inkscape="http://www.inkscape.org/namespaces/inkscape"
   xmlns:sodipodi="http://sodipodi.sourceforge.net/DTD/sodipodi-0.dtd"
   xmlns="http://www.w3.org/2000/svg"
   xmlns:svg="http://www.w3.org/2000/svg"><defs
     id="defs4764" /><sodipodi:namedview
     id="namedview4762"
     pagecolor="#ffffff"
     bordercolor="#666666"
     borderopacity="1.0"
     inkscape:showpageshadow="2"
     inkscape:pageopacity="0.0"
     inkscape:pagecheckerboard="0"
     inkscape:deskcolor="#d1d1d1"
     showgrid="true"
     showguides="true"
     inkscape:zoom="0.61458333"
     inkscape:cx="393.76271"
     inkscape:cy="253.83051"
     inkscape:window-width="1920"
     inkscape:window-height="1017"
     inkscape:window-x="-8"
     inkscape:window-y="-8"
     inkscape:window-maximized="1"
     inkscape:current-layer="svg4760"><inkscape:grid
       type="xygrid"
       id="grid6215"
       originx="0"
       originy="0" /></sodipodi:namedview><path
     style="fill:#6abbe3;fill-opacity:1;stroke-width:1"
     d="m 21235.254,14900.339 h -53.333 l 26.666,-26.667 26.667,-26.666 26.667,26.666 26.666,26.667 z m 1380,0 h -20 v -20 -20 h 20 20 v 20 20 z m -1740,-40 h -53.333 l 26.666,-26.667 26.667,-26.666 26.667,26.666 26.666,26.667 z m -220,-40 h -20 v -20 -20 h 20 20 v 20 20 z m -200,-40 h -20 v -20 -20 h 20 20 v 20 20 z m -180,-40 h -53.333 l 26.666,-26.667 26.667,-26.666 26.667,26.666 26.666,26.667 z m -180,-40 h -20 v -20 -20 h 20 20 v 20 20 z m -120,-40 h -20 v -20 -20 h 20 20 v 20 20 z m 3920,0 h -20 v -20 -20 h 20 20 v 20 20 z m -4080,-40 h -20 v -20 -20 h 20 20 v 20 20 z m 4200,0 h -20 v -20 -20 h 20 20 v 20 20 z m -4320,-40 h -20 v -20 -20 h 20 20 v 20 20 z m 4440,0 h -20 v -20 -20 h 20 20 v 20 20 z m -4560,-40 h -20 v -20 -20 h 20 20 v 20 20 z m -120,-40 h -20 v -20 -20 h 20 20 v 20 20 z m -120,-40 h -20 v -20 -20 h 20 20 v 20 20 z m -80,-40 h -20 v -20 -20 h 20 20 v 20 20 z m -80,-40 h -20 v -20 -20 h 20 20 v 20 20 z m 5600,-40 h -20 v -20 -20 h 20 20 v 20 20 z m -5800,-40 h -20 v -20 -20 h 20 20 v 20 20 z m 5880,0 h -20 v -20 -20 h 20 20 v 20 20 z m -5960,-40 h -20 v -20 -20 h 20 20 v 20 20 z m -80,-40 h -20 v -20 -20 h 20 20 v 20 20 z m 6320,-40 h -20 v -20 -20 h 20 20 v 20 20 z m 80,-40 h -20 v -20 -20 h 20 20 v 20 20 z m -6640,-40 h -20 v -20 -20 h 20 20 v 20 20 z m -80,-40 h -20 v -20 -20 h 20 20 v 20 20 z m 6920,-40 h -20 v -20 -20 h 20 20 v 20 20 z m 80,-40 h -20 v -20 -20 h 20 20 v 20 20 z m -7200,-40 h -20 v -20 -20 h 20 20 v 20 20 z m 7400,-80 h -20 v -20 -20 h 20 20 v 20 20 z m -7600,-40 h -20 v -20 -20 h 20 20 v 20 20 z m 7795.279,-80 h -20 l 24.721,-40 24.721,-40 h 20 20 l -24.721,40 -24.721,40 z m -8035.279,-80 h -20 v -20 -20 h 20 20 v 20 20 z m 8195.279,-40 h -20 l 24.721,-40 24.721,-40 h 20 20 l -24.721,40 -24.721,40 z m -4575.279,-40 h -53.333 l 26.666,-26.667 26.667,-26.666 26.667,26.666 26.666,26.667 z m 860,0 h -20 v -20 -20 h 20 20 v 20 20 z m -4640,-40 h -20 v -20 -20 h 20 20 v 20 20 z m 3460,0 h -53.333 l 26.666,-26.667 26.667,-26.666 26.667,26.666 26.666,26.667 z m 1540,0 h -20 v -20 -20 h 20 20 v 20 20 z m -1840,-40 h -20 v -20 -20 h 20 20 v 20 20 z m 2120,0 h -20 v -20 -20 h 20 20 v 20 20 z m 3240,0 h -20 v -20 -20 h 20 20 v 20 20 z m -5520,-40 h -20 v -20 -20 h 20 20 v 20 20 z m -160,-40 h -20 v -20 -20 h 20 20 v 20 20 z m 5795.279,0 h -20 l 24.721,-40 24.721,-40 h 20 20 l -24.721,40 -24.721,40 z m -5975.279,-40 h -53.333 l 26.666,-26.667 26.667,-26.666 26.667,26.666 26.666,26.667 z m -140,-40 h -20 v -20 -20 h 20 20 v 20 20 z m -2840,-40 h -20 v -20 -20 h 20 20 v 20 20 z m 2720,0 h -20 v -20 -20 h 20 20 v 20 20 z m 3640,0 h -20 v -20 -20 h 20 20 v 20 20 z m -3760,-40 h -20 v -20 -20 h 20 20 v 20 20 z m 3880,0 h -20 v -20 -20 h 20 20 v 20 20 z m -3960,-40 h -20 v -20 -20 h 20 20 v 20 20 z m -120,-40 h -20 v -20 -20 h 20 20 v 20 20 z m 6827.601,0 h -20 l 72.399,-80 72.399,-80 h 20 20 l -72.399,80 -72.399,80 z m -6947.601,-40 h -20 v -20 -20 h 20 20 v 20 20 z m 4520,0 h -20 v -20 -20 h 20 20 v 20 20 z m -4600,-40 h -20 v -20 -20 h 20 20 v 20 20 z m -80,-40 h -20 v -20 -20 h 20 20 v 20 20 z m -80,-40 h -20 v -20 -20 h 20 20 v 20 20 z m -80,-40 h -20 v -20 -20 h 20 20 v 20 20 z m -2360,-40 h -20 v -20 -20 h 20 20 v 20 20 z m 2280,0 h -20 v -20 -20 h 20 20 v 20 20 z m -80,-40 h -20 v -20 -20 h 20 20 v 20 20 z m -80,-40 h -20 v -20 -20 h 20 20 v 20 20 z m -80,-40 h -20 v -20 -20 h 20 20 v 20 20 z m 5800,0 h -20 v -20 -20 h 20 20 v 20 20 z m -8040,-80 h -20 v -20 -20 h 20 20 v 20 20 z m 2120,0 h -20 v -20 -20 h 20 20 v 20 20 z m 6040,0 h -20 v -20 -20 h 20 20 v 20 20 z m 80,-40 h -20 v -20 -20 h 20 20 v 20 20 z m -6240,-40 h -20 v -20 -20 h 20 20 v 20 20 z m 6360,-40 h -20 v -20 -20 h 20 20 v 20 20 z m -6480,-40 h -20 v -20 -20 h 20 20 v 20 20 z m 8555.102,0 h -15.102 v -15.102 -15.102 l 70,-54.898 70,-54.898 -54.898,70 -54.898,70 z m -1955.102,-40 h -20 v -20 -20 h 20 20 v 20 20 z m -6720,-40 h -20 v -20 -20 h 20 20 v 20 20 z m 2956.667,-43.158 -76.667,-3.156 52.5,-21.009 52.5,-21.009 24.167,24.167 24.166,24.167 z m 3878.612,3.16 h -20 l 24.721,-40 24.721,-40 h 20 20 l -24.721,40 -24.721,40 z m -6955.279,-40.002 h -20 v -20 -20 h 20 20 v 20 20 z m 2820,0 h -53.333 l 26.666,-26.667 26.667,-26.666 26.667,26.666 26.666,26.667 z m 960,-27.88 -300,19.107 -400,-41.239 -400,-41.238 -146.18,-4.375 -146.181,-4.375 14.871,-24.061 14.87,-24.061 -160.456,-48.074 -160.457,-48.074 -88.233,24.755 -88.234,24.755 49.596,-34.73 49.595,-34.732 -139.362,-50.394 -139.363,-50.394 -46.413,28.686 -46.414,28.685 32.743,-52.978 32.742,-52.978 -68.64,26.339 -68.639,26.34 21.569,-34.9 21.569,-34.9 -117.077,-48.494 -117.078,-48.496 -43.405,26.826 -43.405,26.826 10.991,-52.973 10.991,-52.973 -69.57,5.484 -69.569,5.484 20.69,-33.477 20.69,-33.477 -81.947,-43.857 -81.947,-43.857 -45.354,28.03 -45.354,28.031 25.837,-41.805 25.837,-41.805 -100.786,-66.038 -100.787,-66.038 -45.05,27.843 -45.051,27.843 26.801,-43.365 26.801,-43.365 -250.587,-192.815 -250.587,-192.816 -33.007,10.991 -33.006,10.991 22.102,-35.762 22.102,-35.763 -189.129,-216.181 -189.129,-216.182 -143.53,-199.047 -143.53,-199.047 -127.018,-225.826 -127.016,-225.8247 -112.715,-274.175 -112.715,-274.174 -95.841,-360 -95.841,-360 0.66,-740 0.66,-740 90.082,-333.086 90.081,-333.086 121.338,-306.914 121.337,-306.914 157.114,-273.672 157.114,-273.672 -26.271,-42.508 -26.272,-42.509 41.648,25.74 41.649,25.74 47.975,-57.807 47.976,-57.808 -29.624,-47.932 -29.624,-47.933 42.033,25.978 42.032,25.977 149.345,-195.834 149.345,-195.834 -15.197,-22.035 -15.197,-22.036 155.014,-158.748 155.013,-158.749 50.941,19.548 50.94,19.548 33.434,-52.727 33.433,-52.727 1.512,-40 1.508,-40 66.086,11.061 66.086,11.061 32.404,-51.061 32.403,-51.061 2.432,-40 2.432,-40 49.802,10.54 49.803,10.54 79.5,-42.547 79.5,-42.547 -27.301,-44.173 -27.301,-44.174 45.354,28.031 45.354,28.03 81.947,-43.857 81.947,-43.857 -20.69,-33.477 -20.69,-33.477 69.569,5.484 69.57,5.484 -10.991,-52.973 -10.991,-52.973 43.405,26.826 43.405,26.826 117.078,-48.496 117.077,-48.494 -21.569,-34.9 -21.569,-34.9 58.467,22.436 58.468,22.436 120.122,-62.118 120.123,-62.118 392.233,-101.91 392.232,-101.911 451.59,-36.807 451.588,-36.808 369.666,46.281 369.666,46.28 149.294,-0.264 149.294,-0.264 -43.251,26.73 -43.251,26.73 144.638,27.134 144.637,27.135 45.5,-28.121 45.5,-28.12 -26.761,43.3 -26.762,43.301 80.223,25.461 80.223,25.462 46.538,-28.762 46.539,-28.762 -32.435,52.481 -32.436,52.481 86.31,-22.571 86.31,-22.57 -26.31,42.57 -26.31,42.571 86.31,-22.571 86.31,-22.57 -26.617,43.067 -26.617,43.067 68.64,-26.339 68.639,-26.339 -28.639,46.339 -28.64,46.339 68.64,-26.339 68.639,-26.339 -28.639,46.339 -28.64,46.339 68.64,-26.339 68.639,-26.339 -28.639,46.339 -28.64,46.339 68.64,-26.339 68.639,-26.339 -28.639,46.339 -28.64,46.339 75.343,-28.911 75.343,-28.912 -28.569,28.568 -28.568,28.568 140.495,95.469 140.496,95.47 40.283,-24.897 40.283,-24.896 -10.991,52.973 -10.991,52.976 68.431,-5.294 68.432,-5.294 -8.432,45.294 -8.431,45.294 69.57,-5.484 69.569,-5.484 -20.04,32.426 -20.04,32.425 114.986,81.877 114.985,81.876 31.898,-28.818 31.898,-28.818 -24.523,43.122 -24.523,43.123 230.362,227.958 230.363,227.959 34.16,-31.081 34.161,-31.081 -25.829,45.235 -25.829,45.235 120.032,151.04 120.032,151.04 82.8,133.974 82.801,133.974 32.067,-19.818 32.068,-19.819 -5.484,69.569 -5.484,69.57 52.973,-10.991 52.973,-10.991 -23.636,38.244 -23.636,38.244 67.255,141.034 67.254,141.034 32.95,-20.365 32.951,-20.364 -26.34,68.639 -26.339,68.64 52.978,-32.742 52.978,-32.743 -27.758,44.913 -27.758,44.913 124.154,351.267 124.154,351.268 63.717,320 63.716,320 2.428,520 2.428,520 -52.057,280 -52.058,280 -122.28,380 -122.28,380 -115.761,231.59 -115.762,231.5887 27.558,44.591 27.559,44.591 -42.11,-26.026 -42.11,-26.025 -131.057,209.845 -131.058,209.845 -94.944,104.205 -94.945,104.205 11.932,53.977 11.931,53.977 -44.884,1.82 -44.884,1.82 -203.123,197.044 -203.123,197.044 17.064,27.61 17.064,27.61 -79.057,71.545 -79.057,71.546 v -27.607 -27.607 l -81.12,43.414 -81.12,43.415 20.69,33.476 20.69,33.477 -69.57,-5.483 -69.57,-5.488 8.431,45.294 8.432,45.294 -67.467,-5.294 -67.466,-5.294 -2.784,60 -2.784,60 -49.802,-10.54 -49.802,-10.54 -79.5,42.547 -79.5,42.547 23.198,37.535 23.198,37.535 -68.64,-26.34 -68.639,-26.339 28.639,46.339 28.64,46.34 -68.64,-26.34 -68.639,-26.339 28.639,46.339 28.64,46.34 -68.64,-26.34 -68.639,-26.339 28.639,46.339 28.64,46.34 -68.64,-26.34 -68.639,-26.339 28.639,46.339 28.64,46.34 -68.64,-26.34 -68.639,-26.339 32.742,52.978 32.742,52.978 -46.538,-28.763 -46.539,-28.762 -80.222,25.462 -80.223,25.462 26.761,43.3 26.761,43.301 -46.962,-29.025 -46.963,-29.024 -139.586,46.068 -139.586,46.067 26.548,42.957 26.549,42.957 -44.229,-27.336 -44.23,-27.335 -391.951,77.662 -391.951,77.661 -300,19.107 z m 2260,-692.12 h 20 v -20 -20 h -20 -20 v 20 20 z m 435.102,-320 h 15.102 l 54.898,-70 54.898,-70 -70,54.898 -70,54.898 v 15.102 15.102 z m 564.898,-560 h 20 v -20 -20 h -20 -20 v 20 20 z m -3540,-1287.1027 220,-27.104 133.371,-41.071 133.37,-41.071 166.63,-98.633 166.629,-98.633 167.362,-173.192 167.363,-173.193 104.715,-209.946 104.716,-209.946 57.227,-270.054 57.228,-270.054 v -300 -300 l -56.221,-265.243 -56.221,-265.243 -103.01,-203.28 -103.01,-203.281 -128.383,-146.219 -128.382,-146.22 -157.446,-99.391 -157.446,-99.391 -220.508,-75.866 -220.508,-75.866 -323.738,0.432 -323.738,0.432 -184.741,56.071 -184.74,56.071 -170.808,87.139 -170.807,87.14 -187.229,187.229 -187.229,187.228 -110.464,233.502 -110.464,233.502 -43.819,235.626 -43.819,235.626 h -392.076 -392.076 l -10.864,-770 -10.864,-770 h -240 -240 v 1840 1840 h 240 240 l 10.796,-850 10.795,-850 h 370.883 370.884 l 64.541,341.868 64.541,341.868 105.726,216.096 105.725,216.095 188.055,186.028 188.054,186.029 180,89.674 180,89.675 180,45.793 180,45.794 140,10.54 140,10.54 220,-27.103 z m -440,-32.897 h -53.333 l 26.666,-26.667 26.667,-26.666 26.667,26.666 26.666,26.667 z m 420,0 h -20 v -20 -20 h 20 20 v 20 20 z m -2920,-51.44 -200,-0.544 110.55,-16.717 110.55,-16.717 89.45,17.263 89.45,17.263 z m 2280,11.44 h -20 v -20 -20 h 20 20 v 20 20 z m -320,-120 h -20 v -20 -20 h 20 20 v 20 20 z m -80,-40 h -20 v -20 -20 h 20 20 v 20 20 z m -120,-80 h -20 v -20 -20 h 20 20 v 20 20 z m 800,-40 h -20 v -20 -20 h 20 20 v 20 20 z m 320,0 h -20 v -20 -20 h 20 20 v 20 20 z m 200,-40 h -20 v -20 -20 h 20 20 v 20 20 z m -377.126,-43.438 -222.874,-3.44 -100.259,-30.497 -100.259,-30.498 -119.741,-62.651 -119.741,-62.652 -127.951,-133.413 -127.951,-133.413 -82.875,-187.635 -82.875,-187.635 -39.768,-317.158 -39.768,-317.158 41.265,-290.954 41.265,-290.955 80.529,-182.05 80.529,-182.05 108.661,-142.203 108.661,-142.202 -7.004,-21.428 -7.004,-21.429 67.143,-5.359 67.143,-5.359 220,-81.907 220,-81.906 162.74,-1.304 162.74,-1.304 211.059,62.678 211.058,62.678 171.671,158.24 171.67,158.24 83.814,194.83 83.814,194.83 36.29,324.369 36.29,324.369 -33.338,297.272 -33.337,297.271 -87.81,204.119 -87.809,204.118 -176.645,155.489 -176.645,155.489 -184.906,63.004 -184.907,63.004 -222.875,-3.436 z m 497.126,3.438 h -20 v -20 -20 h 20 20 v 20 20 z m -1760,-200 h -20 v -20 -20 h 20 20 v 20 20 z m -80,-120 h -20 v -20 -20 h 20 20 v 20 20 z m 2320,-40 h -20 v -20 -20 h 20 20 v 20 20 z m -2360,-40 h -20 v -20 -20 h 20 20 v 20 20 z m -40,-80 h -20 v -20 -20 h 20 20 v 20 20 z m 2480,0 h -20 v -20 -20 h 20 20 v 20 20 z m -2080,-40 h -20 v -20 -20 h 20 20 v 20 20 z m 2120,-40 h -20 v -20 -20 h 20 20 v 20 20 z m 40,-80 h -20 v -20 -20 h 20 20 v 20 20 z m 40,-120 h -20 v -20 -20 h 20 20 v 20 20 z m 400,-40 h -20 v -20 -20 h 20 20 v 20 20 z m -2720,-40 h -20 v -20 -20 h 20 20 v 20 20 z m 2360,-80 h -20 v -20 -20 h 20 20 v 20 20 z m 406.667,-53.333 -26.667,26.666 v -53.333 -53.333 l 26.667,26.666 26.666,26.667 z m -2806.667,-66.667 h -20 v -20 -20 h 20 20 v 20 20 z m 2446.667,-133.333 -26.667,26.666 v -53.333 -53.333 l 26.667,26.666 26.666,26.667 z m -3766.667,-146.667 h -20 v -20 -20 h 20 20 v 20 20 z m 4166.491,-110 -20.175,50 v -100 -100 l 20.175,50 20.176,50 z m -406.491,-250 h -20 v -20 -20 h 20 20 v 20 20 z m -2840,-40 h -20 v -20 -20 h 20 20 v 20 20 z m 400,-80 h -20 v -20 -20 h 20 20 v 20 20 z m -360,-160 h -20 v -20 -20 h 20 20 v 20 20 z m 400,-40 h -20 v -20 -20 h 20 20 v 20 20 z m -360,-120 h -20 v -20 -20 h 20 20 v 20 20 z m 2680,0 h -20 v -20 -20 h 20 20 v 20 20 z m -2640,-120 h -20 v -20 -20 h 20 20 v 20 20 z m 400,0 h -20 v -20 -20 h 20 20 v 20 20 z m 2200,0 h -20 v -20 -20 h 20 20 v 20 20 z m -2560,-120 h -20 v -20 -20 h 20 20 v 20 20 z m 2920,0 h -20 v -20 -20 h 20 20 v 20 20 z m -2480,-40 h -20 v -20 -20 h 20 20 v 20 20 z m 2040,0 h -20 v -20 -20 h 20 20 v 20 20 z m -2440,-40 h -20 v -20 -20 h 20 20 v 20 20 z m 2400,-40 h -20 v -20 -20 h 20 20 v 20 20 z m -2360,-40 h -20 v -20 -20 h 20 20 v 20 20 z m 440,0 h -20 v -20 -20 h 20 20 v 20 20 z m 2280,-80 h -20 v -20 -20 h 20 20 v 20 20 z m -80,-120 h -20 v -20 -20 h 20 20 v 20 20 z m -560,-40 h -20 v -20 -20 h 20 20 v 20 20 z m -1880,-40 h -20 v -20 -20 h 20 20 v 20 20 z m 1080,-160 h -20 v -20 -20 h 20 20 v 20 20 z m 220,0 h -53.333 l 26.666,-26.667 26.667,-26.666 26.667,26.666 26.666,26.667 z m 902.361,0 h -17.64 l -28.541,-46.18 -28.541,-46.181 46.181,28.541 46.18,28.541 v 17.64 17.639 z m -1922.361,-80 h -20 v -20 -20 h 20 20 v 20 20 z m 1680,-80 h -20 v -20 -20 h 20 20 v 20 20 z m -1440,-40 h -20 v -20 -20 h 20 20 v 20 20 z m 120,-40 h -20 v -20 -20 h 20 20 v 20 20 z m 1000,-40 h -20 v -20 -20 h 20 20 v 20 20 z m -620,-40 h -53.333 l 26.666,-26.667 26.667,-26.666 26.667,26.666 26.666,26.667 z m 380,0 h -20 v -20 -20 h 20 20 v 20 20 z m 2270,3671.909 250,-11.909 10.633,-1110 10.633,-1110 h 499.367 499.367 v -220 -220 h -760 -760 v 1341.909 1341.908 z m 10,-43.349 -200,-0.544 110.55,-16.717 110.55,-16.717 89.45,17.263 89.45,17.263 z m 200,-2228.56 h -20 v -20 -20 h 20 20 v 20 20 z m -5855.693,-2640 h 20 l 135.693,-140 135.693,-140 h -20 -20 l -135.693,140 -135.693,140 z m 455.693,-400 h 20 v -20 -20 h -20 -20 v 20 20 z m 200,-160 h 20 v -20 -20 h -20 -20 v 20 20 z m 1760,8359.9997 h -20 v -20 -20 h 20 20 v 20 20 z m 1880,0 h -20 v -20 -20 h 20 20 v 20 20 z m -6440,-40 h -20 v -20 -20 h 20 20 v 20 20 z m 4240,-40 h -20 v -20 -20 h 20 20 v 20 20 z m -120,-40 h -20 v -20 -20 h 20 20 v 20 20 z m 5075.279,0 h -20 l 24.721,-40 24.721,-40 h 20 20 l -24.721,40 -24.721,40 z m -7435.279,-40 h -20 v -20 -20 h 20 20 v 20 20 z m 2000,-80 h -20 v -20 -20 h 20 20 v 20 20 z m 3600,-40 h -20 v -20 -20 h 20 20 v 20 20 z m 3840,0 h -20 v -20 -20 h 20 20 v 20 20 z m -1773.945,-40 h -20 l 93.945,-100 93.945,-100 h 20 20 l -93.945,100 -93.945,100 z m -9666.055,-40 h -20 v -20 -20 h 20 20 v 20 20 z m 3640,-40 h -20 v -20 -20 h 20 20 v 20 20 z m 7920,-40 h -20 v -20 -20 h 20 20 v 20 20 z m -8200,-120 h -20 v -20 -20 h 20 20 v 20 20 z m -3640,-200 h -20 v -20 -20 h 20 20 v 20 20 z m -160,-280 h -20 v -20 -20 h 20 20 v 20 20 z m 1600,0 h -20 v -20 -20 h 20 20 v 20 20 z m -120,-160 h -20 v -20 -20 h 20 20 v 20 20 z m 11040,-80 h -20 v -20 -20 h 20 20 v 20 20 z m -19220,-59.526 h -6540 l 3270,-10.471 3270,-10.471 3270,10.471 3270,10.471 z m 7940,-220.474 h -20 v -20 -20 h 20 20 v 20 20 z m 10000,-200 h -20 v -20 -20 h 20 20 v 20 20 z m -10160,-80 h -20 v -20 -20 h 20 20 v 20 20 z m -160,-320 h -20 v -20 -20 h 20 20 v 20 20 z m 10680,-359.9997 h -20 v -20 -20 h 20 20 v 20 20 z m -24840,-120 h -20 v -20 -20 h 20 20 v 20 20 z m 26320,-80 h -20 v -20 -20 h 20 20 v 20 20 z m -1400,-40 h -20 v -20 -20 h 20 20 v 20 20 z m 1440,-120 h -20 v -20 -20 h 20 20 v 20 20 z m -2560,-40 h -20 v -20 -20 h 20 20 v 20 20 z m 40,-120 h -20 v -20 -20 h 20 20 v 20 20 z m 2560,-40 h -20 v -20 -20 h 20 20 v 20 20 z m -2520,-80 h -20 v -20 -20 h 20 20 v 20 20 z m 1160,0 h -20 v -20 -20 h 20 20 v 20 20 z m -10080,-40 h -20 v -20 -20 h 20 20 v 20 20 z m -10000,-40 h -20 v -20 -20 h 20 20 v 20 20 z m 440,0 h -20 v -20 -20 h 20 20 v 20 20 z m 1020,0 h -53.333 l 26.666,-26.667 26.667,-26.666 26.667,26.666 26.666,26.667 z m 3560,0 h -53.333 l 26.666,-26.667 26.667,-26.666 26.667,26.666 26.666,26.667 z m 420,0 h -20 v -20 -20 h 20 20 v 20 20 z m 1720,0 h -20 v -20 -20 h 20 20 v 20 20 z m -8640,-40 h -20 v -20 -20 h 20 20 v 20 20 z m 1672.471,-30.706 -327.529,12.431 17.437,-17.437 17.438,-17.438 -149.198,-90.045 -149.197,-90.044 -31.702,19.593 -31.702,19.592 10.237,-32.973 10.238,-32.973 -97.482,-199.641 -97.481,-199.641 v -263.024 -263.026 l 70.831,-185.47 70.832,-185.47 147.404,-129.79 147.403,-129.789 -6.667,-22.075 -6.666,-22.074 86.666,-6.776 86.667,-6.776 351.218,-16.338 351.218,-16.337 -39.958,24.696 -39.959,24.695 141.671,76.295 141.67,76.294 102.625,175.117 102.625,175.116 19.784,276.506 19.784,276.505 -52.037,185.859 -52.038,185.858 -160.84,164.643 -160.84,164.643 4.205,20 4.205,20 -86.666,8.431 -86.667,8.431 z m 55.647,-170.172 128.118,0.88 100.628,-45.85 100.628,-45.849 -18.315,-29.634 -18.316,-29.635 69.57,5.484 69.569,5.484 90,-178.476 90,-178.476 v -250.714 -250.716 l -63.391,-158.431 -63.392,-158.431 -97.738,-64.041 -97.738,-64.04 -45.051,27.843 -45.051,27.842 27.817,-45.007 27.816,-45.008 -103.807,-26.054 -103.808,-26.054 -146.89,23.837 -146.891,23.837 -100.938,74.722 -100.938,74.723 -85.299,125.262 -85.299,125.262 -26.237,174.96 -26.237,174.961 42.273,188.631 42.273,188.631 67.587,103.151 67.586,103.15 161.677,73.439 161.676,73.44 128.118,0.88 z m -68.118,-39.122 h -53.333 l 26.666,-26.667 26.667,-26.666 26.667,26.666 26.666,26.667 z m -140,-40 h -20 v -20 -20 h 20 20 v 20 20 z m 760,-440 h -20 v -20 -20 h 20 20 v 20 20 z m -1120,-40 h -20 v -20 -20 h 20 20 v 20 20 z m 0,-360 h -20 v -20 -20 h 20 20 v 20 20 z m 280,-440 h -20 v -20 -20 h 20 20 v 20 20 z m 600,0 h -20 v -20 -20 h 20 20 v 20 20 z m -220,-80 h -53.333 l 26.666,-26.667 26.667,-26.666 26.667,26.666 26.666,26.667 z m 3220,1640 h -20 v -20 -20 h 20 20 v 20 20 z m 1320,0 h -20 v -20 -20 h 20 20 v 20 20 z m 320,-4.392 -80,-2.484 -120,-36.37 -120,-36.369 -52.078,19.349 -52.077,19.35 24.438,-39.542 24.438,-39.542 -52.36,-4.737 -52.361,-4.737 -32.973,5.728 -32.973,5.728 22.532,-36.459 22.533,-36.459 -53.24,-44.185 -53.24,-44.185 -32.732,29.653 -32.733,29.653 28.263,-49.173 28.263,-49.174 -48.205,-90.071 -48.204,-90.07 -44.581,-200.756 -44.581,-200.756 h -279.065 -279.064 l -11.353,430 -11.353,430 h -98.647 -98.647 v -920 -920 h 100 100 v 336.728 336.729 l 24.28,63.271 24.279,63.272 h 256.578 256.578 l 35.495,-90 35.495,-90 50.701,-135.314 50.702,-135.314 88.087,-104.686 88.088,-104.686 7.481,-40 7.482,-40 61.391,12.675 61.391,12.675 -20.194,-32.675 -20.195,-32.675 86.181,-7.924 86.18,-7.924 306.573,-12.711 306.573,-12.711 -16.344,26.444 -16.342,26.443 63.38,24.321 63.379,24.322 37.382,-23.104 37.381,-23.102 -10.852,32.973 -10.852,32.973 106.853,140 106.853,140 47.686,189.719 47.686,189.718 -15.994,251.179 -15.994,251.178 -86.946,175.734 -86.947,175.734 24.443,39.55 24.443,39.549 -45.324,-28.012 -45.323,-28.011 -114.415,84.59 -114.415,84.591 -156.442,36.286 -156.442,36.287 z m 47.396,-195.67 127.396,0.08 105.011,-39.925 105.011,-39.925 -25.38,-41.066 -25.38,-41.066 52.973,10.991 52.973,10.991 -10.991,-52.973 -10.991,-52.973 41.829,25.852 41.829,25.852 59.162,-141.594 59.162,-141.594 -0.24,-251.285 -0.24,-251.285 -39.716,-142.97 -39.716,-142.97 -97.1,-91.221 -97.1,-91.221 -49.141,30.372 -49.142,30.371 27.817,-45.008 27.816,-45.008 -103.808,-26.054 -103.807,-26.054 -142.059,23.053 -142.06,23.054 -94.936,62.204 -94.937,62.206 -70.487,129.623 -70.486,129.623 -0.36,340 -0.36,340 81.36,140 81.361,140 138.639,69.938 138.64,69.938 127.396,0.08 z m -67.396,-39.938 h -53.333 l 26.666,-26.667 26.667,-26.666 26.667,26.666 26.666,26.667 z m 580,-480 h -20 v -20 -20 h 20 20 v 20 20 z m -1035.833,-210.833 -24.167,24.166 3.16,-76.666 3.156,-76.667 21.009,52.5 21.009,52.5 z m 1035.833,-229.167 h -20 v -20 -20 h 20 20 v 20 20 z m -1000,-120 h -20 v -20 -20 h 20 20 v 20 20 z m 580,-360 h -53.333 l 26.666,-26.667 26.667,-26.666 26.667,26.666 26.666,26.667 z m -580,-120 h 20 v -20 -20 h -20 -20 v 20 20 z m 2240,1760 h -20 v -20 -20 h 20 20 v 20 20 z m 505.739,-14.364 -225.739,5.636 -140,-34.271 -140,-34.27 -49.52,17.195 -49.52,17.195 9.52,-48.561 9.52,-48.56 -72.667,6 -72.666,6 22.754,-22.754 22.753,-22.754 -65.433,-72.303 -65.433,-72.303 -26.082,16.12 -26.083,16.12 -4.628,-67.063 -4.628,-67.063 -67.929,-180 -67.93,-180 24.328,-239.14 24.328,-239.14 77.92,-157.491 77.921,-157.491 -24.443,-39.55 -24.443,-39.549 40.835,25.237 40.834,25.238 75.346,-88.368 75.346,-88.367 -80,59.31 -80,59.311 54.532,-69.56 54.532,-69.559 31.219,19.294 31.218,19.294 154.25,-65.742 154.249,-65.741 302.722,-4.797 302.722,-4.797 8.707,147.56 8.707,147.56 -47.609,29.424 -47.61,29.425 32.743,-52.978 32.742,-52.978 -68.64,26.339 -68.639,26.34 23.189,-37.521 23.189,-37.521 -147.138,-27.603 -147.139,-27.603 -143.973,37.126 -143.973,37.127 9.52,47.016 9.52,47.016 -54.11,-20.764 -54.11,-20.764 -103.873,123.446 -103.873,123.445 -41.314,148.758 -41.314,148.758 1.532,140 1.532,140 54.441,152.648 54.441,152.648 71.279,78.762 71.28,78.763 54.601,-20.952 54.602,-20.953 -28.64,46.34 -28.639,46.339 68.639,-26.339 68.64,-26.34 -21.848,35.351 -21.848,35.35 63.042,24.192 63.041,24.191 h 138.014 138.013 l 138.715,-57.959 138.715,-57.959 v 99.214 99.215 l -59.77,22.936 -59.77,22.936 15.509,25.808 15.509,25.809 -225.739,5.636 z m 11454.261,14.364 h -20 v -20 -20 h 20 20 v 20 20 z m 2520,0 h -20 v -20 -20 h 20 20 v 20 20 z m -24460.604,-40 h -119.396 v -1280 -1280 h 960 960 v 1280 1280 h -119.396 -119.395 l -10.605,-1170 -10.604,-1170 h -700 -700 l -10.604,1170 -10.604,1170 z m 1870.548,-652.54 -12.014,672.54 -0.03,-1320 -0.03,-1320 12.041,647.46 12.042,647.459 z m 2465.68,652.54 h -15.624 v -117.639 -117.64 l 31.641,-19.555 31.64,-19.554 -16.017,137.194 -16.016,137.194 z m 261.067,-7.908 -196.691,11.946 v -100.764 -100.763 l 60.309,23.143 60.309,23.142 102.828,-67.376 102.828,-67.375 -21.697,-56.543 -21.698,-56.542 43.12,9.52 43.119,9.52 72.461,-208.398 72.461,-208.399 40.649,-291.601 40.649,-291.602 25.209,-230 25.21,-230 h 457.122 457.121 v 920 920 h -119.172 -119.172 l -10.827,-810 -10.829,-810 h -240 -240 l -28.819,300 -28.819,300 -67.751,292.529 -67.751,292.529 -121.423,187.471 -121.423,187.471 4.684,20.073 4.684,20.072 z m 1073.286,-730.86 -11.852,758.768 -9.062,-787.7 -9.063,-787.7 -170,-15.312 -170,-15.312 171.255,-6.988 171.256,-6.988 19.66,51.232 19.659,51.232 z m 17430.023,738.768 h -20 v -20 -20 h 20 20 v 20 20 z m -19360,-40 h -20 v -20 -20 h 20 20 v 20 20 z m 7127.483,-89.534 -18.203,69.534 0.808,-160 0.808,-160 17.396,90.466 17.396,90.467 -18.203,69.533 z m 11112.517,49.534 h -20 v -20 -20 h 20 20 v 20 20 z m 2520,-40 h -20 v -20 -20 h 20 20 v 20 20 z m -14200,-80 h -20 v -20 -20 h 20 20 v 20 20 z m 12840,-40 h -20 v -20 -20 h 20 20 v 20 20 z m -18120,-40 h -20 v -20 -20 h 20 20 v 20 20 z m 17000,0 h -20 v -20 -20 h 20 20 v 20 20 z m -11240,-40 h -20 v -20 -20 h 20 20 v 20 20 z m 12400,-160 h -20 v -20 -20 h 20 20 v 20 20 z m 1366.667,-13.333 -26.667,26.666 v -53.333 -53.333 l 26.667,26.666 26.666,26.667 z m -20446.667,-26.667 h -20 v -20 -20 h 20 20 v 20 20 z m 17960,0 h -20 v -20 -20 h 20 20 v 20 20 z m -13000,-40 h -20 v -20 -20 h 20 20 v 20 20 z m -3920,-40 h -20 v -20 -20 h 20 20 v 20 20 z m 4320,0 h -20 v -20 -20 h 20 20 v 20 20 z m -5320,-80 h -20 v -20 -20 h 20 20 v 20 20 z m 1040,-80 h -20 v -20 -20 h 20 20 v 20 20 z m 16924.167,-10.833 -24.167,24.166 3.156,-76.666 3.156,-76.667 21.009,52.5 21.009,52.5 -24.167,24.167 z m -12996.594,-79.167 -18.293,70 v -140 -140 l 18.293,70 18.293,70 z m -4247.573,10 h -20 v -20 -20 h 20 20 v 20 20 z m 4924.167,-10.833 -24.167,24.166 3.16,-76.666 3.156,-76.667 21.009,52.5 21.009,52.5 z m 13440,-40 -24.167,24.166 3.156,-76.666 3.156,-76.667 21.009,52.5 21.009,52.5 -24.167,24.167 z m 1365.323,-179.167 -14.692,210 v -420 -420 l 14.692,210 14.691,210 z m -19369.49,70 h -20 v -20 -20 h 20 20 v 20 20 z m -320,-40 h -20 v -20 -20 h 20 20 v 20 20 z m 4560,-80 h -20 v -20 -20 h 20 20 v 20 20 z m 360,-40 h -20 v -20 -20 h 20 20 v 20 20 z m -2440,-40 h -20 v -20 -20 h 20 20 v 20 20 z m -5040,-80 h -20 v -20 -20 h 20 20 v 20 20 z m 2926.667,-13.333 -26.667,26.666 v -53.333 -53.333 l 26.667,26.666 26.666,26.667 z m 3793.333,13.333 h -20 v -20 -20 h 20 20 v 20 20 z m 440,0 h -20 v -20 -20 h 20 20 v 20 20 z m -4553.333,-53.333 -26.667,26.666 v -53.333 -53.333 l 26.667,26.666 26.666,26.667 z m 5920.816,-236.201 -18.203,69.534 0.808,-160 0.808,-160 17.396,90.466 17.396,90.467 -18.203,69.533 z m -6887.483,9.534 h -20 v -20 -20 h 20 20 v 20 20 z m 4960,0 h -20 v -20 -20 h 20 20 v 20 20 z m 1240,0 h -20 v -20 -20 h 20 20 v 20 20 z m 2606.667,-13.333 -26.667,26.666 v -53.333 -53.333 l 26.667,26.666 26.666,26.667 z m -2446.667,-26.667 h -20 v -20 -20 h 20 20 v 20 20 z m 140,0 h -53.333 l 26.666,-26.667 26.667,-26.666 26.667,26.666 26.666,26.667 z m 12746.667,-13.333 -26.667,26.666 v -53.333 -53.333 l 26.667,26.666 26.666,26.667 z m -1126.667,-106.667 h -20 v -20 -20 h 20 20 v 20 20 z m -18320,-40 h -20 v -20 -20 h 20 20 v 20 20 z m 1206.667,-13.333 -26.667,26.666 v -53.333 -53.333 l 26.667,26.666 26.666,26.667 z m -1286.667,-26.667 h -20 v -20 -20 h 20 20 v 20 20 z m 4200,-40 h -20 v -20 -20 h 20 20 v 20 20 z m 2160,0 h -20 v -20 -20 h 20 20 v 20 20 z m -6600,-40 h -20 v -20 -20 h 20 20 v 20 20 z m 5000,0 h -20 v -20 -20 h 20 20 v 20 20 z m 2180,0 h -53.333 l 26.666,-26.667 26.667,-26.666 26.667,26.666 26.666,26.667 z m 2186.667,-13.333 -26.667,26.666 v -53.333 -53.333 l 26.667,26.666 26.666,26.667 z m 11713.333,-106.667 h -20 v -20 -20 h 20 20 v 20 20 z m -23680,-296.192 -640,-0.08 331.899,-13.506 331.9,-13.507 308.1,13.599 308.101,13.598 -640,-0.08 z m 22280,16.192 h -20 v -20 -20 h 20 20 v 20 20 z m -10240,-40 h -20 v -20 -20 h 20 20 v 20 20 z m 40,-160 h -20 v -20 -20 h 20 20 v 20 20 z m 40,-160 h -20 v -20 -20 h 20 20 v 20 20 z m 11440,-120 h -20 v -20 -20 h 20 20 v 20 20 z m -11240,-400 h -20 v -20 -20 h 20 20 v 20 20 z m -15160,-40 h -20 v -20 -20 h 20 20 v 20 20 z m 14160,-480 h -20 v -20 -20 h 20 20 v 20 20 z m 10320,-400 h -20 v -20 -20 h 20 20 v 20 20 z m -10000,-200 h -20 v -20 -20 h 20 20 v 20 20 z m 9760,-200 h -20 v -20 -20 h 20 20 v 20 20 z m -17700,-59.526 h -6540 l 3270,-10.471 3270,-10.471 3270,10.471 3270,10.471 z m 8180,-100.474 h -20 v -20 -20 h 20 20 v 20 20 z m -1480,-160 h -20 v -20 -20 h 20 20 v 20 20 z m 1600,0 h -20 v -20 -20 h 20 20 v 20 20 z m 115.279,-160 h -20 l 24.721,-40 24.721,-40 h 20 20 l -24.721,40 -24.721,40 z m 10524.721,-80 h -20 v -20 -20 h 20 20 v 20 20 z m -12000,-160 h -20 v -20 -20 h 20 20 v 20 20 z m 3560,-80 h -20 v -20 -20 h 20 20 v 20 20 z m -1640,-160 h -20 v -20 -20 h 20 20 v 20 20 z m -1720,-40 h -20 v -20 -20 h 20 20 v 20 20 z m 3920,-80 h -20 v -20 -20 h 20 20 v 20 20 z m 7520,0 h -20 v -20 -20 h 20 20 v 20 20 z m -11320,-80 h -20 v -20 -20 h 20 20 v 20 20 z m 1835.279,0 h -20 l 24.721,-40 24.721,-40 h 20 20 l -24.721,40 -24.721,40 z m 5324.721,-40 h -20 v -20 -20 h 20 20 v 20 20 z m 2200,0 h -20 v -20 -20 h 20 20 v 20 20 z m -5120,-40 h -20 v -20 -20 h 20 20 v 20 20 z m 2680,-40 h -20 v -20 -20 h 20 20 v 20 20 z m -6804.898,-40 h -15.102 v -15.102 -15.102 l 70,-54.898 70,-54.898 -54.898,70 -54.898,70 z m 1960.177,-40 h -20 l 24.721,-40 24.721,-40 h 20 20 l -24.721,40 -24.721,40 z m 4484.721,0 h -20 v -20 -20 h 20 20 v 20 20 z m -180,-40 h -53.333 l 26.666,-26.667 26.667,-26.666 26.667,26.666 26.666,26.667 z m 2740,0 h -20 v -20 -20 h 20 20 v 20 20 z m -3920,-40 h -20 v -20 -20 h 20 20 v 20 20 z m 780,0 h -53.333 l 26.666,-26.667 26.667,-26.666 26.667,26.666 26.666,26.667 z m -3740,-40 h -20 v -20 -20 h 20 20 v 20 20 z m 6720,-40 h -20 v -20 -20 h 20 20 v 20 20 z m -6600,-40 h -20 v -20 -20 h 20 20 v 20 20 z m 120,-80 h -20 v -20 -20 h 20 20 v 20 20 z m -2015.693,-80 h -20 l 135.693,-140 135.693,-140 h 20 20 l -135.693,140 -135.693,140 z m 2135.693,0 h -20 v -20 -20 h 20 20 v 20 20 z m 6040,0 h -20 v -20 -20 h 20 20 v 20 20 z m -5920,-80 h -20 v -20 -20 h 20 20 v 20 20 z m 5800,0 h -20 v -20 -20 h 20 20 v 20 20 z m -5720,-40 h -20 v -20 -20 h 20 20 v 20 20 z m 5640,0 h -20 v -20 -20 h 20 20 v 20 20 z m -5560,-40 h -20 v -20 -20 h 20 20 v 20 20 z m 5480,0 h -20 v -20 -20 h 20 20 v 20 20 z m -5400,-40 h -20 v -20 -20 h 20 20 v 20 20 z m 5320,0 h -20 v -20 -20 h 20 20 v 20 20 z m -5240,-40 h -20 v -20 -20 h 20 20 v 20 20 z m 5160,0 h -20 v -20 -20 h 20 20 v 20 20 z m -5080,-40 h -20 v -20 -20 h 20 20 v 20 20 z m 5000,0 h -20 v -20 -20 h 20 20 v 20 20 z m -4920,-40 h -20 v -20 -20 h 20 20 v 20 20 z m 4840,0 h -20 v -20 -20 h 20 20 v 20 20 z m -4760,-40 h -20 v -20 -20 h 20 20 v 20 20 z m 4680,0 h -20 v -20 -20 h 20 20 v 20 20 z m 2440,0 h -20 v -20 -20 h 20 20 v 20 20 z m -2520,-40 h -20 v -20 -20 h 20 20 v 20 20 z m -4400,-40 h -20 v -20 -20 h 20 20 v 20 20 z m 4280,0 h -20 v -20 -20 h 20 20 v 20 20 z m -6772.399,-40 h -20 l 72.399,-80 72.399,-80 h 20 20 l -72.399,80 -72.399,80 z m 6572.399,-40 h -20 v -20 -20 h 20 20 v 20 20 z m -3760,-40 h -20 v -20 -20 h 20 20 v 20 20 z m 3640,0 h -20 v -20 -20 h 20 20 v 20 20 z m -120,-40 h -20 v -20 -20 h 20 20 v 20 20 z m -120,-40 h -20 v -20 -20 h 20 20 v 20 20 z m 2880,0 h -20 v -20 -20 h 20 20 v 20 20 z m -8844.721,-40 h -20 l 24.721,-40 24.721,-40 h 20 20 l -24.721,40 -24.721,40 z m 5784.721,0 h -53.333 l 26.666,-26.667 26.667,-26.666 26.667,26.666 26.666,26.667 z m -180,-40 h -20 v -20 -20 h 20 20 v 20 20 z m -2280,-40 h -20 v -20 -20 h 20 20 v 20 20 z m 2120,0 h -20 v -20 -20 h 20 20 v 20 20 z m 3240,0 h -20 v -20 -20 h 20 20 v 20 20 z m -8520,-40 h -20 v -20 -20 h 20 20 v 20 20 z m 5000,0 h -20 v -20 -20 h 20 20 v 20 20 z m -360,-40 h -20 v -20 -20 h 20 20 v 20 20 z m -4480,-80 h -20 v -20 -20 h 20 20 v 20 20 z m 8080,-40 h -20 v -20 -20 h 20 20 v 20 20 z m -7964.721,-40 h -20 l 24.721,-40 24.721,-40 h 20 20 l -24.721,40 -24.721,40 z m 124.721,-80 h -20 v -20 -20 h 20 20 v 20 20 z m 7600,-40 h -20 v -20 -20 h 20 20 v 20 20 z m -80,-40 h -20 v -20 -20 h 20 20 v 20 20 z m -7320,-40 h -20 v -20 -20 h 20 20 v 20 20 z m 80,-40 h -20 v -20 -20 h 20 20 v 20 20 z m 7120,0 h -20 v -20 -20 h 20 20 v 20 20 z m -80,-40 h -20 v -20 -20 h 20 20 v 20 20 z m -6920,-40 h -20 v -20 -20 h 20 20 v 20 20 z m 80,-40 h -20 v -20 -20 h 20 20 v 20 20 z m 6640,-40 h -20 v -20 -20 h 20 20 v 20 20 z m -80,-40 h -20 v -20 -20 h 20 20 v 20 20 z m -6320,-40 h -20 v -20 -20 h 20 20 v 20 20 z m 80,-40 h -20 v -20 -20 h 20 20 v 20 20 z m 5960,-40 h -20 v -20 -20 h 20 20 v 20 20 z m -80,-40 h -20 v -20 -20 h 20 20 v 20 20 z m -5600,-40 h -20 v -20 -20 h 20 20 v 20 20 z m 5520,0 h -20 v -20 -20 h 20 20 v 20 20 z m -5440,-40 h -20 v -20 -20 h 20 20 v 20 20 z m 5240,-40 h -20 v -20 -20 h 20 20 v 20 20 z m -120,-40 h -20 v -20 -20 h 20 20 v 20 20 z m -120,-40 h -20 v -20 -20 h 20 20 v 20 20 z m -120,-40 h -20 v -20 -20 h 20 20 v 20 20 z m -120,-40 h -20 v -20 -20 h 20 20 v 20 20 z m -120,-40 h -20 v -20 -20.00001 h 20 20 v 20.00001 20 z m -120,-40.00001 h -20 v -20 -20 h 20 20 v 20 20 z m -200,-40 h -20 v -20 -20 h 20 20 v 20 20 z m -3120,-40 h -20 v -20 -20 h 20 20 v 20 20 z m 2940,0 h -53.333 l 26.666,-26.667 26.667,-26.666 26.667,26.666 26.666,26.667 z m -180,-40 h -20 v -20 -20 h 20 20 v 20 20 z m -2360,-40 h -20 v -20 -20 h 20 20 v 20 20 z m 2140,0 h -53.333 l 26.666,-26.667 26.667,-26.666 26.667,26.666 26.666,26.667 z m -380,-40 h -20 v -20 -20 h 20 20 v 20 20 z"
     id="path7840" /><path
     style="fill:#0e96d0;fill-opacity:1;stroke-width:1"
     d="m 21360.339,14950.508 h -20 v -20 -20 h 20 20 v 20 20 z m 1280,0 h -20 v -20 -20 h 20 20 v 20 20 z m -720,-45.344 -440,-5.12 -319.69,-36.418 -319.689,-36.418 -434.547,-98.092 -434.546,-98.094 -45.764,26.156 -45.764,26.156 30.849,-33.929 30.85,-33.929 -367.007,-131.039 -367.008,-131.039 -40.022,24.736 -40.023,24.735 25.921,-41.941 25.921,-41.941 -162.377,-64.971 -162.377,-64.97 -47.364,27.144 -47.363,27.144 30.118,-33.198 30.118,-33.197 -160.195,-95.529 -160.195,-95.528 -46.103,28.493 -46.104,28.494 24.554,-39.729 24.554,-39.729 -155.673,-87.493 -155.672,-87.492 -349.162,-257.327 -349.162,-257.326 -39.719,24.548 -39.72,24.548 25.679,-41.549 25.678,-41.548 -180.496,-166.376 -180.496,-166.376 -49.002,28.157 -49.002,28.157 29.653,-32.733 29.653,-32.732 -44.185,-53.24 -44.185,-53.24 -41.649,25.74 -41.648,25.74 27.925,-45.183 27.924,-45.182 -166.376,-180.496 -166.376,-180.496 -41.548,25.678 -41.549,25.679 24.513,-39.662 24.512,-39.661 -61.069,-87.188 -61.069,-87.188 -43.443,26.849 -43.444,26.85 29.019,-46.954 29.02,-46.954 -146.375,-199.402 -146.374,-199.402 -36.007,22.253 -36.006,22.253 18.23,-52.077 18.23,-52.078 -190.428,-320 -190.429,-320 -6528.26,-10.12 -6528.259,-10.12 v -599.88 -599.8797 h 6940 6940 v 42.361 42.36 l 39.542,-24.438 39.542,-24.438 -26.34,68.639 -26.339,68.6397 52.978,-32.7417 52.978,-32.743 -28.763,46.539 -28.762,46.5377 25.462,80.223 25.462,80.223 43.3,-26.762 43.301,-26.761 -28.763,46.539 -28.762,46.538 25.462,80.223 25.462,80.223 43.3,-26.762 43.301,-26.761 -27.815,45.006 -27.815,45.005 63.338,122.483 63.338,122.483 44.477,-27.488 44.477,-27.489 -27.815,45.006 -27.815,45.005 63.338,122.483 63.338,122.483 33.78,-20.878 33.781,-20.877 -5.484,69.569 -5.484,69.57 52.973,-10.991 52.973,-10.991 -26.045,42.142 -26.045,42.142 179.284,241.261 179.284,241.261 221.365,232.078 221.365,232.078 252.423,219.38 252.423,219.38 300,200.596 300,200.596 296.612,149.366 296.612,149.367 343.388,130.749 343.388,130.748 420,95.419 420,95.419 860,-2.908 860,-2.912 420,-104.955 420,-104.956 260,-98.668 260,-98.669 320,-150.982 320,-150.982 300,-199.029 300,-199.029 313.192,-259.568 313.191,-259.568 280.747,-323.887 280.746,-323.887 198.911,-300 198.911,-300 192.889,-400 192.889,-399.9997 122.052,-400 122.053,-400 66.961,-360 66.961,-360 0.556,-620 0.556,-620 -67.238,-360 -67.238,-360 -101.695,-340 -101.694,-340 -138.302,-316.321 -138.302,-316.322 -164.65,-283.678 -164.649,-283.679 -181.493,-240 -181.492,-240 -235.863,-267.872 -235.863,-267.872 -286.068,-235.138 -286.067,-235.138 -240,-161.623 -240,-161.623 -370.138,-185.837 -370.137,-185.838 -314.997,-114.959 -314.997,-114.96 -414.866,-94.57 -414.866,-94.57 h -820 -820 l -340,72.466 -340,72.465 -360,121.479 -360,121.479 -400,201.69 -400,201.691 -280,190.651 -280,190.652 -248.627,213.714 -248.627,213.713 -251.373,280.516 -251.373,280.516 -186.518,261.772 -186.517,261.771 -153.483,277.385 -153.482,277.386 -125.717,300.327 -125.718,300.327 -6924.282,10.113 -6924.283,10.113 v -619.993 -619.993 l 6527.505,-10.12 6527.504,-10.12 132.557,-220 132.556,-220 -18.621,-49.52 -18.622,-49.52 34.67,9.52 34.67,9.52 104.551,-152.75 104.552,-152.75 -26.842,-43.431 -26.841,-43.43 41.21,25.469 41.209,25.469 200.846,-269.289 200.845,-269.288 334.125,-337.24 334.126,-337.241 300,-239.204 300,-239.204 -10.991,-36.529 -10.991,-36.528 40.756,25.188 40.755,25.188 130.236,-96.783 130.235,-96.783 270.173,-148.972 270.173,-148.971 -22.25,-36.002 -22.251,-36.003 68.639,26.34 68.64,26.339 -32.742,-52.978 -32.743,-52.978 49.655,30.689 49.655,30.688 155.435,-70.091 155.436,-70.092 -15.09,-24.416 -15.091,-24.417 86.181,-5.787 86.18,-5.787 311.196,-116.35 311.196,-116.35 -25.152,-25.153 -25.153,-25.15301 90.211,23.59101 90.212,23.591 -28.333,-45.84301 -28.332,-45.843 56.545,21.699 56.546,21.698 275.532,-64.603 275.532,-64.604 458.48,-57.553 458.48,-57.553 h 373.096 373.097 l 388.423,42.733 388.424,42.733 360,78.477 360,78.477 380,125.32401 380,125.324 329.665,151.481 329.665,151.48 278.522,165.467 278.521,165.467 47.994,-29.662 47.994,-29.662 -26.651,43.122 -26.651,43.122 120.198,85.588 120.197,85.588 46.453,-28.71 46.454,-28.71 -25.791,41.73 -25.79,41.73 149.61,110.527 149.61,110.527 146.389,138.516 146.39,138.515 53.61,-31.005 53.611,-31.005 -31.081,34.161 -31.081,34.16 227.959,230.363 227.958,230.362 39.303,-24.29 39.303,-24.291 -30.677,49.637 -30.678,49.636 130.835,134.988 130.835,134.987 39.842,-24.624 39.843,-24.624 -29.019,46.954 -29.02,46.954 146.375,199.402 146.374,199.402 42.645,-26.356 42.645,-26.356 -28.104,45.473 -28.103,45.472 95.469,140.496 95.469,140.495 32.867,-29.788 32.867,-29.787 -28.263,49.173 -28.263,49.174 43.857,81.947 43.857,81.947 44.173,-27.301 44.174,-27.301 -27.815,45.006 -27.815,45.005 63.338,122.483 63.338,122.483 44.477,-27.488 44.477,-27.489 -30.033,48.595 -30.034,48.594 48.496,117.078 48.494,117.077 34.9,-21.569 34.9,-21.569 -26.34,68.639 -26.339,68.64 52.978,-32.742 52.978,-32.743 -30.033,48.595 -30.034,48.594 48.496,117.078 48.494,117.077 31.628,-19.547 31.627,-19.546 -22.57,86.31 -22.571,86.31 42.571,-26.31 42.57,-26.31 -22.57,86.31 -22.571,86.31 42.571,-26.31 42.57,-26.31 -22.57,86.31 -22.571,86.31 42.571,-26.31 42.57,-26.31 -22.57,86.31 -22.571,86.31 42.571,-26.31 42.57,-26.31 -22.57,86.31 -22.571,86.31 52.481,-32.436 52.482,-32.435 -28.121,45.5 -28.12,45.5 26.326,140.331 26.326,140.33 28.376,-17.538 28.376,-17.537 -18.136,123.569 -18.136,123.57 35.374,-21.862 35.374,-21.863 2.592,126.181 2.592,126.18 52.546,440 52.547,440 -22.469,600 -22.468,600 -86.035,440 -86.035,440 -121.425,379.091 -121.425,379.0907 -157.4,357.68 -157.399,357.68 -163.422,283.229 -163.422,283.229 -274.068,387.013 -274.068,387.013 -436.345,436.346 -436.345,436.344 -393.975,281.008 -393.975,281.008 -283.229,163.444 -283.229,163.444 -356.771,156.262 -356.771,156.262 -320,104.712 -320,104.714 -380,79.057 -380,79.057 -360,42.045 -360,42.046 -440,-5.119 z m 1100,5.344 h -53.333 l 26.666,-26.667 26.667,-26.666 26.667,26.666 26.666,26.667 z m 220,-40 h -20 v -20 -20 h 20 20 v 20 20 z m 200,-40 h -20 v -20 -20 h 20 20 v 20 20 z m 200,-40 h -20 v -20 -20 h 20 20 v 20 20 z m 160,-40 h -20 v -20 -20 h 20 20 v 20 20 z m 520,-160 h -20 v -20 -20 h 20 20 v 20 20 z m 120,-40 h -20 v -20 -20 h 20 20 v 20 20 z m 120,-40 h -20 v -20 -20 h 20 20 v 20 20 z m 80,-40 h -20 v -20 -20 h 20 20 v 20 20 z m 360,-160 h -20 v -20 -20 h 20 20 v 20 20 z m 400,-200 h -20 v -20 -20 h 20 20 v 20 20 z m 280,-160 h -20 v -20 -20 h 20 20 v 20 20 z m -3240,-320 h -20 v -20 -20 h 20 20 v 20 20 z m -1280,-40 h -20 v -20 -20 h 20 20 v 20 20 z m 1640,0 h -20 v -20 -20 h 20 20 v 20 20 z m 440,-80 h -20 v -20 -20 h 20 20 v 20 20 z m -2680,-40 h -20 v -20 -20 h 20 20 v 20 20 z m 2840,0 h -20 v -20 -20 h 20 20 v 20 20 z m 160,-40 h -20 v -20 -20 h 20 20 v 20 20 z m 480,-160 h -20 v -20 -20 h 20 20 v 20 20 z m 3200,-600 h -20 v -20 -20 h 20 20 v 20 20 z m -5480,-186.25 -160,24.363 80,-36.245 80,-36.245 96.667,-2.812 96.666,-2.812 -16.666,14.693 -16.667,14.694 -160,24.363 z m 542.361,26.25 h -37.64 l -24.438,-39.542 -24.438,-39.542 62.077,23.822 62.078,23.821 v 15.721 15.72 z m 400,-40 h -37.64 l -24.438,-39.542 -24.438,-39.542 62.077,23.822 62.078,23.821 v 15.721 15.72 z m -1627.082,-40 h -20 l 24.721,-40 24.721,-40 h 20 20 l -24.721,40 -24.721,40 z m 284.721,0 h -20 v -20 -20 h 20 20 v 20 20 z m 1520,-40 h -20 v -20 -20 h 20 20 v 20 20 z m 200,0 h -20 v -20 -20 h 20 20 v 20 20 z m 160,-40 h -20 v -20 -20 h 20 20 v 20 20 z m 4320,-40 h -20 v -20 -20 h 20 20 v 20 20 z m -6920,-40 h -20 v -20 -20 h 20 20 v 20 20 z m -280,-40 h -20 v -20 -20 h 20 20 v 20 20 z m 3240,0 h -20 v -20 -20 h 20 20 v 20 20 z m 200,-120 h -20 v -20 -20 h 20 20 v 20 20 z m -3800,-40 h -20 v -20 -20 h 20 20 v 20 20 z m -2040,-40 h -20 v -20 -20 h 20 20 v 20 20 z m 9800,0 h -20 v -20 -20 h 20 20 v 20 20 z m -7840,-40 h -20 v -20 -20 h 20 20 v 20 20 z m 7960,-120 h -20 v -20 -20 h 20 20 v 20 20 z m -8240,-40 h -20 v -20 -20 h 20 20 v 20 20 z m 4800,0 h -20 v -20 -20 h 20 20 v 20 20 z m 3520,-80 h -20 v -20 -20 h 20 20 v 20 20 z m -8520,-40 h -20 v -20 -20 h 20 20 v 20 20 z m -120,-80 h -20 v -20 -20 h 20 20 v 20 20 z m 8720,0 h -20 v -20 -20 h 20 20 v 20 20 z m -8877.639,-120 h -17.64 l -28.541,-46.18 -28.541,-46.181 46.181,28.541 46.18,28.541 v 17.64 17.639 z m 7317.639,0 h -20 v -20 -20 h 20 20 v 20 20 z m -7440,-40 h -20 v -20 -20 h 20 20 v 20 20 z m -80,-120 h -20 v -20 -20 h 20 20 v 20 20 z m 7640,0 h -20 v -20 -20 h 20 20 v 20 20 z m 1600,0 h -20 v -20 -20 h 20 20 v 20 20 z m -9355.102,-40 h -15.102 l -54.898,-70 -54.898,-70 70,54.898 70,54.898 v 15.102 15.102 z m 6275.102,0 h -20 v -20 -20 h 20 20 v 20 20 z m 1600,-120 h -20 v -20 -20 h 20 20 v 20 20 z m 1640,-120 h -20 v -20 -20 h 20 20 v 20 20 z m -9712.516,-40 h -12.517 l -117.483,-130 -117.484,-130 130,117.484 130,117.483 v 12.517 12.516 z m 6832.516,-80 h -20 v -20 -20 h 20 20 v 20 20 z m 1400,0 h -20 v -20 -20 h 20 20 v 20 20 z m -1320,-160 h -20 v -20 -20 h 20 20 v 20 20 z m -7197.639,-80 h -17.64 l -28.541,-46.18 -28.541,-46.181 46.181,28.541 46.18,28.541 v 17.64 17.639 z m 10157.639,0 h -20 v -20 -20 h 20 20 v 20 20 z m -2800,-40 h -20 v -20 -20 h 20 20 v 20 20 z m -7477.639,-120 h -17.64 l -28.541,-46.18 -28.541,-46.181 46.181,28.541 46.18,28.541 v 17.64 17.639 z m 7557.639,0 h -20 v -20 -20 h 20 20 v 20 20 z m 0,-80 h -20 v -20 -20 h 20 20 v 20 20 z m 1360,0 h -20 v -20 -20 h 20 20 v 20 20 z m -1280,-40 h -20 v -20 -20 h 20 20 v 20 20 z m -7760,-40 h -20 v -20 -20 h 20 20 v 20 20 z m -80,-40 h -20 v -20 -20 h 20 20 v 20 20 z m 7840,0 h -20 v -20 -20 h 20 20 v 20 20 z m 80,-40 h -20 v -20 -20 h 20 20 v 20 20 z m -7960,-120 h -20 v -20 -20 h 20 20 v 20 20 z m 9280,0 h -20 v -20 -20 h 20 20 v 20 20 z m -9320,-80 h -20 v -20 -20 h 20 20 v 20 20 z m 8120,0 h -20 v -20 -20 h 20 20 v 20 20 z m -8200,-40 h -20 v -20 -20 h 20 20 v 20 20 z m 8240,-40 h -20 v -20 -19.9997 h 20 20 v 19.9997 20 z m 40,-79.9997 h -20 v -20 -20 h 20 20 v 20 20 z m 2640,0 h -20 v -20 -20 h 20 20 v 20 20 z m -10960,-40 h -20 v -20 -20 h 20 20 v 20 20 z m 8360,-40 h -20 v -20 -20 h 20 20 v 20 20 z m 2640,-40 h -20 v -20 -20 h 20 20 v 20 20 z m -2600,-40 h -20 v -20 -20 h 20 20 v 20 20 z m -8520,-40 h -20 v -20 -20 h 20 20 v 20 20 z m 4040,-120 h -20 v -20 -20 h 20 20 v 20 20 z m 360,-40 h -20 v -20 -20 h 20 20 v 20 20 z m 4160,0 h -20 v -20 -20 h 20 20 v 20 20 z m -8640,-40 h -20 v -20 -20 h 20 20 v 20 20 z m 3796.667,-3.156 -76.667,-3.156 52.5,-21.009 52.5,-21.009 24.167,24.167 24.166,24.167 -76.666,-3.156 z m 583.333,3.156 h -53.333 l 26.666,-26.667 26.667,-26.666 26.667,26.666 26.666,26.667 z m 2020,0 h -20 v -20 -20 h 20 20 v 20 20 z m 3480,0 h -20 v -20 -20 h 20 20 v 20 20 z m -6404.721,-40 h -20 l 24.721,-40 24.721,-40 h 20 20 l -24.721,40 -24.721,40 z m 164.721,0 h -20 v -20 -20 h 20 20 v 20 20 z m 920,0 h -20 v -20 -20 h 20 20 v 20 20 z m 202.361,0 h -17.64 l -28.541,-46.18 -28.541,-46.181 46.181,28.541 46.18,28.541 v 17.64 17.639 z m 2127.526,-527.58 -12.339,547.58 0.04,-1120 0.04,-1120 12.303,572.42 12.302,572.42 z m -5280.076,99.754 -12.939,407.826 0.04,-840 0.04,-840 12.88,432.174 12.88,432.174 -12.94,407.826 z m 7070.189,387.826 h -20 v -20 -20 h 20 20 v 20 20 z m -3840,-40 h -20 v -20 -20 h 20 20 v 20 20 z m 162.361,-40 h -17.64 l -28.541,-46.18 -28.541,-46.181 46.181,28.541 46.18,28.541 v 17.64 17.639 z m -5082.361,-40 h -20 v -20 -20 h 20 20 v 20 20 z m 3235.279,0 h -20 l 24.721,-40 24.721,-40 h 20 20 l -24.721,40 -24.721,40 z m 5564.721,0 h -20 v -20 -20 h 20 20 v 20 20 z m -3680,-40 h -20 v -20 -20 h 20 20 v 20 20 z m -1003.333,-83.158 -76.667,-3.156 52.5,-21.009 52.5,-21.009 24.167,24.167 24.166,24.167 -76.666,-3.156 z m 183.333,3.158 h -53.333 l 26.666,-26.667 26.667,-26.666 26.667,26.666 26.666,26.667 z m 932.516,0 h -12.516 v -12.516 -12.517 l 130,-117.483 130,-117.484 -117.484,130 -117.483,130 z m 3607.484,0 h -20 v -20 -20 h 20 20 v 20 20 z m -18844.721,-40 h -20 l 24.721,-40 24.721,-40 h 20 20 l -24.721,40 -24.721,40 z m 367.082,0 h -17.64 l -28.54,-46.18 -28.542,-46.181 46.181,28.541 46.18,28.541 v 17.64 17.639 z m 1137.639,0 h -53.333 l 26.666,-26.667 26.667,-26.666 26.667,26.666 26.666,26.667 z m 3862.361,0 h -17.64 l -28.541,-46.18 -28.541,-46.181 46.181,28.541 46.18,28.541 v 17.64 17.639 z m 2160,0 h -17.64 l -28.541,-46.18 -28.541,-46.181 46.181,28.541 46.18,28.541 v 17.64 17.639 z m 6352.918,0 h -20 l 24.721,-40 24.721,-40 h 20 20 l -24.721,40 -24.721,40 z m 644.721,0 h -20 v -20 -20 h 20 20 v 20 20 z m -14000,-40 h -20 v -20 -20 h 20 20 v 20 20 z m 1160,0 h -20 v -20 -20 h 20 20 v 20 20 z m 3360,0 h -20 v -20 -20 h 20 20 v 20 20 z m 480,0 h -20 v -20 -20 h 20 20 v 20 20 z m 1660,0 h -53.333 l 26.666,-26.667 26.667,-26.666 26.667,26.666 26.666,26.667 z m 5820,0 h -15.279 l -20.601,-33.333 -20.601,-33.334 h 56.481 56.481 l -20.601,33.334 -20.601,33.333 z m 760,0 h -20 v -20 -20 h 20 20 v 20 20 z m -15230.085,-610 -12.225,590 v -1180 -1180 l 12.225,590 12.224,590 z m 4999.956,120 -12.668,470 v -940 -940 l 12.668,470 12.668,470 z m 279.568,261.46 -14.641,208.54 0.16,-440 0.16,-440 14.477,231.46 14.476,231.461 -14.64,208.539 z m 1070.561,188.54 h -20 v -20 -20 h 20 20 v 20 20 z m 2880,0 h -20 v -20 -20 h 20 20 v 20 20 z m 5875.279,0 h -20 l 24.721,-40 24.721,-40 h 20 20 l -24.721,40 -24.721,40 z m 1124.721,0 h -20 v -20 -20 h 20 20 v 20 20 z m 4120,0 h -20 v -20 -20 h 20 20 v 20 20 z m -19200,-40 h -20 v -20 -20 h 20 20 v 20 20 z m 6000,0 h -20 v -20 -20 h 20 20 v 20 20 z m 4240,0 h -20 v -20 -20 h 20 20 v 20 20 z m 4920,0 h -20 v -20 -20 h 20 20 v 20 20 z m -8000,-40 h -20 v -20 -20 h 20 20 v 20 20 z m 6680,0 h -20 v -20 -20 h 20 20 v 20 20 z m -13880,-40 h -20 v -20 -20 h 20 20 v 20 20 z m 15306.055,0 h -20 l 93.945,-100 93.945,-100 h 20 20 l -93.945,100 -93.945,100 z m 3973.945,0 h -20 v -20 -20 h 20 20 v 20 20 z m -18557.639,-40 h -17.64 l -28.54,-46.18 -28.542,-46.181 46.181,28.541 46.18,28.541 v 17.64 17.639 z m 1114.306,-3.156 -76.667,-3.156 52.5,-21.009 52.5,-21.009 24.167,24.167 24.166,24.167 -76.666,-3.156 z m 445.694,3.156 h -17.64 l -28.54,-46.18 -28.542,-46.181 46.181,28.541 46.18,28.541 v 17.64 17.639 z m 2637.639,0 h -20 v -20 -20 h 20 20 v 20 20 z m 1200,0 h -20 v -20 -20 h 20 20 v 20 20 z m 1435.279,0 h -20 l 24.721,-40 24.721,-40 h 20 20 l -24.721,40 -24.721,40 z m 327.082,0 h -17.64 l -28.541,-46.18 -28.541,-46.181 46.181,28.541 46.18,28.541 v 17.64 17.639 z m 5317.639,0 h -20 v -20 -20 h 20 20 v 20 20 z m 646.2,0 h -13.801 l -76.199,-90 -76.2,-90 90,76.2 90,76.199 v 13.801 13.8 z m 2076.161,0 h -17.64 l -28.541,-46.18 -28.541,-46.181 46.181,28.541 46.18,28.541 v 17.64 17.639 z m 5917.639,0 h -20 v -20 -20 h 20 20 v 20 20 z m -16160,-40 h -20 v -20 -20 h 20 20 v 20 20 z m 2320,0 h -20 v -20 -20 h 20 20 v 20 20 z m 2240,0 h -20 v -20 -20 h 20 20 v 20 20 z m -10400,-80 h -20 v -20 -20 h 20 20 v 20 20 z m 324.898,0 h -15.102 l -54.898,-70 -54.898,-70 70,54.898 70,54.898 v 15.102 15.102 z m 1155.102,0 h -20 v -20 -20 h 20 20 v 20 20 z m 3520,0 h -20 v -20 -20 h 20 20 v 20 20 z m 1440,0 h -20 v -20 -20 h 20 20 v 20 20 z m 6840,0 h -20 v -20 -20 h 20 20 v 20 20 z m -13360,-40 h -20 v -20 -20 h 20 20 v 20 20 z m 7180,0 h -53.333 l 26.666,-26.667 26.667,-26.666 26.667,26.666 26.666,26.667 z m 9020,0 h -20 v -20 -20 h 20 20 v 20 20 z m 3366.667,-13.333 -26.667,26.666 v -53.333 -53.333 l 26.667,26.666 26.666,26.667 z m -18286.667,-26.667 h -20 v -20 -20 h 20 20 v 20 20 z m 1360,0 h -20 v -20 -20 h 20 20 v 20 20 z m 2440,0 h -20 v -20 -20 h 20 20 v 20 20 z m 5355.279,0 h -20 l 24.721,-40 24.721,-40 h 20 20 l -24.721,40 -24.721,40 z m 2884.721,0 h -20 v -20 -20 h 20 20 v 20 20 z m 520,0 h -20 v -20 -20 h 20 20 v 20 20 z m 2442.361,0 h -17.64 l -28.541,-46.18 -28.541,-46.181 46.181,28.541 46.18,28.541 v 17.64 17.639 z m -16322.361,-40 h -20 v -20 -20 h 20 20 v 20 20 z m 2400,0 h -20 v -20 -20 h 20 20 v 20 20 z m 4800,0 h -20 v -20 -20 h 20 20 v 20 20 z m 280,0 h -20 v -20 -20 h 20 20 v 20 20 z m -6160,-40 h -20 v -20 -20 h 20 20 v 20 20 z m 3720,0 h -20 v -20 -20 h 20 20 v 20 20 z m 1602.361,0 h -17.64 l -28.541,-46.18 -28.541,-46.181 46.181,28.541 46.18,28.541 v 17.64 17.639 z m 6677.639,0 h -20 v -20 -20 h 20 20 v 20 20 z m 7480,0 h -20 v -20 -20 h 20 20 v 20 20 z m -20520,-40 h -20 v -20 -20 h 20 20 v 20 20 z m 1360,0 h -20 v -20 -20 h 20 20 v 20 20 z m 1080,0 h -20 v -20 -20 h 20 20 v 20 20 z m 3640,0 h -20 v -20 -20 h 20 20 v 20 20 z m 760,0 h -20 v -20 -20 h 20 20 v 20 20 z m -7160,-40 h -20 v -20 -20 h 20 20 v 20 20 z m 5355.279,0 h -20 l 24.721,-40 24.721,-40 h 20 20 l -24.721,40 -24.721,40 z m 8044.721,0 h -20 v -20 -20 h 20 20 v 20 20 z m -13040,-40 h -20 v -20 -20 h 20 20 v 20 20 z m 2360,0 h -20 v -20 -20 h 20 20 v 20 20 z m 13722.361,0 h -17.64 l -28.541,-46.18 -28.541,-46.181 46.181,28.541 46.18,28.541 v 17.64 17.639 z m 3237.639,0 h -20 v -20 -20 h 20 20 v 20 20 z m 2520,0 h -20 v -20 -20 h 20 20 v 20 20 z m -20480,-40 h -20 v -20 -20 h 20 20 v 20 20 z m 3315.279,0 h -20 l 24.721,-40 24.721,-40 h 20 20 l -24.721,40 -24.721,40 z m 1404.721,0 h -20 v -20 -20 h 20 20 v 20 20 z m 240,0 h -20 v -20 -20 h 20 20 v 20 20 z m -5200,-40 h -20 v -20 -20 h 20 20 v 20 20 z m 1040,0 h -20 v -20 -20 h 20 20 v 20 20 z m 4600,0 h -20 v -20 -20 h 20 20 v 20 20 z m 3355.72,0 h -15.72 v -37.639 -37.64 l 39.542,-24.438 39.542,-24.438 -23.822,62.077 -23.821,62.078 z m 2884.28,0 h -20 v -20 -20 h 20 20 v 20 20 z m -13393.333,-53.333 -26.667,26.666 v -53.333 -53.333 l 26.667,26.666 26.666,26.667 z m 353.333,13.333 h -20 v -20 -20 h 20 20 v 20 20 z m 13440,0 h -20 v -20 -20 h 20 20 v 20 20 z m 2722.361,0 h -17.64 l -28.541,-46.18 -28.541,-46.181 46.181,28.541 46.18,28.541 v 17.64 17.639 z m -14682.361,-40 h -20 v -20 -20 h 20 20 v 20 20 z m 766.667,-53.333 -26.667,26.666 v -53.333 -53.333 l 26.667,26.666 26.666,26.667 z m 2797.5,2.5 -24.167,24.166 3.16,-76.666 3.156,-76.667 21.009,52.5 21.009,52.5 z m 2082.5,-2.5 -26.667,26.666 v -53.333 -53.333 l 26.667,26.666 26.666,26.667 z m 8593.333,13.333 h -20 v -20 -20 h 20 20 v 20 20 z m -15800,-40 h -20 v -20 -20 h 20 20 v 20 20 z m 4520,-12.395 -240,-0.408 130.716,-16.186 130.717,-16.187 109.283,16.595 109.284,16.595 -240,-0.408 z m 8560,12.395 h -20 v -20 -20 h 20 20 v 20 20 z m 7566.667,-13.333 -26.667,26.666 v -53.333 -53.333 l 26.667,26.666 26.666,26.667 z m -7166.667,-26.667 h -20 v -20 -20 h 20 20 v 20 20 z m 2802.361,0 h -17.64 l -28.541,-46.18 -28.541,-46.181 46.181,28.541 46.18,28.541 v 17.64 17.639 z m -13722.361,-40 h -20 v -20 -20 h 20 20 v 20 20 z m 13200,0 h -20 v -20 -20 h 20 20 v 20 20 z m 3761.105,0 h -16.384 l -26.366,-42.661 -26.366,-42.661 19.064,-19.064 19.064,-19.064 23.686,61.725 23.686,61.725 z m -3681.105,-40 h -20 v -20 -20 h 20 20 v 20 20 z m -15833.333,-53.333 -26.667,26.666 v -53.333 -53.333 l 26.667,26.666 26.666,26.667 z m 2360,0 -26.667,26.666 v -53.333 -53.333 l 26.667,26.666 26.666,26.667 z m 4833.333,13.333 h -20 v -20 -20 h 20 20 v 20 20 z m 3009.076,-128.943 -15.628,148.943 0.28,-320 0.28,-320 15.364,171.057 15.363,171.058 -15.627,148.942 z m -10436.801,70.001 -22.392,22.392 -27.311,-71.725 -27.311,-71.725 49.703,49.333 49.703,49.334 z m 5347.725,18.942 h -20 v -20 -20 h 20 20 v 20 20 z m 7926.667,-13.333 -26.667,26.666 v -53.333 -53.333 l 26.667,26.666 26.666,26.667 z m -8766.667,-26.667 h -20 v -20 -20 h 20 20 v 20 20 z m 2646.667,-13.333 -26.667,26.666 v -53.333 -53.333 l 26.667,26.666 26.666,26.667 z m 233.333,13.333 h -20 v -20 -20 h 20 20 v 20 20 z m 6284.167,-10.833 -24.167,24.166 3.16,-76.666 3.156,-76.667 21.009,52.5 21.009,52.5 z m -11877.5,-42.5 -26.667,26.666 v -53.333 -53.333 l 26.667,26.666 26.666,26.667 z m 11393.333,13.333 h -20 v -20 -20 h 20 20 v 20 20 z m 3366.667,-13.333 -26.667,26.666 v -53.333 -53.333 l 26.667,26.666 26.666,26.667 z m -15131.388,-26.667 h -20 l 24.721,-40 24.721,-40 h 20 20 l -24.721,40 -24.721,40 z m 3054.123,-170 -14.982,190 v -380 -380 l 14.982,190 14.981,190 z m 830.598,170 h -20 v -20 -20 h 20 20 v 20 20 z m -2480,-40 h -20 v -20 -20 h 20 20 v 20 20 z m 2240,0 h -20 v -20 -20 h 20 20 v 20 20 z m 1320,0 h -20 v -20 -20 h 20 20 v 20 20 z m -6120,-40 h -20 v -20 -20 h 20 20 v 20 20 z m 6395.279,0 h -20 l 24.721,-40 24.721,-40 h 20 20 l -24.721,40 -24.721,40 z m 764.721,0 h -20 v -20 -20 h 20 20 v 20 20 z m 6286.667,-13.333 -26.667,26.666 v -53.333 -53.333 l 26.667,26.666 26.666,26.667 z m 2317.5,2.5 -24.167,24.166 3.156,-76.666 3.156,-76.667 21.009,52.5 21.009,52.5 -24.167,24.167 z m 84.414,-78.451 -16.595,109.284 0.408,-240 0.408,-240 16.187,130.716 16.186,130.717 z m 397.91,59.284 -20.175,50 v -100 -100 l 20.175,50 20.176,50 z m -16486.491,-10 h -20 v -20 -20 h 20 20 v 20 20 z m 320,0 h -20 v -20 -20 h 20 20 v 20 20 z m 2286.667,-13.333 -26.667,26.666 v -53.333 -53.333 l 26.667,26.666 26.666,26.667 z m 4553.333,13.333 h -20 v -20 -20 h 20 20 v 20 20 z m -5440,-40 h -20 v -20 -20 h 20 20 v 20 20 z m 11480,0 h -20 v -20 -20 h 20 20 v 20 20 z m -12840,-40 h -20 v -20 -20 h 20 20 v 20 20 z m 4720,0 h -20 v -20 -20 h 20 20 v 20 20 z m 1280,0 h -20 v -20 -20 h 20 20 v 20 20 z m -6320,-40 h -20 v -20 -20 h 20 20 v 20 20 z m 1640,-40 h -20 v -20 -20 h 20 20 v 20 20 z m 3440,0 h -20 v -20 -20 h 20 20 v 20 20 z m 1200,0 h -20 v -20 -20 h 20 20 v 20 20 z m 320,0 h -20 v -20 -20 h 20 20 v 20 20 z m -6560,-40 h -20 v -20 -20 h 20 20 v 20 20 z m 1242.361,0 h -17.64 l -28.54,-46.18 -28.542,-46.181 46.181,28.541 46.18,28.541 v 17.64 17.639 z m 5877.639,0 h -20 v -20 -20 h 20 20 v 20 20 z m -2040,-40 h -20 v -20 -20 h 20 20 v 20 20 z m 1040,0 h -20 v -20 -20 h 20 20 v 20 20 z m 400,0 h -20 v -20 -20 h 20 20 v 20 20 z m 680,0 h -20 v -20 -20 h 20 20 v 20 20 z m 1160,0 h -20 v -20 -20 h 20 20 v 20 20 z m 7564.167,-10.833 -24.167,24.166 3.156,-76.666 3.156,-76.667 21.009,52.5 21.009,52.5 -24.167,24.167 z m -15924.167,-29.167 h -20 v -20 -20 h 20 20 v 20 20 z m 2766.667,-13.333 -26.667,26.666 v -53.333 -53.333 l 26.667,26.666 26.666,26.667 z m 3673.333,13.333 h -20 v -20 -20 h 20 20 v 20 20 z m 9966.238,-29.239 -19.922,49.239 1.484,-120 1.484,-120 18.439,70.761 18.44,70.761 -19.922,49.239 z m -14966.238,-10.761 h -20 v -20 -20 h 20 20 v 20 20 z m 1400,0 h -20 v -20 -20 h 20 20 v 20 20 z m 2240,0 h -20 v -20 -20 h 20 20 v 20 20 z m 440,0 h -20 v -20 -20 h 20 20 v 20 20 z m 8086.667,-13.333 -26.667,26.666 v -53.333 -53.333 l 26.667,26.666 26.666,26.667 z m 6020.071,-17.405 -42.262,42.262 24.772,-94.73 24.773,-94.731 17.489,52.469 17.49,52.468 z m -18946.738,-9.262 h -20 v -20 -20 h 20 20 v 20 20 z m 4960,0 h -20 v -20 -20 h 20 20 v 20 20 z m 2200,0 h -20 v -20 -20 h 20 20 v 20 20 z m -6920,-40 h -20 v -20 -20 h 20 20 v 20 20 z m 1652.275,-18.942 -22.392,22.392 -27.311,-71.725 -27.311,-71.725 49.703,49.333 49.703,49.334 z m 3347.725,18.942 h -20 v -20 -20 h 20 20 v 20 20 z m 6796.667,-8.55 -443.334,8.55 -26.666,-26.667 -26.667,-26.666 v -751.142 -751.142 l -190,-16.275 -190,-16.276 200,4.084 200,4.084 10.859,768.698 10.859,768.698 449.141,12.752 449.141,12.752 z m -11401.388,-31.45 h -20 l 24.721,-40 24.721,-40 h 20 20 l -24.721,40 -24.721,40 z m 12251.388,-13.333 -26.667,26.666 v -53.333 -53.333 l 26.667,26.666 26.666,26.667 z m 7200,0 -26.667,26.666 v -53.333 -53.333 l 26.667,26.666 26.666,26.667 z m -20566.667,-26.667 h -20 v -20 -20 h 20 20 v 20 20 z m 80,0 h -20 v -20 -20 h 20 20 v 20 20 z m 12886.667,-13.333 -26.667,26.666 v -53.333 -53.333 l 26.667,26.666 26.666,26.667 z m -5726.667,-26.667 h -20 v -20 -20 h 20 20 v 20 20 z m 9000,0 h -20 v -20 -20 h 20 20 v 20 20 z m -10960,-40 h -20 v -20 -20 h 20 20 v 20 20 z m 2160,0 h -20 v -20 -20 h 20 20 v 20 20 z m 2760,0 h -20 v -20 -20 h 20 20 v 20 20 z m 8120,0 h -20 v -20 -20 h 20 20 v 20 20 z m -18080,-40 h -20 v -20 -20 h 20 20 v 20 20 z m 222.361,0 h -37.64 l -24.438,-39.542 -24.438,-39.542 62.078,23.822 62.077,23.821 v 15.721 15.72 z m 252.918,0 h -20 l 24.721,-40 24.721,-40 h 20 20 l -24.721,40 -24.721,40 z m 4747.082,0 h -37.64 l -24.438,-39.542 -24.438,-39.542 62.077,23.822 62.078,23.821 v 15.721 15.72 z m 252.918,0 h -20 l 24.721,-40 24.721,-40 h 20 20 l -24.721,40 -24.721,40 z m 1937.082,-0.612 -12.361,-0.613 -60,-38.775 -60,-38.775 47.639,-0.612 47.64,-0.612 24.721,40 24.721,40 -12.36,-0.612 z m 267.639,0.612 h -20 v -20 -20 h 20 20 v 20 20 z m 5000,-40 h -20 v -20 -20 h 20 20 v 20 20 z m 522.361,0 h -17.64 l -28.541,-46.18 -28.541,-46.181 46.181,28.541 46.18,28.541 v 17.64 17.639 z m 2237.639,0 h -20 v -20 -20 h 20 20 v 20 20 z m 86.667,-13.333 -26.667,26.666 v -53.333 -53.333 l 26.667,26.666 26.666,26.667 z m 400,-40 -26.667,26.666 v -53.333 -53.333 l 26.667,26.666 26.666,26.667 z m -3166.667,-26.667 h -20 v -20 -20 h 20 20 v 20 20 z m 8880,0 h -20 v -20 -20 h 20 20 v 20 20 z m -2480,-40 h -20 v -20 -20 h 20 20 v 20 20 z m -5917.639,-40 h -17.64 l -28.541,-46.18 -28.541,-46.181 46.181,28.541 46.18,28.541 v 17.64 17.639 z m -522.361,-40 h -20 v -20 -20 h 20 20 v 20 20 z m 7560,0 h -20 v -20 -20 h 20 20 v 20 20 z m -10280,-40 h -20 v -20 -20 h 20 20 v 20 20 z m 2800,0 h -20 v -20 -20 h 20 20 v 20 20 z m 3080,0 h -20 v -20 -20 h 20 20 v 20 20 z m -2600,-40 h -20 v -20 -20 h 20 20 v 20 20 z m 4080,-16.527 -720,0.08 347.977,-13.303 347.977,-13.302 372.023,13.226 372.023,13.226 -720,0.08 z m 1715.279,16.527 h -20 l 24.721,-40 24.721,-40 h 20 20 l -24.721,40 -24.721,40 z m -6315.279,-40 h -20 v -20 -20 h 20 20 v 20 20 z m 3840,0 h -20 v -20 -20 h 20 20 v 20 20 z m -3760,-40 h -20 v -20 -20 h 20 20 v 20 20 z m 482.361,0 h -17.64 l -28.541,-46.18 -28.541,-46.181 46.181,28.541 46.18,28.541 v 17.64 17.639 z m 2512.918,0 h -20 l 24.721,-40 24.721,-40 h 20 20 l -24.721,40 -24.721,40 z m -18515.279,-40 h -20 v -20 -20 h 20 20 v 20 20 z m 12720,0 h -20 v -20 -20 h 20 20 v 20 20 z m 5360,0 h -20 v -20 -20 h 20 20 v 20 20 z m -2040,-40 h -20 v -20 -20 h 20 20 v 20 20 z m 6880,0 h -20 v -20 -20 h 20 20 v 20 20 z m 1366.667,-13.333 -26.667,26.666 v -53.333 -53.333 l 26.667,26.666 26.666,26.667 z m -8766.667,-66.667 h -20 v -20 -20 h 20 20 v 20 20 z m 6240,0 h -20 v -20 -20 h 20 20 v 20 20 z m -9000,-40 h -20 v -20 -20 h 20 20 v 20 20 z m 3360,0 h -20 v -20 -20 h 20 20 v 20 20 z m -560,-40 h -20 v -20 -20 h 20 20 v 20 20 z m 2400,0 h -20 v -20 -20 h 20 20 v 20 20 z m -1852.399,-40 h -20 l 72.399,-80 72.399,-80 h 20 20 l -72.399,80 -72.399,80 z m 6779.066,-13.333 -26.667,26.666 v -53.333 -53.333 l 26.667,26.666 26.666,26.667 z m -22274.306,-34.893 -947.64,8.226 -18.62,-30 -18.622,-30 626.261,10.322 626.26,10.322 340,11.453 340,11.452 z m 15067.639,8.226 h -20 v -20 -20 h 20 20 v 20 20 z m 8560,0 h -20 v -20 -20 h 20 20 v 20 20 z m -22640,-40 h -20 v -20 -20 h 20 20 v 20 20 z m 11200,0 h -20 v -20 -20 h 20 20 v 20 20 z m 5600,0 h -20 v -20 -20 h 20 20 v 20 20 z m -80,-40 h -20 v -20 -20 h 20 20 v 20 20 z m -2560,-40 h -15.279 l -20.601,-33.333 -20.601,-33.334 h 56.481 56.481 l -20.601,33.334 -20.601,33.333 z m 7080,0 h -20 v -20 -20 h 20 20 v 20 20 z m -9997.639,-40 h -17.64 l -28.541,-46.18 -28.541,-46.181 46.181,28.541 46.18,28.541 v 17.64 17.639 z m 3517.639,0 h -20 v -20 -20 h 20 20 v 20 20 z m 1962.361,0 h -17.64 l -28.541,-46.18 -28.541,-46.181 46.181,28.541 46.18,28.541 v 17.64 17.639 z m -1800,-40 h -17.64 l -28.541,-46.18 -28.541,-46.181 46.181,28.541 46.18,28.541 v 17.64 17.639 z m 1117.639,0 h -20 v -20 -20 h 20 20 v 20 20 z m -997.639,-40 h -17.64 l -28.541,-46.18 -28.541,-46.181 46.181,28.541 46.18,28.541 v 17.64 17.639 z m -3762.361,-40 h -20 v -20 -20 h 20 20 v 20 20 z m 3902.361,0 h -37.64 l -24.438,-39.542 -24.438,-39.542 62.077,23.822 62.078,23.821 v 15.721 15.72 z m 457.639,0 h -20 v -20 -20 h 20 20 v 20 20 z m 240,0 h -20 v -20 -20 h 20 20 v 20 20 z m 5320,0 h -20 v -20 -20 h 20 20 v 20 20 z m -6844.721,-40 h -20 l 24.721,-40 24.721,-40 h 20 20 l -24.721,40 -24.721,40 z m 1404.721,0 h -20 v -20 -20 h 20 20 v 20 20 z m -4437.639,-40 h -17.64 l -28.541,-46.18 -28.541,-46.181 46.181,28.541 46.18,28.541 v 17.64 17.639 z m 4097.639,-6.316 h -100 l 50,-20.175 50,-20.176 50,20.176 50,20.175 z m 1104.898,6.316 h -15.102 l -54.898,-70 -54.898,-70 70,54.898 70,54.898 v 15.102 15.102 z m 4635.102,-40 h -20 v -20 -20 h 20 20 v 20 20 z m -4800,-40 h -20 v -20 -20 h 20 20 v 20 20 z m -5000,-40 h -20 v -20 -20 h 20 20 v 20 20 z m 4920,0 h -20 v -20 -20 h 20 20 v 20 20 z m 3600,-40 h -20 v -20 -20 h 20 20 v 20 20 z m 1240,0 h -20 v -20 -20 h 20 20 v 20 20 z m -9720,-40 h -20 v -20 -20 h 20 20 v 20 20 z m 4840,0 h -20 v -20 -20 h 20 20 v 20 20 z m 6280,0 h -20 v -20 -20 h 20 20 v 20 20 z m -7680,-40 h -20 v -20 -20 h 20 20 v 20 20 z m 1200,0 h -20 v -20 -20 h 20 20 v 20 20 z m -1040,-40 h -20 v -20 -20 h 20 20 v 20 20 z m 920,0 h -20 v -20 -20 h 20 20 v 20 20 z m -740,-40 h -53.333 l 26.666,-26.667 26.667,-26.666 26.667,26.666 26.666,26.667 z m 537.639,0 h -57.639 v -15.335 -15.335 l 80.055,-20.934 80.055,-20.935 -22.416,36.269 -22.415,36.27 z m -637.639,-40 h -20 v -20 -20 h 20 20 v 20 20 z m 5960,-40 h -20 v -20 -20 h 20 20 v 20 20 z m -1240,-40 h -20 v -20 -20 h 20 20 v 20 20 z m -9560,-40 h -20 v -20 -20 h 20 20 v 20 20 z m 9520,-40 h -20 v -20 -20 h 20 20 v 20 20 z m -8240,-40 h -20 v -20 -20 h 20 20 v 20 20 z m 80,-40 h -20 v -20 -20 h 20 20 v 20 20 z m 8120,0 h -20 v -20 -20 h 20 20 v 20 20 z m -8080,-80 h -20 v -20 -20 h 20 20 v 20 20 z m 9280,0 h -20 v -20 -20 h 20 20 v 20 20 z m -1320,-40 h -20 v -20 -20 h 20 20 v 20 20 z m -7920,-120 h -20 v -20 -20 h 20 20 v 20 20 z m 7840,0 h -20 v -20 -20 h 20 20 v 20 20 z m -7760,-40 h -20 v -20 -20 h 20 20 v 20 20 z m 7760,-40 h -20 v -20 -20 h 20 20 v 20 20 z m -80,-40 h -20 v -20 -20 h 20 20 v 20 20 z m -7560,-80 h -20 v -20 -20 h 20 20 v 20 20 z m 7560,0 h -20 v -20 -20 h 20 20 v 20 20 z m -8920,-40 h -20 v -20 -20 h 20 20 v 20 20 z m 8840,0 h -20 v -20 -20 h 20 20 v 20 20 z m -8800,-80 h -20 v -20 -20 h 20 20 v 20 20 z m 8800,0 h -20 v -20 -20 h 20 20 v 20 20 z m -7360,-40 h -20 v -20 -20 h 20 20 v 20 20 z m 0,-80 h -20 v -20 -20 h 20 20 v 20 20 z m 7200,0 h -20 v -20 -20 h 20 20 v 20 20 z m -7084.721,-80 h -20 l 24.721,-40 24.721,-40 h 20 20 l -24.721,40 -24.721,40 z m -1395.279,-80 h -20 v -20 -20 h 20 20 v 20 20 z m 9800,0 h -20 v -20 -20 h 20 20 v 20 20 z m -1515.102,-80 h -15.102 l -54.898,-70 -54.898,-70 70,54.898 70,54.898 v 15.102 15.102 z m -8204.898,-40 h -20 v -20 -20 h 20 20 v 20 20 z m 7920,-280 h -20 v -20 -20 h 20 20 v 20 20 z m -200,-120 h -20 v -20 -20 h 20 20 v 20 20 z m -7400,-40 h -20 v -20 -20 h 20 20 v 20 20 z m 1720,-80 h -20 v -20 -20 h 20 20 v 20 20 z m 5400,-80 h -20 v -20 -20 h 20 20 v 20 20 z m -5160,-40 h -20 v -20 -20 h 20 20 v 20 20 z m 5040,-40 h -20 v -20 -20 h 20 20 v 20 20 z m -4840,-80 h -20 v -20 -20 h 20 20 v 20 20 z m 4720,0 h -20 v -20 -20 h 20 20 v 20 20 z m -6484.721,-120 h -20 l 24.721,-40 24.721,-40 h 20 20 l -24.721,40 -24.721,40 z m 2044.721,-40 h -20 v -20 -20 h 20 20 v 20 20 z m 6082.361,-40 h -17.64 l -28.541,-46.18 -28.541,-46.181 46.181,28.541 46.18,28.541 v 17.64 17.639 z m -8002.361,-40 h -20 v -20 -20 h 20 20 v 20 20 z m 2200,-40 h -20 v -20 -20 h 20 20 v 20 20 z m 80,-40 h -20 v -20 -20 h 20 20 v 20 20 z m 80,-80 h -20 v -20 -20 h 20 20 v 20 20 z m 3120,0 h -20 v -20 -20 h 20 20 v 20 20 z m -3000,-40 h -20 v -20 -20 h 20 20 v 20 20 z m 160,0 h -20 v -20 -20 h 20 20 v 20 20 z m -2360,-40 h -20 v -20 -20 h 20 20 v 20 20 z m 7400,0 h -20 v -20 -20 h 20 20 v 20 20 z m -4757.639,-40 h -17.64 l -28.541,-46.18 -28.541,-46.181 46.181,28.541 46.18,28.541 v 17.64 17.639 z m 200,-40 h -17.64 l -28.541,-46.18 -28.541,-46.181 46.181,28.541 46.18,28.541 v 17.64 17.639 z m 1757.639,0 h -20 v -20 -20 h 20 20 v 20 20 z m -1517.639,-40 h -17.64 l -28.541,-46.18 -28.541,-46.181 46.181,28.541 46.18,28.541 v 17.64 17.639 z m 1297.639,0 h -53.333 l 26.666,-26.667 26.667,-26.666 26.667,26.666 26.666,26.667 z m -800,-48.72 -100,0.746 -100,-32.026 -100,-32.026 80,0.746 80,0.746 120,30.534 120,30.535 -100,0.746 z m 375.279,8.72 h -20 l 24.721,-40 24.721,-40 h 20 20 l -24.721,40 -24.721,40 z m 3204.721,-40 h -20 v -20 -20 h 20 20 v 20 20 z m -5720,-680 h -20 v -20 -20 h 20 20 v 20 20 z m 4320,-80 h -20 v -20 -20 h 20 20 v 20 20 z m -4000,-40 h -20 v -20 -20 h 20 20 v 20 20 z m 360,-120 h -20 v -20 -20 h 20 20 v 20 20 z m 160,-40 h -20 v -20 -20 h 20 20 v 20 20 z m 160,-40 h -20 v -20 -20 h 20 20 v 20 20 z m 460,-80 h -53.333 l 26.666,-26.667 26.667,-26.666 26.667,26.666 26.666,26.667 z m 1620,0 h -20 v -20 -20 h 20 20 v 20 20 z m -1300,-40 h -53.333 l 26.666,-26.667 26.667,-26.666 26.667,26.666 26.666,26.667 z m 940,0 h -20 v -20 -20 h 20 20 v 20 20 z m -2280,-1120.00001 h -20 v -20 -20 h 20 20 v 20 20 z m 200,-40 h -20 v -20 -20 h 20 20 v 20 20 z m 360,-80 h -20 v -20 -20 h 20 20 v 20 20 z m 2520,0 h -20 v -20 -20 h 20 20 v 20 20 z m -2280,-40 h -20 v -20 -20 h 20 20 v 20 20 z m 2040,0 h -20 v -20 -20 h 20 20 v 20 20 z m -1660,-40 h -53.333 l 26.666,-26.667 26.667,-26.666 26.667,26.666 26.666,26.667 z m 1300,0 h -20 v -20 -20 h 20 20 v 20 20 z"
     id="path7838" /></svg>
