<svg aria-hidden="true" style="position:absolute;
	width:0;height:0;
	overflow:hidden" xmlns="http://www.w3.org/2000/svg">
	<defs>
		<symbol id="compas" viewBox="0 0 26.591 29.369">
			<g id="g3351" style="stroke-width:.962418" transform="translate(-145.397 -190.269) scale(1.03905)">
				<path id="path3335" d="M160.448 203.699c0-.08-.07-.23-.15-.334a.9.9 0 0 1-.17-.337c-.036-.255-.102-.551-.136-.605-.017-.029 0-.072.04-.096.039-.024.05-.078.024-.12-.03-.048-.007-.06.06-.035.11.042.399-.174.399-.299 0-.043.052-.04.142.008.078.042.207.089.285.104a.641.641 0 0 1 .26.133c.065.059.138.09.163.072.026-.02.031-.015.013.01-.019.025 0 .087.042.138.057.068.057.093 0 .093-.043 0-.07.027-.06.06.019.066-.465.817-.738 1.147-.156.189-.172.194-.174.061z" style="fill:#427397;fill-opacity:1;stroke-width:.962417"/>
				<path id="path3337" d="M159.375 204.553a.871.871 0 0 1-.171-.116c-.072-.084-.358-.22-.314-.149.025.041.012.074-.03.074-.04 0-.092-.046-.114-.103-.022-.056-.068-.086-.101-.065-.034.021-.062.005-.062-.035s-.06-.073-.134-.073c-.074 0-.156-.036-.183-.08-.03-.049-.02-.06.03-.03.044.027.08.017.08-.024 0-.044.194-.073.5-.073.552 0 .966-.151 1.006-.367.065-.345-.18-.599-.578-.599-.093 0-.172-.038-.174-.086a2.308 2.308 0 0 0-.032-.225c-.049-.257.072-.335.565-.367.408-.026.459-.016.385.072-.046.056-.07.115-.054.131.03.03.097.322.134.59a.9.9 0 0 0 .17.337c.08.103.148.256.148.34 0 .094-.148.29-.397.525-.218.205-.428.38-.467.386-.038.007-.131-.022-.207-.063z" style="fill:#245677;fill-opacity:1;stroke-width:.962417"/>
				<path id="path3339" d="M158.323 204.666c-.19-.15-.43-.488-.43-.606 0-.018.049-.082.108-.141.086-.086.248-.106.776-.095.664.014.665.014.133.038-.3.013-.534.054-.534.093s-.036.048-.08.021c-.05-.03-.06-.019-.03.03.027.045.11.08.183.08s.134.033.134.074c0 .04.028.055.062.034.034-.02.08.008.1.065.023.057.074.103.116.103.041 0 .054-.033.029-.074-.052-.083.223.063.368.195a.353.353 0 0 0 .308.095c.116-.019.04.063-.152.162a1.404 1.404 0 0 1-.535.105c-.25-.001-.386-.044-.556-.179zm-.066-2.034c.021-.155.058-.302.082-.326.024-.024.268-.052.54-.062.274-.01.45 0 .394.025-.162.069-.204.176-.166.42l.036.225h-.923zm-.106-3.082c.807-.011 2.126-.011 2.933 0 .806.011.146.02-1.466.02-1.613 0-2.273-.009-1.467-.02z" style="fill:#204b6e;fill-opacity:1;stroke-width:.962417"/>
				<path id="path3341" d="M145.909 200.033a34.873 34.873 0 0 1 1.587 0c.424.012.058.022-.815.022s-1.22-.01-.772-.022zm3.893-.161c-.066-.04-.166-.178-.22-.31-.059-.139-.175-.266-.28-.306-.1-.037-.481-.069-.849-.07-.457 0-.635-.022-.565-.067.084-.054.074-.067-.051-.068-.086 0-.155-.036-.155-.078s-.044-.06-.097-.039c-.062.024-.09-.004-.08-.079.013-.09.12-.125.493-.159.262-.024.855-.047 1.318-.052l.84-.009.197.294.196.293.812.034c.618.027.826.06.876.138.107.17.076.331-.086.445-.123.086-.361.107-1.19.105-.579 0-1.09-.033-1.159-.073zm-4.79-.667a49.285 49.285 0 0 1 1.863 0c.5.012.072.022-.953.021-1.025 0-1.434-.01-.91-.02zm-2.321-1.374a.191.191 0 0 1-.045-.121c0-.046.022-.042.055.01.038.06.395.09 1.223.105l1.17.021-1.178.016c-.649.008-1.2-.005-1.225-.03zm4.49-.073c-.17-.025-.179-.04-.086-.132.11-.11.144-.265.045-.204-.033.02-.045-.041-.026-.137.018-.095.047-.159.065-.141.017.017.123 0 .236-.04.166-.058.229-.048.339.051.176.16.17.338-.017.512-.15.14-.191.147-.556.091zm-3.14-1.52a78.109 78.109 0 0 1 2.312 0c.636.012.116.021-1.155.021-1.272 0-1.792-.009-1.156-.02zm5.314 0c.56-.011 1.475-.011 2.035 0 .56.012.102.021-1.018.021s-1.577-.009-1.017-.02zm7.02-.34c0-.07-.137-.405-.305-.746-.167-.342-.297-.63-.287-.638.009-.01.161-.037.338-.061l.321-.045.215.458c.118.252.23.58.25.727.038.285.058.266-.411.397-.083.023-.121-.006-.121-.092zm-12.437-.487c.351-.013.926-.013 1.277 0 .35.012.064.022-.638.022s-.99-.01-.639-.022zm3.07 0c.611-.021.673-.035.673-.156 0-.073.062-.166.137-.206.115-.062.13-.055.091.044-.034.09-.017.106.077.07a.773.773 0 0 1 .154-.046c.018 0 .012-.039-.014-.086-.025-.048.033.007.128.12l.175.207-.426.044c-.234.024-.704.04-1.046.037l-.621-.006.673-.022zm10.678-.398c-.036-.094-.1-.172-.14-.172-.042 0-.058-.028-.036-.063.021-.035.015-.074-.014-.086-.082-.037-.294-.533-.24-.562.028-.014.112-.008.188.015.14.041.164.09.218.454.016.114.058.293.092.397.078.237.02.252-.068.018zm-3.61-.899c-.26-.225-.263-.23-.149-.405.13-.198.186-.183.579.149l.235.199-.2.143-.201.143zm1.105-.743-.331-.292.012-.723c.007-.398.038-.785.068-.861.03-.076.057-.1.06-.052.003.047.138.22.3.385.228.231.336.293.478.274.1-.013.204.01.23.052.025.041-.026.152-.114.247-.15.16-.154.183-.057.357.08.142.165.19.367.207.182.016.288-.012.344-.09.071-.096.084-.085.098.082.009.107.048.204.087.218.047.015.044.057-.009.12-.064.077-.054.098.05.103.156.007-.918.262-1.114.264-.076 0-.287-.13-.469-.291zm-.363-3.98c0-.892.01-1.257.022-.811.012.446.012 1.175 0 1.621-.012.446-.022.081-.022-.81z" style="fill:#9dcae0;fill-opacity:1;stroke-width:.962417"/>
				<path id="path3343" d="M151.506 206.64c0-.855.01-1.204.022-.777a33.2 33.2 0 0 1 0 1.552c-.012.427-.022.078-.022-.776zm1.657-1.174c0-1.233.009-1.738.02-1.12.012.616.012 1.625 0 2.241-.01.617-.02.113-.02-1.12zm-2.66-1.219a.499.499 0 0 1 0-.109c.003-.028-.023-.052-.06-.052-.036 0-.05-.043-.03-.096.021-.053 0-.12-.047-.149-.058-.035-.066-.023-.028.04.041.066.025.079-.058.047-.074-.029-.115-.01-.115.053 0 .053-.032.117-.07.14-.04.025-.067.019-.061-.012.024-.141-.017-.201-.145-.21-.076-.007-.138.018-.138.054 0 .035-.041.064-.092.064-.05 0-.092-.046-.092-.103 0-.057.015-.089.034-.07.056.056.215-.198.217-.348a.527.527 0 0 0-.09-.27c-.075-.101-.23-.137-.768-.178-.371-.028-.694-.077-.718-.11-.024-.033-.1-.069-.168-.08a.604.604 0 0 1-.259-.156c-.073-.073-.178-.134-.233-.134a.193.193 0 0 1-.149-.08c-.03-.049-.019-.06.03-.03.045.027.08.017.08-.024 0-.04.033-.073.074-.073.04 0 .054.03.031.067-.022.036.061.024.186-.028.168-.07.564-.092 1.538-.084l1.31.01v.961c0 .707-.022.968-.085.989-.048.016-.09.003-.095-.029zm-4.768-2.808c.02-.162.001-.25-.051-.25-.044 0-.063-.03-.04-.065.02-.035.002-.086-.042-.114-.05-.031-.062-.02-.031.03.072.117-.066.097-.166-.024-.048-.057-.063-.103-.035-.103.028 0 .017-.042-.025-.093-.043-.05-.054-.118-.026-.149s.012-.034-.035-.007c-.048.027-.086.015-.086-.028 0-.042-.025-.061-.056-.042-.03.018-.09-.057-.132-.169-.057-.15-.056-.215.004-.252.044-.028.799-.062 1.677-.077l1.597-.027.045.205c.061.276.279.497.507.514.24.018.805.03 2.238.044l1.155.011.045.179c.03.121.008.215-.07.293-.104.104-.414.115-3.2.115-2.936 0-3.09.006-3.194.13-.1.121-.106.114-.078-.121zm-1.09-2.32c.058-.037.071-.068.031-.068a.358.358 0 0 1-.173-.088c-.055-.047-.087-.078-.07-.068.016.01.082-.031.148-.09.1-.09.415-.111 1.972-.132 1.019-.014 1.654-.004 1.41.02-.34.036-.445.073-.458.162-.01.075.018.103.08.08.053-.021.096-.004.096.038 0 .042.07.077.156.078.125 0 .135.014.051.068-.059.038-.795.067-1.724.067-1.072 0-1.587-.023-1.518-.067zm-.655-1.38c.02-.033.004-.08-.036-.105-.052-.032-.052-.072.002-.136.053-.065.053-.098 0-.116-.048-.016-.039-.072.026-.161.095-.13.193-.138 1.814-.153.983-.009 1.654.01 1.575.043-.076.032-.157.047-.182.033-.024-.013-.058.052-.076.145-.018.093-.006.153.027.133.1-.061.065.094-.045.204-.092.092-.083.107.086.133.105.017-.579.032-1.519.035-.946.003-1.692-.022-1.672-.055zm14.95-2.134c.013-.057-.1-.168-.27-.264l-.294-.165-.2.143c-.11.079-.232.143-.27.143-.04 0-.084.039-.1.086-.016.048-.08-.083-.14-.29-.116-.393-.104-.571.016-.254.092.241.152.235.073-.008a2.885 2.885 0 0 1-.093-.397c-.054-.364-.077-.413-.215-.45-.155-.043 1.564-.46 2.033-.493a.402.402 0 0 0 .186-.073c.046-.036.112-.047.148-.026.035.022.113-.06.174-.183.06-.123.11-.183.111-.133.001.05.028.074.06.054.032-.02.062.06.065.179.003.118.047.24.097.272.067.043.06.058-.033.059-.102 0-.11.025-.048.14.04.077.052.175.025.219-.033.053-.01.064.07.034.065-.025.1-.017.079.018a.075.075 0 0 0 .025.103c.089.055.046.28-.054.28a.18.18 0 0 0-.131.073c-.028.04-.267.225-.533.41-.265.184-.555.4-.644.478-.106.095-.153.11-.138.045zm-2.234-2.3c.049-.059.06-.117.023-.13-.036-.014-.076-.1-.089-.192-.02-.145.087-.244.804-.743.456-.317.883-.594.95-.617.065-.022.12-.074.12-.113 0-.04.02-.053.043-.03.024.024.13 0 .235-.055.18-.093.193-.09.23.059a.47.47 0 0 0 .214.251c.096.052.175.132.175.18 0 .047.023.099.051.115.029.016.015.02-.03.009-.048-.012-.067.023-.045.08.021.055.066.1.1.1s.062.06.062.133c0 .073.054.188.12.255.115.116.115.12-.003.075-.078-.03-.137-.01-.162.055-.022.056-.066.086-.098.066-.033-.02-.115-.005-.183.034-.134.076-1.71.441-2.265.524-.304.046-.332.04-.253-.056zm-.71-1.155c-.025-.04-.128-.061-.228-.048-.142.02-.25-.043-.478-.274-.162-.165-.297-.338-.3-.385-.003-.048-.031-.024-.064.052-.035.082-.06-.473-.06-1.38 0-.835.027-1.58.06-1.656.034-.078.061-.096.064-.042.003.052.06.14.126.195.07.057.077.076.017.046-.089-.046-.09-.037-.01.063.053.064.117.102.144.086.027-.017.13.011.229.063.099.051.197.075.219.054.022-.022.04-.003.04.04 0 .045.061.081.137.081.076 0 .2.062.276.138.076.076.17.138.208.138.092 0 .365.154.43.242.03.04.051.026.053-.035.003-.084.02-.081.094.016.05.066.112.1.136.075.025-.025.045.01.045.074 0 .066.031.1.07.077.037-.024.068-.01.068.03s.033.073.072.073c.04 0 .141.072.225.159.089.093.109.102.048.022-.103-.136-.102-.136.08-.003.1.073.18.149.175.168a.58.58 0 0 0 .08.194c.076.136.105.146.2.069.096-.078.106-.074.068.026-.031.084-.015.107.057.079.07-.027.088-.006.058.072-.023.06-.07.094-.104.073-.034-.021-.062-.01-.062.026 0 .035-.442.357-.983.715-1.222.81-1.138.762-1.19.677zm.253-1.676c.314-.24.391-.432.266-.666-.106-.198-.387-.18-.686.044-.31.233-.349.29-.35.508-.002.398.331.448.77.114z" style="fill:#7db7d1;fill-opacity:1;stroke-width:.962417"/>
				<path id="path3345" d="M150.133 207.179c-.264-.074-.52-.167-.569-.207-.049-.04-.089-.05-.089-.022 0 .028-.046.012-.103-.035-.057-.047-.104-.068-.104-.047 0 .06-.877-.35-1.414-.662-.74-.43-1.52-1.047-2.242-1.776-.36-.364-.835-.913-1.053-1.219-.485-.679-1.026-1.693-1.29-2.419-.229-.624-.486-1.661-.486-1.955v-.201l1.5.014c.826.008 1.254.024.951.037-.356.016-.59.06-.661.125-.061.055-.124.092-.14.083-.017-.01.015.021.07.068a.358.358 0 0 0 .173.088c.04 0 .027.03-.03.068-.057.036-.244.067-.416.068-.172 0-.382.049-.466.108-.177.124-.204.418-.055.621.085.117.213.14.983.173.487.022.755.045.596.052-.159.007-.302.036-.318.064-.044.078.125.442.18.387.026-.026.048-.01.048.037 0 .048.037.063.086.035.047-.027.063-.024.035.007-.028.03-.017.098.026.149.042.05.053.092.025.092-.028 0-.013.047.035.104.1.121.238.14.166.024-.031-.05-.02-.061.031-.03.044.028.063.079.041.114-.022.036-.004.064.04.064.054 0 .064.128.031.433-.069.645-.036.663 1.27.687.893.016 1.022.031.841.1-.117.044-.196.051-.174.017.021-.035.006-.064-.034-.064a.073.073 0 0 0-.073.073c0 .04-.036.051-.08.024-.05-.03-.061-.019-.03.03.027.044.093.08.148.08.055 0 .164.065.242.143a.548.548 0 0 0 .276.153c.074.006.133.032.133.06 0 .026.07.062.156.079.085.016-.405.034-1.089.039-1.003.008-1.273.03-1.397.117-.192.134-.198.4-.013.584.135.135.209.14 1.96.121 1.45-.015 1.806-.002 1.75.067-.053.063-.042.086.04.086.061 0 .111-.029.111-.065 0-.035.062-.06.138-.054.128.01.17.07.145.21-.005.032.022.038.06.014.04-.024.071-.088.071-.141 0-.063.041-.082.115-.053.083.032.1.019.058-.048-.038-.062-.03-.075.028-.039a.127.127 0 0 1 .048.149c-.02.053-.005.096.033.096.04 0 .053.03.031.065-.022.036.01.092.07.126.098.055.098.07-.008.158-.065.054-.35.117-.636.14-.551.045-.705.142-.705.445 0 .28.195.367.88.39l.638.022v.91c0 .5-.023.923-.052.94-.028.016-.268-.03-.532-.103zm3.03-6.853c0-1.252.009-1.774.02-1.16.012.614.012 1.639 0 2.277-.01.638-.02.135-.02-1.117zm5.234.052a75.622 75.622 0 0 1 2.277 0c.614.011.092.02-1.16.02s-1.755-.008-1.117-.02zm-15.683-2.946v-.383l.845.01c.465.006.76.023.655.04-.104.015-.221.088-.26.161-.053.099-.05.134.013.134.066 0 .067.018.003.082-.063.063-.058.108.024.198.098.109.058.117-.588.129l-.693.011zm11.09-.297c.352-.012.926-.012 1.277 0 .351.013.064.023-.638.023s-.99-.01-.638-.023zm7.814-2.412c-.357-.239-.684-.434-.728-.434-.043 0-.215.098-.382.217-.264.188-.283.194-.143.042.104-.114.134-.192.085-.222-.042-.026-.058-.075-.036-.11.021-.035-.014-.043-.08-.018-.079.03-.102.02-.069-.034.027-.043.015-.142-.026-.219-.062-.115-.053-.14.049-.14.092 0 .1-.016.032-.059-.05-.031-.093-.154-.096-.272-.003-.122-.036-.197-.074-.173-.042.025-.055-.048-.034-.19.046-.31-.069-.414-.398-.36-.182.029-.246.019-.212-.035.026-.042.1-.057.166-.032.11.042.11.036-.002-.077a.433.433 0 0 1-.121-.255c0-.073-.028-.133-.062-.133s-.079-.045-.1-.1c-.022-.057-.003-.091.045-.08.045.01.059.007.03-.01-.028-.015-.051-.067-.051-.114s-.079-.128-.174-.18a.47.47 0 0 1-.214-.25c-.038-.152-.05-.154-.24-.055-.294.152-.243.06.08-.144.153-.097.296-.222.317-.277.071-.186-.045-.449-.228-.519-.142-.053-.23-.038-.417.072-.13.077-.214.103-.186.059.033-.054.012-.067-.062-.038-.083.032-.1.013-.067-.075.037-.1.028-.104-.068-.026-.095.077-.124.067-.2-.07a.591.591 0 0 1-.08-.193c.005-.02-.074-.095-.175-.168-.182-.132-.183-.132-.08.003.06.08.04.071-.048-.022-.084-.087-.185-.159-.225-.159a.073.073 0 0 1-.072-.073c0-.04-.031-.054-.069-.03-.038.023-.069-.011-.069-.077 0-.065-.02-.098-.045-.074-.025.025-.086-.009-.136-.074-.074-.098-.091-.101-.094-.017-.002.061-.024.076-.054.035-.064-.088-.337-.242-.429-.242-.038 0-.132-.062-.208-.138a.477.477 0 0 0-.276-.138c-.076 0-.138-.036-.138-.08 0-.044-.018-.063-.04-.041-.02.021-.12-.003-.218-.054-.1-.052-.202-.08-.23-.063-.026.016-.09-.022-.142-.086-.081-.1-.08-.109.009-.063.06.03.052.01-.017-.046-.067-.055-.123-.142-.126-.195-.003-.054-.03-.036-.064.042-.042.098-.06.013-.064-.29l-.005-.427.362.107c.959.284 1.874.703 2.742 1.255 1.728 1.098 2.884 2.314 3.688 3.878.39.759.62 1.316.762 1.856.075.284.072.318-.03.318-.063 0-.407-.195-.763-.433zm-8.454-5.678c0-1.65.009-2.326.02-1.5.01.825.01 2.176 0 3.001-.011.825-.02.15-.02-1.5z" style="fill:#609ab7;fill-opacity:1;stroke-width:.962417"/>
				<path id="path3347" d="m152.17 210.37-.575-1.165-.318-.045a16.166 16.166 0 0 1-1.043-.216c-2.937-.693-5.47-2.46-7.213-5.03-1.09-1.606-1.803-3.614-1.947-5.482l-.05-.648-.311-.166c-.17-.091-.416-.22-.545-.288l-.235-.122.554-.3.555-.3.043-.425c.068-.665.294-1.615.56-2.355a12.091 12.091 0 0 1 2.006-3.546c.496-.608 1.532-1.598 2.168-2.071 1.427-1.062 3.226-1.854 5.019-2.21.427-.084.776-.178.776-.209 0-.062 1.096-2.626 1.142-2.672.036-.036.272.485.792 1.75l.397.967.3.055c.888.162 2.19.542 2.82.823 1.148.51 2.013 1.026 2.932 1.746 1.761 1.38 3.055 3.164 3.85 5.31.233.632.6 2.254.6 2.657 0 .145.09.22.562.475l.56.303-.56.307-.562.307v.305c0 .376-.17 1.495-.32 2.098a12.245 12.245 0 0 1-1.311 3.195c-.469.78-1.258 1.745-2.077 2.54-1.19 1.154-2.275 1.868-3.707 2.441-.744.298-1.924.627-2.76.77l-.342.058-.554 1.115a26.229 26.229 0 0 1-.593 1.154c-.02.02-.296-.486-.613-1.127zm.823-.796.208-.445v-11.942h2.5l.688-.416.688-.416-.213.373c-.117.205-.213.392-.213.415 0 .024.244.044.541.044.485 0 .57-.02.811-.195 1.012-.732 2.167-1.456 2.167-1.358 0 .02-.171.378-.38.795l-.38.758.5-.001.501-.001 1.016-.81c.56-.445 1.017-.832 1.018-.86 0-.03-.257-.053-.573-.053h-.574l-.176-.534c-.097-.294-.167-.546-.156-.558.012-.013.377.217.813.511l.792.535.11.709c.06.39.11.943.11 1.23v.522h-8.762l-.016.88c-.022 1.263.003 1.59.147 1.916.07.16.244.378.385.485.196.15.352.203.661.225.323.023.466-.002.7-.123.163-.084.438-.305.611-.492l.315-.338h5.486l-.05.155a19.48 19.48 0 0 1-.132.397l-.083.242-2.408.037c-2.681.042-2.643.036-3.22.536-.18.155-.444.315-.586.355-.141.039-.607.071-1.034.072h-.776v.981l.5-.036c.865-.063 1.665-.185 1.881-.287.115-.053.286-.18.38-.28.293-.314.494-.379 1.151-.37.334.004.556.022.494.038-.119.032-.195.222-.196.489-.001.122-.04.155-.191.156-.302.002-.733.235-.971.524l-.22.266-.707.041c-.396.023-.84.092-1.008.156a2.39 2.39 0 0 1-.708.116h-.405v.828h.544c.327 0 .642-.041.79-.104.344-.143 1.457-.14 1.736.005.114.06.34.259.501.443.384.437.756.584 1.358.536.254-.02.582-.103.767-.192.178-.086.557-.391.842-.678 1.197-1.206 2.122-2.763 2.58-4.346.266-.92.392-1.686.447-2.702.138-2.583-1.045-5.609-2.964-7.577a12.417 12.417 0 0 0-4.577-2.95c-.63-.228-1.696-.512-1.923-.512-.087 0-.102.37-.108 2.605-.004 1.432-.028 2.681-.054 2.775-.033.116-.122.192-.28.237-.201.058-.247.046-.359-.092-.12-.15-.128-.342-.128-3.362v-3.204l-.218-.462-.218-.463-.193.414-.192.414-.003 5.295-.003 5.295h-9.609l.043-.316c.024-.174.061-.344.083-.38.023-.036 1.545-.063 3.676-.063h3.637l.454-.362c.91-.728.957-.78.957-1.082 0-.336-.12-.417-.699-.47-.53-.048-.93.105-1.287.492-.149.162-.286.337-.303.39-.026.076-.12.057-.456-.094-.392-.176-.439-.183-.616-.09a4.266 4.266 0 0 0-.459.302l-.266.2-.363-.362c-.28-.281-.452-.39-.757-.478-.547-.159-1.055-.046-1.462.326-.147.134-.15.134-.504-.046l-.356-.18-.485.353c-.558.405-.554.42-.128-.589.5-1.184 1.14-2.166 1.982-3.041.63-.657 1.026-.985 1.778-1.476a10.899 10.899 0 0 1 3.691-1.513l.587-.117.02-.428c.015-.316-.003-.428-.069-.426a12.045 12.045 0 0 0-4.409 1.674c-1.769 1.11-3.11 2.567-4.02 4.37a11.693 11.693 0 0 0-.924 2.51c-.164.662-.18.843-.177 2.104.002 1.137.027 1.495.146 2.035.334 1.523.952 2.949 1.794 4.14.778 1.103 2.146 2.394 3.318 3.134.477.3 1.45.766 2.078.994.61.22 1.48.453 1.984.53l.293.046V202.7l.169-.169c.132-.132.203-.156.327-.11a.529.529 0 0 1 .245.223c.064.124.085.956.085 3.34v3.173l.19.43c.106.236.199.43.207.43.01.002.11-.198.225-.443zm2.099-9.128c-.172-.115-.235-.386-.235-1.012v-.66h7.844l-.054.327c-.03.18-.056.36-.058.397-.003.045-.975.062-2.816.048-1.877-.015-2.93.004-3.166.055-.302.065-.41.136-.73.487-.262.286-.427.41-.543.41a.549.549 0 0 1-.242-.052zm-.511 7.776c.247-.039.557-.105.69-.146a22.46 22.46 0 0 0 2.196-.826l.585-.27-.373-.362a4.761 4.761 0 0 1-.553-.642c-.25-.386-.599-.544-1.2-.544-.391 0-.559.037-.884.197a1.62 1.62 0 0 0-.634.517c-.128.177-.266.45-.306.61-.083.33-.1 1.54-.021 1.539.028 0 .253-.033.5-.073zm.368-1.147c.07-.436.511-.78.996-.78.195 0 .311.045.427.168.087.093.142.212.122.265-.035.091-.76.38-1.318.525l-.267.07zm-5.476-13.645c.046-.056.062-.165.037-.246-.035-.108-.093-.14-.23-.124-.205.024-.279.21-.147.37.106.128.234.128.34 0zm-1.906-.67c.052-.083.047-.146-.019-.225-.13-.158-.4-.139-.454.032-.094.296.306.459.473.193zm3.078-.396c.054-.101.04-.17-.062-.294-.108-.131-.156-.147-.258-.085a.336.336 0 0 0-.133.41c.056.146.37.124.453-.031zm-4.617-.84c.057-.105.055-.167-.006-.24-.12-.145-.325-.122-.377.042-.049.154.068.341.214.341.051 0 .127-.064.169-.142zm2.832-.403c.154-.155.201-.265.201-.474a.74.74 0 0 0-.479-.703c-.274-.114-.532-.042-.773.217-.282.302-.27.62.038.927.192.192.287.234.523.234.226 0 .331-.043.49-.201zm1.981-1.4c.103-.102.109-.376.01-.437-.04-.024-.148-.026-.241-.003-.117.03-.169.09-.169.2 0 .168.117.323.242.323.042 0 .113-.037.159-.083zm-8.058.103a.49.49 0 0 1-.345-.479c0-.29.206-.507.483-.507.115 0 .268.062.345.138.173.174.183.56.017.706-.149.13-.363.191-.5.142zm19.663 0a.49.49 0 0 1-.345-.479c0-.431.451-.653.813-.4.113.08.153.178.153.37 0 .272-.126.443-.379.51a.484.484 0 0 1-.242-.001z" style="fill:#002742;fill-opacity:1;stroke-width:.962417"/>
				<path id="path3349" d="M161.403 202.31a.424.424 0 0 1 .006-.121c.008-.038-.009-.046-.038-.017-.028.028-.104.004-.168-.054a.642.642 0 0 0-.26-.133c-.234-.045-.428-.173-.428-.282a.559.559 0 0 0-.084-.236c-.046-.074-.065-.152-.043-.174.021-.022.401-.031.844-.02l.804.019-.26.532c-.236.481-.35.63-.372.486zm-4.493-3.588c1.072-.01 2.826-.01 3.898 0s.195.02-1.95.02c-2.143 0-3.02-.01-1.948-.02zm1.207-.828c.75-.011 1.976-.011 2.725 0 .75.011.137.02-1.362.02-1.5 0-2.112-.009-1.363-.02z" style="fill:#5082a2;fill-opacity:1;stroke-width:.962417"/>
			</g>
		</symbol>
		<symbol id="fonar" viewBox="0 0 22.093 24.342">
			<g id="g3106" style="stroke-width:.999765" transform="matrix(.99947 0 0 1.001 -61.506 -211.813)">
				<path id="path3090" d="M69.774 236.92c.12-.019.315-.019.435 0 .12.017.022.032-.217.032-.24 0-.337-.015-.218-.033zm2.454-.003a15.71 15.71 0 0 1 1.186 0c.313.015.036.027-.616.027s-.908-.012-.57-.027zm2.53 0c.25-.015.642-.015.869 0 .227.017.02.03-.458.03-.478 0-.663-.014-.412-.03zm-4.47-2.686c.141-.017.373-.017.514 0 .141.018.026.032-.257.032-.283 0-.398-.014-.257-.032zm4.506-.001c.272-.015.716-.015.988 0s.05.028-.494.028c-.543 0-.766-.013-.494-.028zm2.214.003a.854.854 0 0 1 .317.002c.075.02-.005.035-.18.034-.173 0-.235-.017-.137-.036zm-10.869-2.135c.12-.018.298-.018.395 0 .098.02 0 .034-.218.034s-.297-.016-.177-.034zm-1.375-.24c-.098-.125-.095-.128.03-.03.132.104.174.168.109.168-.017 0-.08-.062-.139-.138zm15.741-.05c0-.016.063-.078.139-.138.125-.098.128-.095.03.03-.104.132-.169.174-.169.109zm-9.242-3.02c.004-.092.022-.11.047-.047.023.057.02.125-.006.151-.026.026-.045-.02-.041-.104zm5.152-.168c.12-.018.315-.018.434 0 .12.018.022.033-.217.033-.24 0-.337-.015-.217-.033zm2.653-.077c.057-.022.125-.02.151.006.026.027-.02.045-.104.042-.092-.004-.11-.023-.047-.048zm-2.889-.42c0-.196.016-.276.034-.178.02.098.02.258 0 .356-.018.098-.034.018-.034-.178zm-.015-.6c.004-.092.022-.11.048-.047.022.057.02.125-.007.151-.026.027-.045-.02-.041-.103zm.45-.167a.878.878 0 0 1 .315 0c.076.02-.005.036-.179.035-.173 0-.235-.017-.137-.036zm-3.592-.656c0-.326.014-.46.031-.296.017.163.017.43 0 .593-.017.163-.03.03-.03-.297zm-.004-1.62c0-.218.016-.297.034-.177.018.12.018.298 0 .395-.02.097-.034 0-.034-.218zm.01-2.214c0-.826.012-1.153.027-.727a26.31 26.31 0 0 1 0 1.502c-.015.4-.027.051-.027-.775zm-6.419.94c-.056-.06-.067-.11-.024-.11.082 0 .2.15.154.195-.016.015-.074-.023-.13-.084zm7.44-2.956c0-.326.015-.46.032-.296.017.163.017.43 0 .593-.017.163-.031.03-.031-.297zm-2.793-.265c0-.325-.112-.4-.735-.498-.183-.028-.358-.09-.39-.138-.076-.114-.076-1.297 0-1.194.032.044.26.185.507.314.246.13.431.262.41.296-.02.033.013.041.074.018.087-.034.12.108.162.686.028.4.034.746.012.768-.022.022-.04-.092-.04-.252zm2.899-.341c-.029-.029-.053-.237-.053-.462 0-.4.008-.413.31-.55.17-.076.345-.116.39-.09a.095.095 0 0 0 .13-.03.196.196 0 0 1 .15-.08c.146 0 .177 1.025.032 1.034-.252.016-.576.088-.704.156-.166.089-.186.09-.255.022zm1.431-1.807c.266-.241.628-.659.804-.929l.32-.49v.537c0 .338-.028.52-.078.489-.044-.027-.08-.01-.08.04 0 .048-.03.069-.068.045-.037-.023-.131.027-.208.112-.077.085-.17.136-.208.112-.038-.023-.069-.005-.069.042 0 .046-.034.084-.075.084-.042 0-.207.088-.367.197-.492.334-.479.22.03-.24zm-3.323.193c.028-.107.064-.142.083-.083a.202.202 0 0 1-.049.187c-.058.059-.069.028-.034-.104zm-3.682-1.019c-.012-.651-.009-.664.122-.478.153.218.185.423.09.572-.05.08-.067.075-.077-.017-.007-.065-.038.042-.068.237-.047.301-.057.253-.067-.314zm.462.21c-.1-.154-.173-.37-.126-.37.067 0 .349.474.3.504-.035.022-.113-.039-.174-.134zm10.108-.983c-.098-.125-.095-.128.03-.03.132.104.174.169.109.169-.017 0-.079-.063-.139-.139zM68.26 215.27c.004-.092.022-.11.048-.047.022.057.02.125-.007.151-.026.026-.045-.02-.041-.104zm0-.395c.004-.092.022-.11.048-.048.022.057.02.126-.007.152-.026.026-.045-.02-.041-.104zm4.322.07a.878.878 0 0 1 .317 0c.075.02-.005.036-.18.035-.173-.001-.235-.017-.137-.036zm-.597-.636a23.4 23.4 0 0 1 1.423 0c.404.014.095.026-.688.026-.783 0-1.114-.011-.735-.026zm2.662-.316c-.099-.126-.096-.129.03-.03.075.06.138.122.138.138 0 .065-.065.023-.168-.108z" style="fill:#a9d3d9;fill-opacity:1;stroke-width:.999765"/>
				<path id="path3092" d="M70.683 236.918a4.54 4.54 0 0 1 .672 0c.185.016.034.03-.336.03s-.52-.013-.336-.03zm3.361.003a.452.452 0 0 1 .238.003c.053.022-.01.038-.14.036-.13 0-.174-.02-.098-.04zm-11.893-4.663c.057-.023.125-.02.151.006.027.026-.02.045-.103.041-.092-.004-.111-.022-.048-.048zm.944-.005c.315-.015.83-.015 1.146 0 .315.015.057.027-.573.027s-.889-.012-.573-.027zm17.015-.016c0-.04.041-.1.091-.13.056-.035.07-.023.036.032-.04.065.32.096 1.312.113l1.367.024-1.403.018c-.836.01-1.403-.013-1.403-.057zm-10.725-2.811c0-.304.015-.42.032-.255.017.164.017.413 0 .553-.018.14-.032.006-.032-.298zm8.828-.465c0-.016.062-.078.138-.138.126-.098.128-.095.03.03-.103.132-.168.173-.168.108zm-6.95-.411c.004-.092.022-.11.047-.048.023.057.02.125-.006.152-.026.026-.045-.02-.041-.104zm-1.876-1.219c0-.37.014-.52.03-.336.017.185.017.487 0 .672-.016.185-.03.034-.03-.336zm4.652.198c.001-.13.019-.174.039-.097a.453.453 0 0 1-.003.237c-.022.053-.038-.01-.036-.14zm-1.037-.165c.004-.092.022-.11.048-.048.022.057.02.126-.007.152-.026.026-.045-.02-.041-.104zm-6.706-.166c.076-.02.2-.02.277 0 .076.02.014.036-.139.036-.152 0-.214-.016-.138-.036zm-2.253-.555c.098-.019.258-.019.356 0 .098.019.018.034-.178.034-.196 0-.276-.015-.178-.034zm16.952-1.09c.002-.13.02-.175.04-.098a.453.453 0 0 1-.003.237c-.022.054-.038-.009-.037-.14zm.003-1.147c0-.152.016-.214.036-.138.02.076.02.2 0 .277-.02.076-.036.013-.036-.139zm0-.711c0-.152.016-.215.036-.138.02.076.02.2 0 .276-.02.076-.036.014-.036-.138zm-.67-.293a.878.878 0 0 1 .317 0c.075.02-.005.036-.18.035-.173 0-.235-.017-.137-.036zm1.7 0c.075-.02.2-.02.276 0 .076.02.014.037-.139.037-.152 0-.214-.016-.138-.036zm-7.979-1.486c0-.305.015-.42.032-.255.017.164.017.413 0 .553-.018.14-.032.006-.032-.298zm-2.807-.64c-.028-.332-.166-.405-.83-.44l-.341-.017v-.48c.001-.263.028-.44.06-.392.032.048.207.11.39.139.69.108.715.133.777.801.031.33.037.62.013.645-.024.024-.055-.09-.07-.255zm2.906-.329c-.08-.08-.05-.743.032-.692.042.026.141.013.22-.029.078-.042.292-.098.476-.126l.333-.05v.38c0 .377-.001.379-.257.37a1.47 1.47 0 0 0-.507.091c-.138.056-.271.082-.297.056zm1.062-1.606c-.001-.429.008-.446.322-.652.178-.117.356-.212.396-.212.04 0 .071-.038.071-.084 0-.046.031-.064.069-.041.038.023.131-.027.208-.112.077-.085.17-.135.208-.112.038.023.069.003.069-.046s.035-.066.079-.04c.09.057.11.986.02.994-.258.026-.46.09-.481.155-.015.042-.07.077-.122.077-.142 0-.701.299-.774.414-.037.057-.064-.088-.065-.34zm-5.633-.188c-.12-.062-.218-.093-.218-.069 0 .025-.05.002-.113-.05-.062-.05-.24-.1-.395-.108-.268-.013-.281-.028-.275-.29.008-.334.125-1.117.141-.95.01.1.023.102.083.008a.309.309 0 0 0 .025-.238c-.024-.069-.018-.102.014-.073.032.028.065.1.073.158.019.124.29.529.29.432 0-.036.165.099.368.298.203.2.398.364.435.364.036 0 .066.142.066.316 0 .356-.112.402-.494.202zm2.056-.89a.878.878 0 0 1 .316.001c.076.02-.005.035-.179.034-.174 0-.235-.017-.137-.036zm1.52.011c.278-.06.775-.072.74-.016-.02.034-.222.057-.448.052-.225-.005-.357-.021-.291-.035zm7.5-2.228c-.098-.125-.095-.128.03-.03.132.104.174.169.109.169-.017 0-.079-.063-.139-.139zm-10.123-1.101c.057-.023.125-.02.152.006.026.026-.02.045-.104.041-.092-.004-.11-.022-.048-.047zm.173-1.004c0-.016.062-.078.138-.138.126-.098.129-.095.03.03-.103.132-.168.174-.168.108zm.91-.128c.078-.087.16-.158.182-.158.022 0-.025.071-.104.158-.078.087-.16.158-.182.158-.022 0 .025-.07.103-.158z" style="fill:#7eb8c2;fill-opacity:1;stroke-width:.999765"/>
				<path id="path3094" d="M73.878 233.577c0-.11.018-.154.04-.1a.305.305 0 0 1 0 .198c-.022.055-.04.01-.04-.098zm-12.338-.837c.003-.092.022-.11.047-.048.023.057.02.125-.006.152-.026.026-.045-.02-.041-.104zm.848-.482c.057-.023.125-.02.152.006.026.026-.02.045-.104.041-.092-.004-.111-.022-.048-.048zm20.553 0c.057-.023.125-.02.152.006.026.026-.02.045-.104.041-.092-.004-.111-.022-.048-.048zm-16.764-1.583c.098-.019.258-.019.356 0 .098.019.018.034-.178.034-.195 0-.275-.015-.178-.034zm5.086-2.362c.004-.092.022-.11.047-.048.023.057.02.126-.006.152-.026.026-.045-.02-.041-.104zm-5.124-.327c.12-.018.298-.017.395.001.098.02 0 .034-.218.033-.218 0-.297-.016-.177-.034zm6.863-.384c.004-.092.022-.111.048-.048.022.057.02.125-.007.151-.026.027-.045-.02-.041-.103zm1.044-.626c0-.218.016-.297.034-.177.018.12.018.298-.001.395-.019.098-.034 0-.033-.218zm-8.022.223c.057-.023.126-.02.152.006.026.026-.02.045-.104.041-.092-.004-.11-.022-.048-.048zm6.297-3.78c0-2.044.01-2.891.022-1.883.013 1.008.013 2.68 0 3.715-.012 1.036-.022.211-.022-1.832zm8.358 3.147c.289-.033.293-.04.323-.425l.03-.391-.006.415-.007.416-.316.009-.316.009.292-.034zm-.312-1.265c.076-.02.2-.02.277 0 .076.02.014.036-.139.036-.152 0-.214-.016-.138-.036zm1.661-.002c.12-.018.298-.018.395 0 .098.02 0 .034-.218.034-.217 0-.297-.016-.177-.034zm-15.889-.237c.12-.019.298-.018.395 0 .098.02 0 .034-.218.034s-.297-.016-.177-.034zm16.087-.395a.854.854 0 0 1 .316.002c.075.02-.005.036-.179.035-.174-.001-.236-.017-.137-.036zm-18.38-.077c.076-.02.2-.02.276 0 .076.02.014.036-.138.036-.152 0-.215-.016-.139-.036zm10.208-1.21c0-.544.012-.766.028-.495.015.272.015.717 0 .988-.016.272-.028.05-.028-.494zm9.62.744c.003-.092.022-.111.047-.048.023.057.02.125-.006.151-.026.027-.045-.02-.041-.103zm-2.688-.08c.004-.091.022-.11.048-.047.023.057.02.125-.007.151-.026.027-.044-.02-.041-.103zm-.18-.64c.058-.022.126-.02.152.006.027.027-.02.045-.103.042-.093-.004-.111-.023-.048-.048zm1.66 0c.058-.022.126-.02.152.006.027.027-.02.045-.103.042-.093-.004-.111-.023-.048-.048zm1.208-.15c.003-.092.022-.11.047-.048.023.058.02.126-.006.152-.026.026-.045-.02-.041-.104zM71.27 222.18c-.016-.503-.04-.52-.828-.553l-.38-.017.024-.399.023-.398.332.024c.7.051.768.098.837.572.034.236.05.607.034.824l-.027.395zm2.889-.588c-.032-.031-.058-.2-.058-.373 0-.174.021-.296.046-.27.026.025.159 0 .297-.054.137-.055.357-.096.487-.092.22.007.24.031.261.332l.024.326-.34.045a4.127 4.127 0 0 0-.5.094c-.088.027-.186.024-.217-.008zm-5.206-.327c-.098-.126-.096-.128.03-.03.131.103.173.168.108.168-.016 0-.078-.062-.138-.138zm6.267-1.087c-.005-.218.019-.44.054-.495.073-.115.632-.414.774-.414.053 0 .107-.034.122-.075.014-.041.142-.095.283-.12l.257-.045v.55c0 .303-.032.57-.072.594-.04.025-.051-.032-.027-.125.041-.158.024-.165-.264-.112-.653.12-1.05.29-1.084.467-.019.093-.038-.008-.043-.225zm-5.597-.155c-.408-.185-.881-.324-1-.294-.035.01-.053-.17-.04-.4.024-.406.03-.416.256-.4.128.01.288.043.356.073s.142.061.163.069c.022.007.14.055.262.106.123.05.274.092.336.092.086 0 .114.115.114.474 0 .26-.01.472-.02.47-.01-.002-.203-.088-.427-.19zm7.114-1.782c0-.326.013-.46.03-.296.018.163.018.43 0 .593-.017.163-.03.03-.03-.297zm-4.627.025c.057-.023.125-.02.152.006.026.026-.02.045-.104.042-.092-.004-.11-.023-.048-.048zm8.23-2.535-.191-.217.217.191c.12.106.217.204.217.218 0 .062-.064.011-.243-.192zm-6.96-2.213c-.099-.126-.096-.128.03-.03.131.103.173.168.108.168-.016 0-.079-.062-.138-.138z" style="fill:#6aacb8;fill-opacity:1;stroke-width:.999765"/>
				<path id="path3096" d="M73.889 233.023c0-.239.015-.337.033-.217.018.12.018.315 0 .435s-.033.021-.033-.218zm-8.892-.765c.057-.023.125-.02.151.006.026.026-.02.045-.104.041-.092-.004-.11-.022-.047-.048zm6.187-1.731c.003-.093.022-.111.047-.048.023.057.02.125-.006.151-.026.027-.045-.02-.041-.104zm-2.357-.406c.12-.019.298-.018.395 0 .097.02-.001.034-.218.034-.218 0-.297-.016-.177-.034zm3.485-2.355c0-.391.013-.561.03-.378.016.184.017.504 0 .712-.016.208-.03.058-.03-.334zm-1.034.119c0-.196.015-.276.034-.178.02.098.02.258 0 .356-.019.098-.034.018-.034-.178zm-7.314.181c.098-.019.258-.019.356 0 .098.02.018.035-.178.035-.196 0-.276-.016-.178-.035zm.163-.71c.057-.022.125-.02.152.007.026.026-.02.045-.104.041-.092-.004-.11-.022-.048-.048zm9.927-1.803c0-.609.013-.847.028-.53.015.317.015.815 0 1.107-.015.291-.028.032-.028-.577zm7.934 1.011a.878.878 0 0 1 .317.001c.075.02-.005.036-.18.035-.173-.001-.235-.017-.137-.036zm-1.181-1.263c.057-.022.125-.02.151.006.027.027-.02.045-.103.042-.093-.004-.111-.023-.048-.048zm1.106-.632c.058-.023.126-.02.152.006.026.026-.02.045-.104.041-.092-.004-.11-.022-.048-.047zm-17.628-.08c.057-.022.125-.02.152.007.026.026-.02.045-.104.041-.092-.004-.11-.022-.048-.047zm6.986-1.03c-.016-.89-.068-.984-.607-1.079-.564-.099-.568-.104-.62-.66-.056-.602-.156-.743-.722-1.017-.594-.288-.753-.449-.753-.763 0-.15.02-.29.043-.315.054-.053.575.103 1.083.323l.376.163v1.4l.375.016c.832.036.788-.015.849.986.03.487.04 1.08.022 1.32-.02.276-.037.14-.046-.374zm12.418.136c0-.195.015-.275.034-.178.019.098.019.258 0 .356-.019.098-.034.018-.034-.178zm-9.502-1.211c-.047-.047-.085-.265-.085-.484 0-.358.019-.401.178-.413a9.99 9.99 0 0 0 .554-.07l.375-.056v-.375c0-.724.057-.844.463-.975.66-.213.96-.245.96-.1 0 .137-.27.443-.39.443-.04 0-.084.05-.098.112-.014.062-.202.233-.418.381-.433.297-.596.654-.447.98.066.146.06.171-.034.136-.071-.028-.115.004-.115.082 0 .07-.055.127-.122.127-.068 0-.26.067-.43.148-.218.106-.33.124-.39.064zm-5.495-1.77c-.042-.112-.033-.121.045-.044.054.054.078.118.054.142-.025.024-.069-.02-.099-.097zm7.669.011c-.084-.06-.135-.129-.113-.15.022-.022.108.01.192.071.084.061.134.13.113.151-.022.022-.108-.01-.192-.072zm.374-1.536c0-.239.014-.337.033-.217.018.12.018.315 0 .435-.019.12-.033.022-.033-.218zm-8.225-.672c0-.173.017-.235.036-.137a.866.866 0 0 1-.002.316c-.02.076-.035-.005-.034-.179zm8.225-1.225c0-.239.014-.337.033-.217.018.12.018.315 0 .435-.019.12-.033.021-.033-.218zm-2.564-3.774c-.098-.126-.095-.129.03-.03.132.103.174.168.109.168-.017 0-.08-.063-.139-.139z" style="fill:#3f8d9e;fill-opacity:1;stroke-width:.999765"/>
				<path id="path3098" d="M71.443 232.786c0-.413.013-.582.03-.375a5.78 5.78 0 0 1 0 .75c-.017.207-.03.038-.03-.375zm2.44-.395c0-.152.017-.215.037-.139.02.077.02.201 0 .277-.02.076-.037.014-.037-.138zm-1.567-2.648c0-.74.012-1.053.027-.696.014.357.015.961 0 1.344-.014.382-.026.09-.027-.648zm-1.126.513c0-.108.018-.153.04-.098a.305.305 0 0 1 0 .197c-.022.055-.04.01-.04-.099zm-4.775-.921a.305.305 0 0 1 .197 0c.055.021.01.04-.099.04-.108 0-.153-.018-.098-.04zm2.45-.478c.098-.019.258-.019.356 0 .098.019.018.034-.178.034-.196 0-.276-.015-.178-.034zm-.158-.87c.098-.019.258-.019.356 0 .098.019.018.035-.178.035-.196 0-.276-.016-.178-.035zm2.566-1.922c-.013-1.207-.042-1.58-.132-1.71-.064-.09-.1-.181-.08-.2.052-.053-.626-.38-.786-.38-.074 0-.113-.036-.086-.08.027-.043-.008-.079-.079-.079-.07 0-.294-.17-.498-.378-.317-.323-.704-.583-.898-.604-.03-.003-.083-.038-.119-.078-.038-.042-.024-.048.034-.015.06.035.117.001.145-.086.119-.368.251-.527.58-.694l.355-.18-.252-.056c-.279-.06-.651-.448-.651-.677 0-.274-.14-.236-.264.071-.086.216-.184.322-.334.36-.263.065-.308.024-.198-.182.09-.169.086-1.038-.005-1.038-.028 0-.016-.142.028-.315.044-.173.112-.295.152-.271.04.024.063.015.054-.02-.01-.037.01-.208.046-.382.079-.381.123-.744.195-1.581.04-.46.057-.163.066 1.09.012 1.96-.032 1.832.776 2.223.566.274.666.415.722 1.017.052.556.056.561.62.66.13.023.313.09.406.15.16.103.172.191.223 1.714.03.882.041 1.978.026 2.434-.019.538-.035.286-.046-.713zm-1.159-2.85c.082-.133-.101-.284-.21-.175-.092.091-.034.26.088.26.038 0 .093-.039.122-.086zm-5.75 4.142c.057-.023.126-.02.152.006.026.026-.02.045-.104.041-.092-.004-.11-.022-.048-.048zm-.2-2.056a.452.452 0 0 1 .236.003c.054.021-.01.038-.14.036-.13-.001-.174-.02-.097-.04zm9.989-1.507c-.085-.513-.062-1.406.034-1.31.06.06.173.042.392-.064.168-.081.415-.148.547-.148.256 0 .292-.073.159-.322-.154-.288-.008-.688.337-.924a5.29 5.29 0 0 0 .45-.34c.096-.087.16-.098.22-.04.348.35.385.355.596.09l.2-.25-.189-.168c-.142-.127-.185-.242-.176-.47.01-.239.019-.257.045-.085.018.122.083.217.148.217.063 0 .154.087.203.194.07.153.06.252-.045.474-.073.154-.163.28-.199.28-.036 0-.082.179-.103.396-.027.283-.09.44-.22.554-.1.086-.151.157-.114.157.037 0 .028.04-.021.089-.096.095-.047.31.09.404.048.032 0 .059-.106.06-.105 0-.168.023-.14.05.09.09-.103.342-.363.473-.14.07-.441.268-.67.438-.228.17-.414.288-.414.262 0-.026-.104.026-.23.116-.317.226-.375.208-.431-.133zm2.479-.815c0-.046.035-.062.079-.035.043.027.079.065.079.084 0 .02-.036.035-.08.035-.043 0-.078-.038-.078-.084zm-4.703-5.29c-.028-.045.004-.059.074-.032.137.053.162.11.049.11-.041 0-.096-.036-.123-.079zm-6.918-2.008c0-.016.063-.078.139-.138.125-.098.128-.096.03.03-.104.132-.169.173-.169.108zm8.728-1.808-.15-.178.177.151c.098.083.178.163.178.178 0 .063-.063.016-.205-.15zm-2.64-.326c0-.016.062-.079.138-.138.125-.099.128-.096.03.03-.104.131-.169.173-.169.108zm2.835-.267c-.098-.125-.095-.128.03-.03.132.104.174.169.108.169-.016 0-.078-.063-.138-.139zm-.837-.85c0-.217.016-.296.034-.176.019.12.018.298 0 .395-.02.097-.034-.001-.034-.218z" style="fill:#25768a;fill-opacity:1;stroke-width:.999765"/>
				<path id="path3100" d="M71.158 238.023c.88-.012 2.32-.012 3.201 0 .88.013.16.023-1.6.023-1.761 0-2.482-.01-1.601-.023zm-2.649-2.213c2.294-.012 6.047-.012 8.34 0 2.294.011.417.02-4.17.02s-6.463-.01-4.17-.02zm2.918-2.154c0-.11.018-.154.04-.1a.305.305 0 0 1 0 .198c-.022.055-.04.01-.04-.098zm-3.47-.452c.119-.018.314-.018.434 0s.022.033-.217.033c-.24 0-.337-.015-.218-.033zm-2.048-1.683c0-.37.013-.52.03-.336.017.185.017.487 0 .672-.017.185-.03.034-.03-.336zm8.2-.994c.003-.093.022-.111.047-.048.023.057.02.125-.006.151-.026.027-.045-.02-.041-.104zm-2.925-.554c.003-.092.022-.11.047-.048.023.057.02.126-.006.152-.026.026-.045-.02-.041-.104zm-5.086-.638a.305.305 0 0 1 .198 0c.054.021.01.04-.099.04-.108 0-.153-.018-.099-.04zm-.19-.66c0-.37.014-.52.03-.336.018.185.018.488 0 .672-.016.185-.03.034-.03-.336zm5.287-1.118c-.019-.14-.36-.502-.474-.502-.189 0-.334-.285-.334-.657 0-.455-.07-.532-.553-.603-.311-.045-.594-.098-1.324-.248-.098-.02-.173-.062-.169-.094a1.848 1.848 0 0 0-.006-.256c-.013-.183-.02-.186-.082-.04-.047.108-.07-.034-.074-.444l-.006-.604-.355-.09-.356-.089v-.65c-.001-.359-.023-.781-.05-.94-.047-.286-.05-.288-.72-.468-.586-.158-.717-.169-1.024-.087-.392.105-.495.077-.462-.126.013-.076-.023-.251-.08-.39-.095-.233-.087-.267.093-.448.159-.158.175-.209.085-.262a.706.706 0 0 1-.203-.24c-.096-.183-.327-.17-.327.017 0 .055-.05.12-.11.143-.075.03-.097-.003-.07-.104.02-.081.09-.167.152-.191.117-.045.367-.543.38-.758a.97.97 0 0 0-.05-.29c-.038-.118-.008-.234.095-.365.083-.106.127-.217.097-.247s.01-.03.088 0c.114.044.121.07.038.126-.078.053-.064.066.052.05.258-.034.586.323.72.782.118.407.267.56.27.28.003-.205.297-.818.454-.945a3.7 3.7 0 0 1 .519-.296l.381-.185-.287-.095c-.501-.165-.974-.704-.92-1.048.005-.032-.028-.06-.074-.06s-.059-.04-.028-.09c.031-.05-.009-.14-.09-.198-.134-.098-.127-.107.088-.112.302-.008.71-.252.695-.418-.012-.151.179-.177.232-.03.029.077.06.076.145-.006.092-.088.087-.12-.03-.207-.118-.086-.122-.117-.03-.193.06-.05.158-.073.218-.051.162.06.329-.077.352-.287.011-.102.027-.221.035-.264.014-.074.12.276.192.632.017.087.08.318.14.514.125.402.055 1.685-.143 2.648-.035.174-.056.345-.047.381.01.036-.014.046-.053.021-.04-.024-.108.098-.152.27-.044.174-.053.316-.021.316.08 0 .053.952-.033 1.14-.06.128-.044.144.102.105.267-.07.203.001-.148.162l-.32.147.317.143c.373.168.511.31.615.635.042.13.109.24.149.243.206.016.587.266.918.604.204.208.428.378.498.378s.106.036.08.08c-.028.043.01.078.085.078.16 0 .82.32.803.388-.007.026.03.126.084.223.07.127.091.609.075 1.739-.013.86-.032 1.505-.042 1.433zm-5.287-.937c0-.326.014-.46.03-.296.018.163.018.43 0 .593-.016.163-.03.03-.03-.297zm8.245-.288c-.028-.201-.045-.886-.039-1.521.007-.636.027-1.057.045-.938.04.26.12.27.425.054.126-.09.23-.14.23-.112 0 .028.138-.058.308-.192.169-.134.367-.244.44-.244.278 0 .745.38.751.613.004.158.16.114.16-.046 0-.17.283-.447.534-.524.197-.06.243-.201.066-.201-.166 0-.615-.478-.567-.603.023-.06.012-.109-.025-.109-.109 0-.155-.294-.061-.388.047-.047.055-.086.018-.086-.037 0 .014-.07.114-.157.13-.113.193-.27.22-.554.021-.217.067-.395.103-.395.036 0 .126-.127.199-.281.105-.222.115-.321.045-.474-.049-.107-.143-.194-.209-.194-.103 0-.12-.218-.12-1.576 0-.947.034-1.665.086-1.798.116-.301.169-.506.18-.71.006-.093.037-.153.07-.133.033.02.06-.046.062-.146.003-.173.01-.17.126.043.105.194.157.22.359.179.237-.047.543.128.39.223-.04.025-.09 0-.11-.054-.03-.08-.058-.079-.143.001-.089.084-.069.134.12.297.266.227.414.244.608.069.077-.07.18-.114.228-.098.147.05-.255.563-.586.749l-.306.171.268.138c.311.16.62.468.634.633.006.063.014.156.02.207.005.05.06.108.12.128.063.022.087.001.057-.048-.029-.047-.003-.202.057-.346l.11-.261.105.223c.09.189.088.234-.009.295-.087.055-.09.072-.01.073.216.002.309.204.29.626-.02.394 0 .442.287.738.31.32.377.456.223.456-.046 0-.062-.034-.037-.075.026-.042-.03-.116-.123-.166-.094-.05-.149-.056-.122-.014.071.116-.228.457-.5.57-.246.101-.312.263-.15.364.055.034.07.022.039-.03-.09-.144.072-.176.252-.05a.975.975 0 0 1 .256.28c.084.157.082.157-.138.02-.122-.077-.2-.113-.172-.08.028.033-.026.143-.121.246-.128.138-.177.3-.19.634-.011.247-.072.55-.137.675a1.21 1.21 0 0 0-.117.466.398.398 0 0 1-.2.37c-.11.073-.192.19-.18.26a.394.394 0 0 1-.047.234c-.041.066-.03.13.027.166.098.06-.015.113-.706.327l-.356.11-.024.465c-.022.43-.033.453-.145.316-.118-.144-.12-.144-.073.002.04.127.03.134-.073.05-.1-.083-.12-.078-.12.03 0 .071-.089.164-.198.205-.108.042-.197.108-.197.147 0 .062-.215.163-.418.198-.034.006-.09.057-.126.114-.035.057-.112.092-.171.079-.06-.013-.11.023-.112.081-.002.058-.092.155-.2.215-.18.099-.183.11-.04.121.25.02-.264.132-.653.143-.184.005-.336.044-.336.088 0 .043-.048.079-.107.079-.069 0-.127-.134-.158-.367zm1.314-1.261c.026-.026.029-.095.007-.153-.051-.132-.265-.06-.265.09 0 .11.17.152.258.063zm2.987-1.969c-.006-.117-.183-.095-.224.028-.022.066.014.096.097.079.072-.015.13-.063.127-.107zm3.343 2.846c0-.348.014-.48.031-.294s.017.47 0 .632c-.017.162-.031.01-.03-.338zm-17.991-.645a.305.305 0 0 1 .198 0c.054.022.01.04-.1.04-.108 0-.152-.018-.098-.04zm2.103-.936c0-.391.013-.561.03-.378.016.184.017.504 0 .712-.016.208-.03.057-.03-.334zm15.886-.197c0-.283.015-.399.032-.257.018.14.018.372 0 .513-.017.142-.032.026-.032-.256zm-17.1-3.207c0-.067.036-.1.08-.073.045.027.06.083.035.123-.067.11-.115.09-.115-.05zm17.076-.383c.051-.052.105-.052.156 0 .051.05.025.077-.078.077-.102 0-.129-.026-.078-.077zm-9.813-1.213c-.098-.125-.096-.128.03-.03.131.104.173.169.108.169-.016 0-.078-.063-.138-.139zm-6.49-1.328c-.029-.03.003-.14.072-.245.069-.105.144-.172.166-.15.047.047.333-.265.333-.364 0-.037.04-.067.089-.067.065 0 .065.028 0 .106-.048.059-.064.13-.036.158.029.029.009.052-.044.052-.054 0-.078.032-.054.07.045.073-.094.222-.232.248a.072.072 0 0 0-.057.091c.012.043-.012.057-.052.031-.041-.025-.087-.008-.103.039-.015.047-.052.06-.082.031zm6.797-.328a.854.854 0 0 1 .316.002c.076.02-.004.035-.178.034-.174 0-.236-.017-.138-.036zm.712 0a.854.854 0 0 1 .316.002c.076.02-.005.035-.179.034-.174 0-.236-.017-.137-.036zm7.993-1.269c-.099-.125-.096-.128.03-.03.076.06.138.122.138.139 0 .065-.065.023-.168-.109zm-7.89-4.492c.005-.092.023-.111.049-.048.022.057.02.125-.007.151-.026.027-.045-.02-.041-.103z" style="fill:#205a75;fill-opacity:1;stroke-width:.999765"/>
				<path id="path3102" d="M68.97 237.483c.004-.092.023-.11.048-.048.023.057.02.125-.006.152-.026.026-.045-.02-.042-.104zm-5.375-2.372c.004-.092.022-.11.048-.047.022.057.02.125-.007.151-.026.026-.045-.02-.041-.104zm-.14-1.91c.818-.013 2.135-.013 2.925 0s.122.024-1.487.024-2.256-.011-1.438-.024zm5.69 0c.251-.015.643-.015.87.001.226.016.02.029-.458.029-.478 0-.664-.014-.412-.03zm6.519 0c.402-.014 1.06-.014 1.462 0 .402.015.073.027-.731.027-.805 0-1.134-.012-.731-.027zm2.448.002c.14-.017.39-.017.554 0 .164.017.049.031-.255.032-.305 0-.439-.014-.299-.032zm2.418-.002a39.952 39.952 0 0 1 1.818 0c.486.014.066.026-.934.026s-1.398-.012-.884-.026zm-2.248-2.608c-.098-.126-.096-.129.03-.03.131.103.173.168.108.168-.016 0-.078-.062-.138-.139zm-4.154-.692c0-.304.015-.42.032-.255.017.164.017.413 0 .553-.018.14-.032.006-.032-.298zm-3.057.003c-.026-.068-.075-.118-.109-.113-.172.028-.33-.023-.484-.156-.165-.143-.17-.205-.17-1.9 0-1.743-.001-1.752-.178-1.823-.11-.044-.13-.074-.055-.077.213-.009.312.173.312.57 0 .345.135.63.31.657.45.068.566.452.534 1.767-.027 1.083-.064 1.327-.16 1.075zm3.147-.655c-.033-.076-.069-.796-.08-1.6-.011-.805-.004-1.348.016-1.206.022.153.083.257.15.257.063 0 .114-.036.114-.08 0-.043.143-.078.317-.078h.316v.738c0 .406-.023 1.01-.051 1.342-.048.57-.06.601-.223.56a.27.27 0 0 0-.275.081c-.133.16-.21.156-.284-.015zm5.724-.395c-.098-.126-.096-.128.03-.03.131.103.173.168.108.168-.016 0-.078-.062-.138-.138zm-6.931-.455c.002-.13.02-.174.04-.097a.453.453 0 0 1-.004.237c-.021.054-.038-.009-.036-.14zm-9.322-.672c0-.195.016-.275.034-.178.02.098.02.258 0 .356-.018.098-.034.018-.034-.178zm.854-1.153c.004-.092.023-.11.048-.047.023.057.02.125-.006.151-.026.026-.045-.02-.042-.104zm-.854-.27c0-.195.016-.275.034-.177.02.097.02.257 0 .355-.018.098-.034.018-.034-.178zm11.505.184c.057-.023.125-.02.152.006.026.026-.02.045-.104.041-.092-.004-.11-.022-.048-.048zm.225-.09c-.132-.055-.126-.07.06-.155.113-.052.196-.139.185-.194-.011-.055.03-.09.091-.076a.179.179 0 0 0 .175-.08c.035-.056.092-.107.126-.113.203-.035.418-.136.418-.198 0-.04.089-.106.197-.147.11-.041.198-.134.198-.205 0-.108.02-.113.12-.03.102.084.113.076.073-.05-.046-.143-.042-.143.077.004.081.099.125.31.125.596v.443l-.612.098c-1.032.164-1.083.169-1.233.106zm-10.866-.212c.001-.13.019-.174.039-.097a.451.451 0 0 1-.003.237c-.022.053-.038-.01-.036-.14zm-.663-.252c.057-.023.125-.02.151.006.027.027-.02.045-.103.042-.092-.004-.111-.023-.048-.048zm5.77-.158c.058-.023.126-.02.152.006.026.026-.02.045-.104.042-.092-.004-.11-.023-.047-.048zm-.953-.156a.305.305 0 0 1 .198 0c.054.022.01.04-.1.04-.108 0-.152-.018-.098-.04zm-.5-.131c-.021-.057-.005-.19.038-.296.075-.19.077-.19.082-.015.002.098.002.2-.002.228-.004.028.04.08.099.118.08.05.072.067-.036.068-.077 0-.158-.046-.18-.103zm-4.518-.528c0-.196.016-.276.034-.178.02.098.02.258 0 .355-.018.098-.034.018-.034-.177zm13.575-.47c0-.042.035-.097.078-.123.045-.028.059.004.032.074-.053.137-.11.162-.11.048zm.539-.297c.057-.022.125-.02.151.006.027.027-.02.045-.103.042-.092-.004-.111-.023-.048-.048zm.557-.174c.086-.055.087-.076.006-.103-.068-.022-.078-.072-.03-.148a.405.405 0 0 0 .05-.24c-.012-.07.07-.187.18-.26a.399.399 0 0 0 .2-.37c0-.132.053-.341.117-.466.065-.124.126-.428.136-.675.014-.333.063-.496.191-.634.095-.102.15-.21.121-.241-.028-.03.028-.014.125.036a.73.73 0 0 1 .263.255c.092.172.173.15.203-.056.037-.254.11-.344.394-.49l.292-.15-.255-.089c-.163-.057-.234-.122-.197-.182.035-.057.024-.073-.028-.04-.047.029-.108.016-.136-.028-.027-.044-.012-.08.034-.08.154 0 .087-.136-.223-.456-.287-.296-.306-.344-.288-.737.02-.423-.073-.624-.289-.627-.08 0-.077-.018.01-.073.096-.06.098-.108.013-.294-.092-.203-.083-.236.108-.4.115-.1.278-.18.362-.18.246 0 .178-.106-.176-.276a.865.865 0 0 1-.474-.486c-.115-.26-.178-.321-.3-.29a.556.556 0 0 0-.247.152c-.125.15-.332.137-.528-.033-.163-.141-.163-.144-.01-.24.137-.085.142-.111.04-.212-.076-.077-.195-.1-.355-.067-.208.041-.255.018-.34-.167l-.097-.214-.086.304c-.074.26-.082.196-.056-.447a5.659 5.659 0 0 0-.087-1.305c-.064-.304-.11-.561-.1-.572.02-.022.88.414 1.35.684.727.419 1.392.953 2.182 1.753.768.78 1.739 2.058 1.781 2.348.01.066.05.14.088.167.093.063.443.796.474.992.013.086.054.174.091.198.037.024.093.168.126.32.032.152.087.312.121.355a.286.286 0 0 1 .064.14c0 .199.116.696.17.73.036.022.047.11.024.198-.023.09-.002.158.049.158.077 0 .046.362-.04.464-.014.017-.306-.016-.65-.071l-.625-.102-.296.329-.297.328h-1.958v.653l-.001.652-.573.178c-.6.186-.803.221-.623.107zm3.647-3.285a.216.216 0 0 0-.086-.167c-.111-.069-.264.084-.195.195.078.126.281.105.281-.028zm-.948-1.546c0-.087-.034-.158-.075-.158-.106 0-.18.144-.123.237.083.134.198.088.198-.079zm-13.66 4.012.017-.81.026.748c.017.473.062.77.122.81.066.04.052.06-.043.061-.124.001-.136-.083-.122-.809zm-5.745.127c.036-.08.07-.327.077-.547.007-.22.036-.44.065-.486a.644.644 0 0 0 .052-.272c0-.102.018-.292.04-.423l.071-.434c.057-.362.304-1.143.455-1.443.083-.163.132-.297.11-.297-.038 0 .492-1.066.668-1.343.837-1.326 1.892-2.512 2.887-3.246.26-.193.492-.37.513-.396a.595.595 0 0 1 .159-.1c.065-.03.225-.123.355-.207.452-.29 1.305-.72 1.306-.658 0 .034.04.008.086-.057.069-.095.074-.087.028.039a4.743 4.743 0 0 0-.283 1.579c-.007.46-.026.57-.07.397-.06-.24-.076-.226-.112.106-.024.215-.188.343-.37.286-.07-.022-.172.014-.227.08-.054.066-.13.1-.168.077-.038-.024-.048.012-.022.08.026.067.011.122-.032.122s-.074.059-.068.13c.014.16-.39.41-.674.418-.168.005-.222.054-.263.243-.029.13-.089.237-.134.237-.044 0-.06.055-.034.123.031.08.016.103-.044.066-.06-.038-.075-.014-.043.07.034.09.015.115-.065.084-.063-.024-.115-.002-.115.048 0 .051-.034.072-.075.046-.073-.045-.29.26-.26.366.007.028-.133.11-.313.182l-.327.131.388.198c.214.11.309.181.21.16-.226-.047-.426.213-.347.453.079.238.06.362-.104.721-.08.174-.14.342-.134.373.006.03-.041.036-.106.011-.066-.025-.118 0-.118.056s-.056.163-.124.238c-.114.126-.11.142.04.19.093.03.163.12.163.21 0 .086.036.135.08.108.043-.027.078.01.078.084 0 .106.023.114.112.04.09-.075.124-.057.17.09.033.1.065.27.073.379.01.166.05.195.244.185l.231-.012-.26.113c-.145.062-.296.092-.337.067-.04-.026-.075-.012-.075.03 0 .041-.097.111-.217.155-.93.34-2.726 1.048-2.941 1.16-.254.13-.261.13-.199-.01zm1.381-2.676a.119.119 0 0 0-.118-.119.119.119 0 0 0-.119.119.119.119 0 0 0 .237 0zm1.146-1.62c0-.065-.062-.13-.138-.144-.097-.019-.138.024-.138.143 0 .12.041.162.138.143.076-.014.138-.079.138-.143zm2.239 2.791c.057-.023.125-.02.151.006.026.026-.02.045-.104.041-.092-.004-.11-.022-.047-.047zm12.636-1.105c-.074-.074-.066-.185.013-.185.037 0 .066.054.066.119 0 .134-.006.139-.079.066zm.817-.822c0-.046.036-.062.079-.035.043.027.08.065.08.084 0 .019-.037.035-.08.035-.043 0-.079-.038-.079-.084zm-6.941-1.3c.002-.13.02-.174.04-.097a.453.453 0 0 1-.004.237c-.021.054-.038-.009-.036-.14zm5.874-.354c-.027-.045.004-.059.075-.032.137.053.162.11.048.11-.04 0-.096-.036-.123-.078zm-13.241-.27c0-.016.053-.073.118-.127.069-.056.119-.064.119-.018 0 .044-.053.101-.119.126-.065.025-.118.033-.118.018zm7.907-.364c0-.065.035-.172.077-.237.068-.105.077-.105.077 0a.523.523 0 0 1-.077.237c-.068.106-.077.106-.077 0zm-5.993-1.375c.056-.061.114-.099.13-.084.046.044-.073.194-.155.194-.042 0-.031-.05.025-.11zm2.829-1.436c0-.068.036-.1.08-.073.044.027.06.082.035.123-.068.11-.115.09-.115-.05zm2.752-1.432c.057-.023.125-.02.151.006.027.026-.02.045-.103.041-.093-.004-.111-.022-.048-.048z" style="fill:#1e3e55;fill-opacity:1;stroke-width:.999765"/>
				<path id="path3104" d="M72.639 211.6c-.28 0-.42.193-.42.572.001.68-.002.693-.2.693-.131 0-.377.196-.811.644a29.31 29.31 0 0 1-.801.805.571.571 0 0 0-.177.364c.001.16.017.178.078.084.069-.106.113-.057.088.1-.005.032.116.059.268.059.152 0 .276.026.276.059s.055.362.123.731c.067.37.156.886.197 1.146.128.817.252 1.377.303 1.37.027-.002.218-.001.425.005.374.009.375.01.375.286 0 .263-.013.277-.277.277-.23 0-.276.028-.276.168 0 .093.124.286.276.43l.277.26v11.481l-.23.08c-.126.045-.322.214-.435.376-.192.278-.204.352-.204 1.251 0 .78-.023.964-.12 1.002-.065.025-.16.135-.21.245l-.091.2h-3.39l-1.135.001 1.528 1.501h9.429l1.476-1.5-1.312-.002c-3.329 0-3.4-.003-3.448-.158a.48.48 0 0 0-.203-.24c-.138-.073-.153-.173-.153-1.035 0-1.063-.078-1.3-.52-1.575l-.245-.15-.052-1.912a284.39 284.39 0 0 1-.053-5.752v-3.841l.232-.198c.128-.109.244-.286.258-.395.022-.177-.007-.2-.272-.222-.227-.02-.297-.06-.297-.172 0-.335.082-.397.523-.397.234 0 .426-.03.426-.067 0-.09.379-2.321.482-2.838.079-.398.093-.415.338-.415.27 0 .445-.117.445-.299 0-.06-.362-.48-.805-.933-.645-.661-.848-.823-1.027-.823h-.224v-.585c0-.622-.037-.68-.435-.68zm.465 1.762c.124-.003.272.103.6.416.262.25.477.486.477.523 0 .036-.675.066-1.501.066-.826 0-1.503-.03-1.503-.067 0-.038.183-.251.407-.475.392-.392.422-.407.85-.408a3.422 3.422 0 0 0 .67-.055zm-1.662 1.559h1.212c.916 0 1.211.024 1.211.098 0 .11-.296 1.95-.365 2.27-.034.157-.024.175.042.082.073-.103.084-.101.085.014a.432.432 0 0 1-.123.257c-.095.095-.294.125-.832.125-.687 0-.71-.006-.785-.203a1.337 1.337 0 0 1-.08-.376c-.001-.095-.083-.644-.183-1.22zm11.78 5.64c-.012-.002-.02.027-.023.084-.003.084.015.13.042.104.026-.026.029-.095.006-.152-.01-.023-.018-.035-.025-.036zm.08.316c-.013-.002-.021.027-.024.085-.003.083.015.13.042.103.026-.026.029-.094.006-.151-.01-.024-.018-.036-.025-.037zm.075.395c-.01.004-.017.033-.02.085-.003.083.016.13.042.103.026-.026.029-.094.006-.151-.011-.028-.02-.04-.028-.037zm-21.502.237c-.01.004-.017.033-.02.085h.001c-.003.083.015.13.041.103.027-.026.03-.094.007-.151-.012-.028-.022-.04-.03-.037zm21.578.165c-.01.002-.013.038-.016.104-.008.206-.05.211-.783.085l-.543-.093-.298.33-.298.33h-1.958v1.312l-.297.087c-.163.048-.634.183-1.047.299-.413.116-.796.268-.85.339-.064.083-.099.412-.099.943v.815h-.2c-.111 0-.458.05-.771.113-.314.062-.721.136-.906.165l-.336.052v.732c0 .403-.023 1.005-.051 1.339-.047.551-.065.602-.204.558-.091-.03-.213.007-.305.09-.19.171-.244.12-.321-.304-.046-.249-.052-.193-.025.22.02.304.035.751.036.994 0 .39.023.452.19.528.104.048.287.215.406.371.21.274.216.315.203 1.19l-.013.905 1.999.023c1.099.013 2.007.03 2.018.04.01.011.02-.495.02-1.123v-1.143l-.343-.152c-.917-.405-.949-1.724-.053-2.187a1.247 1.247 0 0 1 1.196.074c.721.49.719 1.494-.005 2.03l-.242.179V233.18h.514l.871-.885-.946-.024.472-.478c.704-.713 1.307-1.458 1.18-1.458-.03 0 .02-.063.11-.139.225-.192.98-1.67 1.232-2.412.115-.338.303-1.014.419-1.502.193-.818.209-1.02.206-2.549-.002-.96-.039-1.76-.088-1.897-.04-.114-.062-.166-.074-.163zm-17.497.047-1.124.44a175.5 175.5 0 0 1-1.876.72c-.413.154-.889.35-1.058.435l-.306.156.053.764c.151 2.157.709 3.996 1.73 5.704.49.82 1.611 2.157 1.744 2.081.05-.028.064-.022.031.014-.032.035-.019.112.03.17.051.063-.078.09-.65.1l.886.871c.247 0 .452.002.722.003l4.249.003v-.916c0-1.036.08-1.268.528-1.508.221-.12.262-.185.261-.42-.001-.294-.096-.51-.233-.526l-.188-.02c-.059-.004-.183-.076-.277-.157-.165-.143-.17-.204-.17-1.899v-1.751l-.181-.069c-.1-.038-.57-.135-1.047-.215l-.867-.147-.04-.712-.039-.711-.376-.073-.375-.072-.01-.837c-.005-.46-.004-.876.002-.925.013-.106-.253-.216-.923-.38zm-4.152.272c-.013.003-.02.046-.02.12v.001c0 .11.017.154.039.1a.306.306 0 0 0 0-.199c-.007-.017-.014-.024-.02-.022zm-.073.609c-.011-.002-.02.065-.02.184 0 .174.015.255.035.18a.865.865 0 0 0 .001-.317c-.006-.03-.011-.046-.016-.047zm18.458.777h.87v1.344h-.87v-.672zm1.581 0h.87v1.344h-.382c-.21 0-.406-.024-.435-.053-.03-.029-.053-.331-.053-.672zm-15.889.316h.87v1.422h-.87v-.71zm-1.344.862v.799h-.397c-.441 0-.5-.062-.458-.487.025-.26.033-.265.44-.289zm15.652.719h.87v1.344h-.87v-.672zm1.581 0h.87v1.344h-.382c-.21 0-.406-.024-.435-.053-.03-.029-.053-.33-.053-.671zm-15.715.61a3.61 3.61 0 0 1 .294.01l.402.028V227.253h-.87v-.659c0-.362.015-.674.033-.692.01-.009.062-.014.141-.015zm-2.102.063c.085 0 .189.006.29.017l.367.042-.007.345-.007.346h-.411c-.227 0-.436-.024-.465-.053-.096-.096-.055-.64.052-.681a.648.648 0 0 1 .181-.016zm4.616.75h.869v1.344h-.869v-.672zm-4.032.624v.799h-.397c-.441 0-.5-.06-.458-.486.025-.26.033-.265.44-.289zm11.62.008h.87v1.344h-.87v-.672zm-10.276.632h.87v1.424h-.383c-.21 0-.405-.024-.434-.053-.03-.03-.053-.35-.053-.712zm2.688.87h.869v1.344h-.869v-.672zm2.648.097c-.01.005-.018.085-.018.22 0 .195.015.275.034.177a1.125 1.125 0 0 0 0-.355c-.006-.031-.011-.044-.016-.042zm-5.336 1.721h.87v1.502h-.87v-.75z" style="fill:#1d2740;fill-opacity:1;stroke-width:.999765"/>
			</g>
		</symbol>
		<symbol id="pole_south" >
			<path d="m83.845 216.728-3.32 4.822a13.493 13.483 0 0 1 2.193-.201 13.493 13.483 0 0 1 6.841 1.89l.956-1.5 39.022 9.122zm-14.319 20.798-6.73 9.777 14.794-.003a13.493 13.483 0 0 1-8.064-9.775zm24.139 5.154a13.493 13.483 0 0 1-5.813 4.619l94.772-.017-14.748-4.562z" style="fill:#0096da;fill-opacity:1;stroke:#0096da;stroke-width:.265;stroke-linecap:butt;stroke-linejoin:miter;stroke-dasharray:none;stroke-opacity:1" transform="translate(-62.543 -216.572)"/>
			<text xml:space="preserve" x="117.939" y="195.472" style="font-size:15.6662px;line-height:1.25;font-family:sans-serif;fill:#0096da;fill-opacity:1;stroke:#0096da;stroke-width:.665;stroke-dasharray:none;stroke-opacity:1" transform="matrix(.81284 0 0 1.23026 -62.543 -216.572)">
				<tspan x="117.939" y="195.472" style="font-style:normal;font-variant:normal;font-weight:400;font-stretch:normal;font-family:Constantia;-inkscape-font-specification:Constantia;fill:#0096da;fill-opacity:1;stroke:#0096da;stroke-width:.665;stroke-dasharray:none;stroke-opacity:1">-
				</tspan>
			</text>
		</symbol>
		<symbol id="a-envelope" viewBox="0 -7 46 40">
			<path d="M38.667 0H4C1.794 0 0 1.794 0 4v24c0 2.206 1.794 4 4 4h34.667c2.206 0 4-1.794 4-4V4c0-2.206-1.794-4-4-4zm0 2.667c.181 0 .353.038.511.103L21.334 18.236 3.49 2.77a1.32 1.32 0 0 1 .511-.103h34.667zm0 26.666H4A1.334 1.334 0 0 1 2.667 28V5.587L20.46 21.008a1.335 1.335 0 0 0 1.748 0L40.001 5.587V28c0 .736-.598 1.333-1.333 1.333z"/>
		</symbol>
		<symbol id="a-smartphone" viewBox="0 -3 20 36">
			<path d="M17 0H3C1.346 0 0 1.346 0 3v26c0 1.654 1.346 3 3 3h14c1.654 0 3-1.346 3-3V3c0-1.654-1.346-3-3-3zM3 2h14a1 1 0 0 1 1 1v21H2V3a1 1 0 0 1 1-1zm14 28H3a1 1 0 0 1-1-1v-3h16v3a1 1 0 0 1-1 1z"/>
			<path d="M4.707 27.478c.391.365.391.956 0 1.321s-1.024.365-1.414 0c-.391-.365-.391-.956 0-1.321s1.024-.365 1.414 0z"/>
		</symbol>
		<symbol id="Client-1" viewBox="0 0 28 32">
			<path d="m4.085 0 4.771 4.517L0 4.512v21.915h23.149v-8.379l4.766 4.512V.001H4.085zm18.854 17.517L9.411 4.71h13.528v12.807zm-4.2 5.704H3.663V8.482h1.066v13.741h14.01v.998zM7.223 29.344l-.557 1.147-.557-1.147h-.467l.813 1.529v.891h.422v-.891l.811-1.529h-.465zm.7 2.42.196-.563h.938l.198.563h.439l-.916-2.42h-.377l-.914 2.42h.437zm.665-1.906.351 1.004h-.701l.351-1.004zm2.217.946a.55.55 0 0 0-.091.307c0 .204.072.37.214.497.144.126.336.189.575.189s.445-.065.618-.194l.136.161h.469l-.356-.421c.14-.191.209-.435.209-.733h-.351a.973.973 0 0 1-.101.444l-.467-.552.165-.12a.905.905 0 0 0 .251-.253.532.532 0 0 0 .076-.279.496.496 0 0 0-.17-.384.61.61 0 0 0-.432-.156.641.641 0 0 0-.465.166.591.591 0 0 0-.173.449c0 .078.018.158.055.241.038.083.104.184.198.303-.18.129-.3.24-.361.334zm1.092.535a.616.616 0 0 1-.382.136c-.121 0-.217-.035-.289-.105s-.108-.161-.108-.273c0-.13.067-.245.2-.346l.052-.037.529.623zm-.434-1.072c-.114-.141-.171-.258-.171-.351 0-.081.023-.148.07-.201s.109-.08.188-.08c.073 0 .133.023.181.068a.21.21 0 0 1 .072.161.298.298 0 0 1-.103.234l-.052.042-.184.126zm3.94 1.314c.166-.145.262-.347.286-.605h-.419c-.022.173-.075.296-.158.371s-.207.111-.372.111a.468.468 0 0 1-.412-.206c-.093-.137-.14-.337-.14-.598v-.214c.002-.258.052-.454.15-.587a.493.493 0 0 1 .422-.201c.157 0 .277.039.357.116.082.076.133.202.153.376h.419c-.027-.265-.121-.47-.284-.615s-.378-.218-.645-.218a.978.978 0 0 0-.525.141c-.151.094-.267.228-.347.402s-.121.375-.121.603v.226c.003.223.045.418.125.587s.193.299.339.391a.949.949 0 0 0 .51.136c.276 0 .497-.072.663-.216zm2.472-.339c.082-.18.123-.388.123-.625v-.135a1.462 1.462 0 0 0-.126-.62.924.924 0 0 0-.878-.552.957.957 0 0 0-.525.145.939.939 0 0 0-.354.414 1.484 1.484 0 0 0-.125.625v.136c.001.232.043.436.126.613a.962.962 0 0 0 .356.411.98.98 0 0 0 .525.143.97.97 0 0 0 .525-.143.932.932 0 0 0 .352-.412zm-.451-1.368c.102.143.153.349.153.617v.126c0 .273-.05.48-.151.622a.493.493 0 0 1-.429.213.503.503 0 0 1-.432-.218c-.103-.145-.155-.351-.155-.617v-.14c.002-.26.054-.462.156-.603a.496.496 0 0 1 .427-.214c.186 0 .33.072.43.214z"/>
		</symbol>
		<symbol id="Client-2" viewBox="0 0 25 32">
			<path d="M10.531 1.806h-.084a9.985 9.985 0 0 0-.388-.014h-.28c-.244 0-.494.006-.741.019a.523.523 0 0 0-.056 0 17.4 17.4 0 0 0-6.471 1.651l-.266.128v13.625l.623-.211a23.32 23.32 0 0 1 1.731-.513 21.155 21.155 0 0 1 4.982-.662v1.79a15.56 15.56 0 0 0-.655.019h-.051a19.948 19.948 0 0 0-3.833.588c-1.59.398-3.124.996-4.566 1.779V2.53A18.3 18.3 0 0 1 5.266.582 18.343 18.343 0 0 1 9.781 0h.263c.314.008.621.022.909.044.759.053 1.511.173 2.249.358v1.762a13.947 13.947 0 0 0-2.179-.329l-.045-.004c-.152-.013-.304-.026-.446-.026zm3.102 1.801c.391.03.796.044 1.205.044a19.352 19.352 0 0 0 4.747-.609c1.589-.4 3.123-.998 4.564-1.781v17.163a18.313 18.313 0 0 1-4.792 1.948 18.486 18.486 0 0 1-4.515.581 13.778 13.778 0 0 1-3.425-.404V3.274c.265.061.537.117.814.164.455.077.934.133 1.401.167zm8.734.133-.623.21c-.573.192-1.15.365-1.731.518a21.098 21.098 0 0 1-5.173.663c-.406 0-.78-.011-1.141-.034l-.497-.033v14.017l.427.038c.395.034.803.052 1.214.052a16.573 16.573 0 0 0 4.074-.527 17.107 17.107 0 0 0 3.184-1.144l.266-.128V3.742zM1.684 25.977a.912.912 0 0 0-.693-.28 1.034 1.034 0 0 0-.4.075.91.91 0 0 0-.512.518 1.023 1.023 0 0 0-.072.387v2.335c-.006.165.026.328.092.479.055.12.135.226.233.313a.815.815 0 0 0 .321.166c.114.032.231.048.349.049a.972.972 0 0 0 .892-.61.951.951 0 0 0 .075-.372v-.261h-.61v.208a.528.528 0 0 1-.036.208.359.359 0 0 1-.089.131.365.365 0 0 1-.128.067.425.425 0 0 1-.128.022.314.314 0 0 1-.286-.125.548.548 0 0 1-.081-.313v-2.177a.738.738 0 0 1 .075-.349.31.31 0 0 1 .299-.141.33.33 0 0 1 .272.131c.068.09.104.2.101.313v.202h.604v-.238a1.093 1.093 0 0 0-.279-.737zM5.31 25.95a1.051 1.051 0 0 0-1.38 0 .961.961 0 0 0-.237.327 1.099 1.099 0 0 0-.089.452v2.239a1.08 1.08 0 0 0 .089.459c.055.12.136.227.237.313a.94.94 0 0 0 .322.197 1.028 1.028 0 0 0 .728 0c.121-.044.233-.111.33-.197a.948.948 0 0 0 .23-.313 1.08 1.08 0 0 0 .089-.459v-2.239a1.08 1.08 0 0 0-.089-.452 1.015 1.015 0 0 0-.23-.327zm-.285 3.019a.405.405 0 0 1-.121.324.445.445 0 0 1-.574 0 .397.397 0 0 1-.121-.324V26.73a.405.405 0 0 1 .121-.324.445.445 0 0 1 .574 0 .397.397 0 0 1 .121.324v2.239zM10.072 29.969V25.73h-.587l-.771 2.244h-.011l-.777-2.244h-.581v4.239h.606V27.39h.011l.593 1.823h.302l.598-1.823h.011v2.579h.606zM13.513 26.027a.84.84 0 0 0-.343-.232 1.363 1.363 0 0 0-.439-.066h-.9v4.239h.604v-1.656h.311c.188.009.376-.031.545-.116a.882.882 0 0 0 .332-.324 1.02 1.02 0 0 0 .139-.369c.024-.16.035-.321.033-.482a2.421 2.421 0 0 0-.059-.606.898.898 0 0 0-.223-.39zm-.312 1.292a.547.547 0 0 1-.056.221.346.346 0 0 1-.156.149.619.619 0 0 1-.285.053h-.275v-1.441h.311a.578.578 0 0 1 .272.053.349.349 0 0 1 .142.157.62.62 0 0 1 .053.236v.282c0 .099.006.2 0 .291h-.006zM16.374 25.73h-.495l-.934 4.239h.604l.177-.911h.823l.177.911h.604l-.957-4.239zm-.557 2.751.297-1.537h.011l.296 1.537h-.604zM20.277 28.284h-.011l-.912-2.554h-.581v4.239h.604V27.42h.012l.923 2.549h.568V25.73h-.604v2.554zM23.968 25.73l-.486 1.685h-.012l-.486-1.685h-.64l.83 2.447v1.792h.604v-1.792l.83-2.447h-.64zM0 31.166h.291v.817h.198v-.817h.29v-.167H.001v.167zM2.447 30.998l-.381.984h.21l.081-.224h.392l.084.224h.215l-.391-.984h-.21zm-.031.595.134-.365.134.365h-.268zM4.866 31.62h.227v.127a.382.382 0 0 1-.234.083.244.244 0 0 1-.209-.093.411.411 0 0 1-.073-.257c0-.219.095-.329.283-.329a.206.206 0 0 1 .222.157l.195-.038c-.042-.192-.181-.289-.417-.289a.495.495 0 0 0-.344.127.494.494 0 0 0-.141.379.532.532 0 0 0 .126.369.477.477 0 0 0 .374.144.59.59 0 0 0 .417-.157v-.388h-.427v.166zM7.337 30.998h-.199v.984h.69v-.167h-.49v-.817zM9.426 30.998h-.199v.984h.199v-.984zM11.469 31.656l-.403-.657h-.193v.984h.185v-.643l.395.643h.198v-.984h-.182v.657zM13.315 31.549h.49v-.167h-.49v-.216h.528v-.167h-.727v.984h.747v-.167h-.548v-.266zM17.792 31.387h-.388v-.388h-.198v.984h.198v-.43h.388v.43h.198v-.984h-.198v.388zM19.649 31.549h.492v-.167h-.492v-.216h.529v-.167h-.727v.984h.746v-.167h-.548v-.266zM22.168 31.549c.171-.027.258-.117.258-.274a.236.236 0 0 0-.096-.219.553.553 0 0 0-.288-.058h-.417v.984h.198v-.412h.039a.261.261 0 0 1 .123.022.21.21 0 0 1 .07.072l.215.313h.237l-.12-.192a.685.685 0 0 0-.218-.236zm-.199-.136h-.146v-.247h.156a.526.526 0 0 1 .201.023c.014.013.026.029.033.046a.133.133 0 0 1-.005.111.128.128 0 0 1-.037.043.547.547 0 0 1-.201.023zM24.067 31.549h.49v-.167h-.49v-.216h.529v-.167h-.729v.984h.747v-.167h-.548v-.266z"/>
		</symbol>
		<symbol id="Client-3" viewBox="0 0 34 32">
			<path d="M5.643 31.315a.095.095 0 0 1 .064.025l.166.159a1.373 1.373 0 0 1-.467.302c-.21.076-.435.113-.663.108a1.77 1.77 0 0 1-.623-.101 1.37 1.37 0 0 1-.469-.285 1.277 1.277 0 0 1-.303-.44 1.472 1.472 0 0 1-.106-.565 1.31 1.31 0 0 1 .436-1.007c.142-.124.312-.222.499-.287.205-.069.422-.103.642-.101.204-.004.407.027.596.092.165.062.316.148.447.255l-.139.17a.173.173 0 0 1-.035.031.097.097 0 0 1-.056.013.136.136 0 0 1-.06-.018l-.075-.045-.104-.058a1.3 1.3 0 0 0-.139-.056 1.46 1.46 0 0 0-.436-.063 1.328 1.328 0 0 0-.461.076c-.136.048-.26.121-.361.213a.987.987 0 0 0-.235.339 1.155 1.155 0 0 0-.085.448 1.17 1.17 0 0 0 .085.455.994.994 0 0 0 .231.338.938.938 0 0 0 .345.209c.136.049.281.073.428.072.085.001.17-.004.253-.014a1.01 1.01 0 0 0 .548-.233.127.127 0 0 1 .079-.029zM10.441 30.517c.003.192-.035.382-.112.561-.068.163-.174.311-.313.436s-.306.222-.491.286a2.02 2.02 0 0 1-1.263 0 1.454 1.454 0 0 1-.488-.287 1.288 1.288 0 0 1-.316-.44 1.462 1.462 0 0 1 0-1.125c.071-.164.178-.314.316-.442.139-.12.305-.214.488-.276a1.992 1.992 0 0 1 1.263 0c.185.065.351.163.49.287.137.125.243.273.314.435.077.181.115.372.112.565zm-.436 0a1.186 1.186 0 0 0-.079-.451.941.941 0 0 0-.222-.338.971.971 0 0 0-.351-.213 1.456 1.456 0 0 0-.918 0 .971.971 0 0 0-.351.213.897.897 0 0 0-.224.338 1.322 1.322 0 0 0 0 .903.926.926 0 0 0 .575.549 1.5 1.5 0 0 0 .918 0 .98.98 0 0 0 .351-.211.933.933 0 0 0 .222-.338c.056-.145.082-.298.079-.451zM13.715 30.99l.044.101c.017-.036.031-.069.048-.101a.95.95 0 0 1 .054-.099l1.062-1.677c.021-.029.039-.047.06-.052a.283.283 0 0 1 .087-.009h.314v2.727h-.372v-2.09a.737.737 0 0 1 0-.094l-1.068 1.7c-.014.025-.035.047-.063.062s-.059.023-.091.023h-.06c-.032 0-.064-.007-.091-.022s-.049-.037-.062-.062l-1.099-1.711v2.189h-.359v-2.722h.314a.28.28 0 0 1 .087.009c.026.011.046.03.058.052l1.084 1.678a.662.662 0 0 1 .054.097zM17.71 30.855v1.021h-.415v-2.723h.926c.175-.003.349.017.517.059.134.033.259.091.366.17a.713.713 0 0 1 .208.267.825.825 0 0 1 .071.348.771.771 0 0 1-.301.621 1.062 1.062 0 0 1-.368.18 1.757 1.757 0 0 1-.501.063l-.503-.007zm0-.293h.503a1.2 1.2 0 0 0 .322-.041.71.71 0 0 0 .233-.117.526.526 0 0 0 .191-.409c.005-.076-.009-.151-.042-.222s-.082-.134-.145-.186a.889.889 0 0 0-.559-.146h-.503v1.122zM23.294 31.88h-.328a.158.158 0 0 1-.091-.025.17.17 0 0 1-.054-.063l-.282-.659H21.12l-.293.659a.152.152 0 0 1-.145.088h-.328l1.246-2.727h.432l1.263 2.727zm-2.057-1.013h1.172l-.494-1.11a1.746 1.746 0 0 1-.093-.256l-.048.143a1.122 1.122 0 0 1-.046.116l-.49 1.108zM25.089 29.165a.178.178 0 0 1 .062.049l1.818 2.056v-2.117h.372v2.727h-.208a.201.201 0 0 1-.085-.016.24.24 0 0 1-.067-.05l-1.816-2.054a.737.737 0 0 1 0 .094v2.027h-.372v-2.727h.22a.191.191 0 0 1 .075.013zM30.402 30.795v1.083h-.415v-1.083l-1.149-1.642h.372a.15.15 0 0 1 .089.023.23.23 0 0 1 .056.061l.719 1.059a1.064 1.064 0 0 1 .127.242l.054-.117a.975.975 0 0 1 .071-.125l.708-1.067a.295.295 0 0 1 .054-.058.14.14 0 0 1 .089-.027h.376l-1.151 1.65zM13.51 24.576c.181.02.364.036.548.051 2.803-1.089 5.174-2.873 6.817-5.126s2.485-4.878 2.421-7.546l-3.089-2.684c.628 2.84.334 5.776-.849 8.479s-3.208 5.067-5.849 6.827z"/>
			<path d="m12.407 24.451.083.014c2.822-1.754 4.974-4.203 6.176-7.03s1.402-5.904.571-8.83l-4.4-3.823c1.78 3.142 2.496 6.659 2.066 10.141s-1.989 6.786-4.496 9.528zM27.328 15.106c-.747 2.931-2.563 5.574-5.177 7.537a16.49 16.49 0 0 1-2.46 1.534c2.128-.544 4.085-1.504 5.718-2.809s2.9-2.917 3.703-4.714l-1.784-1.549z"/>
			<path d="m26.628 14.674-2.541-2.207c-.049 2.517-.872 4.976-2.385 7.123s-3.66 3.902-6.217 5.084h.012c.57 0 1.139-.03 1.705-.088 2.39-.848 4.502-2.196 6.147-3.926s2.771-3.785 3.278-5.985zM12.774 3.17 9.743.533c-2.709.91-5.04 2.509-6.686 4.588S.526 9.663.517 12.187c.01 2.789 1.09 5.495 3.07 7.69s4.745 3.754 7.859 4.43c2.78-2.942 4.407-6.579 4.646-10.38s-.924-7.569-3.319-10.757zM33.63 14.268c-.011-3.309-1.529-6.479-4.221-8.818s-6.342-3.658-10.15-3.668a16.144 16.144 0 0 0-5.146.832L32.67 18.737a10.94 10.94 0 0 0 .96-4.469z"/>
		</symbol>
		<symbol id="Client-4" viewBox="0 0 65 32">
			<path d="M10.016 9.983h-.002c-1.827 0-3.308 1.316-3.308 2.94v.002c0 1.624 1.481 2.94 3.308 2.94h.002c1.827 0 3.308-1.316 3.308-2.94v-.002c0-1.624-1.481-2.94-3.308-2.94zM34.434 9.043c-.005-2.255-1.015-4.417-2.81-6.012S27.398.538 24.86.533c-2.538.004-4.972.902-6.767 2.497s-2.806 3.757-2.811 6.013v12.436s19.149-1.895 19.151-12.434v-.002zM0 25.562c.005 1.569.708 3.073 1.956 4.183s2.94 1.735 4.706 1.74c1.765-.005 3.457-.63 4.705-1.739s1.952-2.613 1.957-4.182V16.91S-.001 18.23-.001 25.562zm6.662 1.55c-.345 0-.682-.091-.969-.261s-.511-.413-.643-.696-.167-.595-.099-.896.233-.577.477-.794.555-.364.893-.424c.338-.06.689-.029 1.008.088s.591.316.783.571a1.404 1.404 0 0 1 .163 1.456c-.087.189-.216.36-.378.505-.162.145-.355.259-.567.338s-.439.119-.669.119v-.006zM20.128 26.258h-1.286v1.328h-.67v-3.25h2.116v.542h-1.446v.839h1.286v.54zm3.218-.223c0 .32-.057.6-.17.842s-.275.427-.487.558c-.21.131-.451.196-.723.196a1.289 1.289 0 0 1-1.212-.748 1.907 1.907 0 0 1-.176-.83v-.161c0-.32.057-.601.172-.844a1.285 1.285 0 0 1 1.212-.756c.271 0 .511.065.721.196.211.129.374.316.489.56.116.242.174.523.174.841v.145zm-.678-.147c0-.341-.061-.6-.183-.777s-.296-.266-.522-.266a.596.596 0 0 0-.52.263c-.122.174-.184.43-.185.768v.158c0 .332.061.589.183.772s.298.275.527.275a.592.592 0 0 0 .518-.263c.121-.177.182-.434.183-.772v-.158zm2.85.846a.342.342 0 0 0-.134-.29c-.089-.068-.25-.14-.482-.214a3.465 3.465 0 0 1-.551-.223c-.369-.199-.554-.468-.554-.806 0-.176.049-.332.147-.469a.985.985 0 0 1 .426-.324c.186-.077.394-.116.625-.116.232 0 .439.042.621.127a.978.978 0 0 1 .422.355.926.926 0 0 1 .152.522h-.67a.434.434 0 0 0-.141-.346c-.094-.083-.225-.125-.395-.125-.164 0-.291.035-.382.105a.323.323 0 0 0-.136.272c0 .106.053.194.158.266.107.071.264.138.471.201.381.115.659.257.833.426s.261.381.261.634a.785.785 0 0 1-.319.663c-.213.159-.499.239-.859.239-.25 0-.478-.045-.683-.136a1.1 1.1 0 0 1-.471-.377.97.97 0 0 1-.161-.554h.672c0 .359.214.538.643.538a.631.631 0 0 0 .373-.096.318.318 0 0 0 .134-.272zm3.574-1.855h-.996v2.708h-.67v-2.708h-.982v-.542h2.647v.542zm2.339 1.299h-1.286v.871h1.509v.538h-2.179v-3.25h2.174v.542h-1.504v.775h1.286v.525zm1.82.218h-.533v1.19h-.67v-3.25h1.208c.384 0 .68.086.888.257s.312.413.312.725a.998.998 0 0 1-.145.556.979.979 0 0 1-.435.353l.703 1.328v.031h-.719l-.609-1.19zm-.534-.542h.54c.168 0 .298-.042.391-.127a.463.463 0 0 0 .138-.355.49.49 0 0 0-.132-.362c-.086-.088-.219-.132-.4-.132h-.538v.975zm4.058.587v1.145h-.67v-3.25h1.268c.244 0 .458.045.643.134a.98.98 0 0 1 .429.382c.1.164.15.35.15.56 0 .318-.109.57-.328.754-.217.183-.519.275-.904.275h-.587zm0-.542h.598c.177 0 .312-.042.404-.125.094-.083.141-.202.141-.357 0-.159-.047-.288-.141-.386s-.223-.149-.388-.152h-.614v1.02zm4.237.279h-1.286v.871h1.509v.538h-2.179v-3.25h2.174v.542h-1.504v.775h1.286v.525zm3.107-1.299h-.995v2.708h-.67v-2.708h-.982v-.542h2.647v.542zm2.339 1.299h-1.286v.871h1.509v.538h-2.178v-3.25h2.174v.542h-1.504v.775h1.286v.525zm1.819.218h-.533v1.19h-.67v-3.25h1.208c.384 0 .68.086.888.257s.313.413.313.725a.998.998 0 0 1-.145.556.979.979 0 0 1-.435.353l.703 1.328v.031h-.719l-.609-1.19zm-.533-.542h.54c.168 0 .298-.042.391-.127a.463.463 0 0 0 .138-.355.49.49 0 0 0-.132-.362c-.086-.088-.219-.132-.4-.132h-.538v.975zm3.935.88a.342.342 0 0 0-.134-.29c-.089-.068-.25-.14-.482-.214a3.465 3.465 0 0 1-.551-.223c-.369-.199-.554-.468-.554-.806 0-.176.049-.332.147-.469a.985.985 0 0 1 .426-.324c.186-.077.394-.116.625-.116.232 0 .439.042.621.127a.973.973 0 0 1 .422.355.926.926 0 0 1 .152.522h-.67a.434.434 0 0 0-.141-.346c-.094-.083-.225-.125-.395-.125-.164 0-.291.035-.382.105a.323.323 0 0 0-.136.272c0 .106.053.194.158.266.107.071.264.138.471.201.381.115.658.257.833.426s.261.381.261.634a.785.785 0 0 1-.319.663c-.213.159-.499.239-.859.239-.25 0-.478-.045-.683-.136a1.1 1.1 0 0 1-.471-.377.97.97 0 0 1-.161-.554h.672c0 .359.214.538.643.538a.634.634 0 0 0 .373-.096.318.318 0 0 0 .134-.272z"/>
		</symbol>
		<symbol id="Client-5" viewBox="0 0 43 32">
			<path d="M3.239 26.373a.98.98 0 0 1 .25.665c.008.158-.022.315-.089.46s-.169.275-.298.38a1.788 1.788 0 0 1-1.125.307H0V23.97h1.937c.382-.023.761.076 1.073.28.125.096.224.217.289.354s.095.286.086.435a.923.923 0 0 1-.225.645 1.06 1.06 0 0 1-.589.329c.262.044.499.172.668.36zM.92 25.737h.828a.835.835 0 0 0 .526-.14c.062-.052.111-.116.141-.187s.043-.148.036-.225c.006-.076-.007-.153-.037-.224s-.078-.135-.138-.188a.858.858 0 0 0-.542-.142H.92v1.106zm1.435 1.616c.066-.053.119-.119.153-.193s.049-.155.043-.235c.005-.081-.01-.163-.045-.238s-.088-.142-.155-.195a.907.907 0 0 0-.562-.152H.921v1.159H1.8a.93.93 0 0 0 .556-.146zM7.197 28.185 6.12 26.538h-.405v1.647h-.927V23.97h1.754c.442-.028.879.1 1.221.358.245.229.393.53.417.85s-.078.637-.287.894a1.46 1.46 0 0 1-.837.428l1.147 1.684H7.195zm-1.482-2.222h.758c.526 0 .789-.213.789-.638a.586.586 0 0 0-.193-.473.87.87 0 0 0-.596-.171h-.767l.009 1.283zM12.262 27.337h-1.847l-.326.848h-.972l1.696-4.168h1.05l1.689 4.168h-.972l-.319-.848zm-.247-.639-.675-1.779-.675 1.779h1.349zM18.602 28.185h-.92l-2.062-2.867v2.867h-.918V23.97h.918l2.062 2.883V23.97h.92v4.215zM23.852 27.176c-.19.318-.48.577-.832.743-.4.185-.845.276-1.293.266H20.09V23.97h1.637c.448-.011.891.078 1.293.259.352.163.642.419.832.735.189.343.288.722.288 1.106s-.099.763-.288 1.106zm-1.053-.101c.263-.28.407-.637.407-1.006s-.144-.726-.407-1.006a1.692 1.692 0 0 0-1.152-.358h-.639v2.729h.639a1.7 1.7 0 0 0 1.152-.358zM12.838.522s11.873 4.104 11.621 10.043V20.61s-11.864-4.106-11.617-10.045L12.837.522zM35.037 18.259c2.242-1.413 4.836-2.288 7.544-2.545v-3.145c-3.12 1.101-5.766 3.097-7.544 5.69z"/>
			<path d="M33.69 19.206c1.835-3.384 5.017-5.995 8.891-7.296V2.849S25.672 8.695 26.03 17.153v14.302s.753-.262 1.939-.752c0-.457 0-.918.054-1.382.35-3.926 2.389-7.565 5.668-10.115z"/>
			<path d="M32.081 24.52a13.62 13.62 0 0 1 .592-2.928c-2.042 2.203-3.278 4.936-3.536 7.815-.025.272-.038.544-.045.824a50.77 50.77 0 0 0 3.252-1.569 13.564 13.564 0 0 1-.263-4.141zM32.754 24.571a12.973 12.973 0 0 0 .209 3.75c4.62-2.531 9.811-6.442 9.611-11.168v-.412c-3.301.338-6.389 1.659-8.79 3.76a13.125 13.125 0 0 0-1.03 4.069z"/>
		</symbol>
		<symbol id="Client-6" viewBox="0 0 67 32">
			<path d="M33.724 15.224a2.095 2.095 0 0 1-.43-1.414v-2.05c0-.628.142-1.106.428-1.433s.775-.489 1.469-.488c.652 0 1.115.139 1.389.417.299.355.444.789.411 1.226v.482h-1.167v-.488a2.476 2.476 0 0 0-.034-.478.467.467 0 0 0-.167-.284.681.681 0 0 0-.423-.111.711.711 0 0 0-.444.117.544.544 0 0 0-.193.313 2.398 2.398 0 0 0-.046.507v2.488c-.018.24.033.48.15.699.058.074.139.132.233.169s.198.05.301.039a.632.632 0 0 0 .413-.113.505.505 0 0 0 .174-.302c.027-.165.039-.332.036-.498v-.505h1.167v.461c.033.456-.109.909-.403 1.289-.268.305-.725.457-1.396.457s-1.179-.163-1.466-.501zM38.583 15.245c-.295-.319-.442-.784-.442-1.4v-2.157c0-.609.147-1.07.442-1.383s.788-.469 1.478-.467c.686 0 1.177.156 1.471.467.295.313.444.774.444 1.383v2.157c0 .609-.15 1.076-.449 1.397s-.788.482-1.466.482c-.679 0-1.181-.163-1.478-.48zm2.022-.518c.106-.2.154-.419.14-.638v-2.641a1.17 1.17 0 0 0-.138-.626c-.059-.075-.142-.135-.238-.172s-.203-.05-.308-.037c-.105-.013-.212 0-.308.037s-.18.096-.24.172a1.15 1.15 0 0 0-.14.626v2.653c-.015.219.033.439.14.638.068.067.152.121.246.158a.82.82 0 0 0 .6 0 .732.732 0 0 0 .246-.158v-.012zM43.38 9.901h1.256l.945 3.979.966-3.979h1.222l.123 5.743h-.904l-.097-3.992-.932 3.992h-.725l-.966-4.006-.089 4.006h-.913l.114-5.743zM49.301 9.901h1.957c1.127 0 1.691.544 1.691 1.631 0 1.041-.593 1.561-1.78 1.56h-.667v2.553h-1.208l.007-5.743zm1.672 2.455c.119.013.24.004.355-.028s.22-.084.309-.154a.928.928 0 0 0 .174-.649 1.801 1.801 0 0 0-.058-.521c-.017-.057-.047-.111-.089-.158s-.093-.086-.153-.116a1.262 1.262 0 0 0-.539-.092h-.469v1.716h.469zM54.691 9.901h1.297l1.331 5.743h-1.126l-.263-1.324h-1.157l-.271 1.324h-1.143l1.331-5.743zm1.109 3.754-.452-2.411-.452 2.411h.903zM58.395 9.901h.846l1.619 3.276V9.901h1.003v5.743h-.804l-1.628-3.42v3.42h-1.036l.002-5.743zM64.209 13.455l-1.346-3.546h1.133l.821 2.277.771-2.277h1.109l-1.329 3.546v2.19h-1.16v-2.19zM35.589 18.156v.3h-.986v2.334h-.413v-2.334h-.99v-.3h2.389zM38.679 20.79h-.319a.139.139 0 0 1-.089-.025.133.133 0 0 1-.053-.06l-.285-.626h-1.367l-.285.626a.172.172 0 0 1-.044.071.152.152 0 0 1-.089.025h-.319l1.208-2.634h.42l1.222 2.624zm-2-.978h1.14l-.483-1.072a1.75 1.75 0 0 1-.089-.248c-.017.05-.031.098-.046.14l-.044.11-.478 1.07zM40.762 20.532c.076.003.151.003.227 0a1.72 1.72 0 0 0 .367-.079c.053-.019.106-.042.162-.065v-.592h-.483c-.012.001-.024-.001-.035-.005s-.021-.009-.03-.016a.062.062 0 0 1-.024-.048v-.202h.937v1.01a1.842 1.842 0 0 1-.51.215c-.099.025-.2.043-.302.054a3.775 3.775 0 0 1-.353.017 1.842 1.842 0 0 1-.609-.098 1.485 1.485 0 0 1-.483-.275 1.293 1.293 0 0 1-.312-.417 1.316 1.316 0 0 1-.111-.547 1.352 1.352 0 0 1 .109-.551c.069-.156.176-.298.312-.417.138-.119.302-.212.483-.273.207-.067.426-.1.647-.098.112 0 .225.008.336.023a1.65 1.65 0 0 1 .53.171c.074.041.144.087.21.138l-.116.163c-.009.015-.023.027-.039.036s-.036.014-.055.014a.16.16 0 0 1-.075-.021 1.582 1.582 0 0 1-.118-.063 1.02 1.02 0 0 0-.162-.071 1.508 1.508 0 0 0-.529-.081 1.407 1.407 0 0 0-.466.073 1.026 1.026 0 0 0-.355.209.918.918 0 0 0-.225.328 1.23 1.23 0 0 0 0 .878.938.938 0 0 0 .242.332c.099.09.219.162.353.209.154.046.316.063.478.052zM44.612 20.49h1.319v.3h-1.722v-2.634h.413l-.01 2.334zM47.304 20.79h-.413v-2.634h.413v2.634zM48.84 18.168a.189.189 0 0 1 .063.048l1.766 1.986a.737.737 0 0 1 0-.094v-1.962h.36v2.645h-.208a.19.19 0 0 1-.089-.015.23.23 0 0 1-.065-.05l-1.764-1.984v2.048h-.345v-2.634h.215c.023 0 .046.004.068.012zM54.07 18.156v.29h-1.464v.87h1.186v.279h-1.186v.899h1.464v.29h-1.889v-2.628h1.889zM10.782 1.888l18.343 4.497v15.757l-18.343-4.494V1.889zM9.605.545v17.867l20.694 5.074V5.621L9.605.545z"/>
			<path d="M20.696 31.781 0 26.702V8.836l20.696 5.076V31.78z"/>
			<path d="m9.948 1.686 18.104 4.44-7.699 6.649L2.247 8.333l7.702-6.647zM9.605.545 0 8.837l20.696 5.076 9.603-8.292L9.605.545zM21.861 30.776l8.438-7.287-8.438-2.071v9.358z"/>
		</symbol>
		<symbol id="g-antenna" viewBox="0 0 32 32">
			<path d="m30.773 22.098-8.443-8.505.937-4.615c.242.094.499.144.758.146h.006a2.159 2.159 0 1 0-2.008-1.435l-4.96.605L8.972.161a.534.534 0 0 0-.377-.16.532.532 0 0 0-.373.155L6.709 1.66a.534.534 0 0 0 0 .754l.814.826a14.943 14.943 0 0 0 2.519 17.663.513.513 0 0 0 .146.098c-.034.18-.051.364-.052.547v6.187h-6.4a2.67 2.67 0 0 0-2.667 2.667v1.067c0 .295.239.533.533.533h24.533a.533.533 0 0 0 .533-.533v-1.067a2.67 2.67 0 0 0-2.667-2.667h-6.4v-2.742a15.09 15.09 0 0 0 3.049.32 14.854 14.854 0 0 0 7.04-1.783l.818.823a.534.534 0 0 0 .377.16.532.532 0 0 0 .373-.155l1.513-1.504a.534.534 0 0 0 0-.754zM23.28 6.233a1.066 1.066 0 1 1 .752 1.822h-.003a1.067 1.067 0 0 1-.747-1.823h-.002zm-1.256 3.505-.598 2.946-1.175-1.182 1.774-1.763zm-.605-.902-1.92 1.909-1.485-1.493 3.405-.415zM24.004 28.8a1.6 1.6 0 0 1 1.6 1.6v.533H2.137V30.4a1.6 1.6 0 0 1 1.6-1.6h20.267zm-7.467-2.133v1.067h-5.333v-1.067h5.333zM11.204 25.6v-4.053c0-1.294 1.196-2.347 2.667-2.347s2.667 1.053 2.667 2.347V25.6h-5.333zm6.4-1.696v-2.357c0-1.882-1.675-3.413-3.733-3.413a3.8 3.8 0 0 0-3.281 1.786A13.87 13.87 0 0 1 8.311 4.033l18.602 18.708a13.818 13.818 0 0 1-9.309 1.163zm11.289-.684L7.836 2.039l.755-.752 7.935 7.98c.004 0 .006.007.01.01l13.115 13.191-.757.752z"/>
			<path  d="M13.876 20.267h-.005a1.6 1.6 0 1 0-.004 3.2h.005a1.6 1.6 0 1 0 .004-3.2zm.373 1.978a.534.534 0 0 1-.752-.756.534.534 0 0 1 .373-.155.532.532 0 0 1 .373.911h.005z"/>
		</symbol>
		<symbol id="g-astronaut" viewBox="0 0 32 32">
			<path d="M31.974 4.524a.534.534 0 0 0-.43-.363l-1.91-.278-.855-1.731c-.179-.365-.777-.365-.956 0l-.855 1.731-1.91.278a.535.535 0 0 0-.296.91l1.383 1.348-.326 1.903c-.034.2.048.402.212.522a.53.53 0 0 0 .562.04l1.709-.899 1.709.899a.536.536 0 0 0 .775-.563l-.326-1.903 1.383-1.348a.536.536 0 0 0 .135-.547zm-2.463 1.327a.534.534 0 0 0-.153.472l.191 1.114-1-.526a.533.533 0 0 0-.498 0l-1.001.526.191-1.114a.534.534 0 0 0-.153-.472l-.81-.789 1.119-.163a.532.532 0 0 0 .402-.292l.5-1.013.5 1.013a.535.535 0 0 0 .402.292l1.119.163-.809.789zM26.134 20.522h-1.067v1.067h1.067v-1.067zM26.134 22.656h-1.067v1.067h1.067v-1.067zM27.2 21.589h-1.067v1.067H27.2v-1.067zM25.067 21.589H24v1.067h1.067v-1.067zM22.4 26.389h-1.067v1.067H22.4v-1.067zM22.4 28.522h-1.067v1.067H22.4v-1.067zM23.467 27.456H22.4v1.067h1.067v-1.067zM21.333 27.456h-1.067v1.067h1.067v-1.067zM16 24.256h-1.067v1.067H16v-1.067zM16 26.389h-1.067v1.067H16v-1.067zM17.067 25.322H16v1.067h1.067v-1.067zM14.933 25.322h-1.067v1.067h1.067v-1.067zM5.867 6.122H4.8v1.067h1.067V6.122zM5.867 8.255H4.8v1.067h1.067V8.255z"/>
			<path d="M6.933 7.189H5.866v1.067h1.067V7.189zM4.8 7.189H3.733v1.067H4.8V7.189z"/>
			<path d="M24.715 14.159a1.775 1.775 0 0 0-1.188-.705 1.778 1.778 0 0 0-1.34.352l-1.252.96-1.898 1.417-1.358-.541c2.421-1.086 4.114-3.508 4.114-6.32 0-3.823-3.123-6.933-6.961-6.933s-6.961 3.11-6.961 6.933a6.86 6.86 0 0 0 1.12 3.758l-2.764-.024h-.005c-.009 0-.015.004-.023.005a.515.515 0 0 0-.155.031l-.038.013c-.006.003-.013.003-.019.006l-3.233 1.596-.001.001-1.893.911a.397.397 0 0 0-.063.035 1.779 1.779 0 0 0-.598 2.295c.22.429.595.745 1.056.889a1.776 1.776 0 0 0 1.378-.128l1.388-.738 2.264-1.169 1.357-.008L2.2 22.211l-.002.001-1.339 1.333c-.316.315-.49.732-.49 1.178s.174.863.49 1.179c.325.323.752.485 1.179.485s.854-.162 1.18-.485l1.314-1.309 1.741-1.3.901.897-1.762 1.754-.002.001-1.339 1.333c-.316.315-.49.732-.49 1.178s.174.863.49 1.179c.325.323.753.485 1.18.485s.855-.162 1.18-.485l3.482-3.467.001-.002 1.01-1-.004-.004c.006-.006.015-.009.022-.015l5.166-5.658 3.471.494a.52.52 0 0 0 .262-.033c.018-.006.033-.015.05-.023.019-.01.039-.015.058-.027l3.213-2.133c.012-.008.018-.021.029-.029.013-.01.029-.014.041-.026l1.271-1.191c.662-.62.753-1.635.212-2.362zM2.13 17.77a.714.714 0 0 1-.558.052.717.717 0 0 1-.213-1.26l1.314-.632.449 1.312-.992.528zm3.498-1.828-1.548.8-.439-1.283 2.027-1.001-.04 1.484zm15.099-6.62a5.79 5.79 0 0 1-.599 2.559l-4.181-1.899a1.863 1.863 0 0 0-.788-1.388l1.464-4.86c2.378.756 4.105 2.974 4.105 5.588zm-11.789 0c0-3.235 2.644-5.867 5.894-5.867.253 0 .5.021.745.052l-1.432 4.754c-.019-.001-.037-.006-.057-.006-1.033 0-1.873.837-1.873 1.867s.84 1.867 1.873 1.867c.694 0 1.294-.383 1.618-.945l3.862 1.755a5.894 5.894 0 0 1-4.737 2.39c-3.25 0-5.894-2.632-5.894-5.867zm5.956.8c0 .441-.362.8-.806.8s-.806-.359-.806-.8c0-.441.362-.8.806-.8s.806.359.806.8zM2.465 25.146a.608.608 0 0 1-.854.001.592.592 0 0 1 0-.844l.962-.958.851.848-.959.955zm3.214 3.734a.608.608 0 0 1-.855.001.592.592 0 0 1 0-.844l.963-.959.852.848-.96.955zm3.481-3.469-.002.001-1.765 1.76-.852-.848 1.763-1.755.002-.001c.04-.04.065-.088.09-.135.007-.014.02-.026.026-.04.017-.041.019-.085.026-.129.003-.025.014-.047.014-.073 0-.036-.013-.07-.02-.106-.006-.032-.006-.065-.019-.095a.55.55 0 0 0-.091-.138c-.01-.012-.014-.027-.025-.038h-.001l-.001-.002-1.607-1.6c-.017-.017-.039-.024-.058-.038a.507.507 0 0 0-.087-.058.515.515 0 0 0-.093-.033.507.507 0 0 0-.103-.02.5.5 0 0 0-.095.005.53.53 0 0 0-.104.02.477.477 0 0 0-.094.045c-.02.011-.042.015-.061.029L4.23 23.486l-.901-.897 2.399-2.386 4.361 4.289-.928.919zm6.819-7.017c-.015-.002-.03.004-.045.003a.556.556 0 0 0-.3.075.492.492 0 0 0-.083.061c-.013.011-.028.017-.04.029l-4.698 5.146-4.328-4.257 2.833-2.818a.534.534 0 0 0-.379-.911v-.001l-2.219.013.028-1.607 3.104.027a6.947 6.947 0 0 0 4.981 2.101c.437 0 .864-.045 1.279-.123.04.032.079.065.13.085l2.41.96.331 1.644-3.003-.427zm4.041.178-.313-1.558 1.446-1.08.947 1.257-2.08 1.381zm3.754-2.831-.838.785-.931-1.236.831-.637a.735.735 0 0 1 .543-.143.718.718 0 0 1 .48.284.713.713 0 0 1-.085.947z"/>
			<path d="m13.602 18.544-2.143-2.133a.534.534 0 0 0-.753 0l-2.142 2.133a.537.537 0 0 0 0 .756l2.142 2.133a.536.536 0 0 0 .753 0l2.143-2.133a.535.535 0 0 0 0-.756zm-2.519 1.759-1.387-1.381 1.387-1.381 1.387 1.381-1.387 1.381zM17.164 5.071l-.258 1.036c.071.018 1.738.452 1.738 2.149h1.067c0-2.017-1.666-2.965-2.547-3.185zM19.711 9.322h-1.067v1.067h1.067V9.322z"/>
		</symbol>
		<symbol id="g-clock" viewBox="0 0 32 32">
			<path d="M31.297 15.301C31.295 6.849 24.442-.002 15.989 0S.686 6.855.688 15.308a15.304 15.304 0 0 0 10.649 14.576.662.662 0 0 0 .529-.065.637.637 0 0 0 .283-.356l3.865-12.25a1.912 1.912 0 1 0-.84-3.635l-5.106-5.107a.637.637 0 0 0-.902.902l5.103 5.109a1.876 1.876 0 0 0 .536 2.309l-3.683 11.673C3.844 25.783.118 17.71 2.799 10.432S13.553-.572 20.831 2.109s11.004 10.754 8.323 18.032a14.042 14.042 0 0 1-7.462 7.973l-.398-1.874a.638.638 0 0 0-1.048-.344l-3.837 3.426a.637.637 0 0 0 .231 1.084l4.899 1.563a.638.638 0 0 0 .819-.74l-.391-1.839a15.255 15.255 0 0 0 9.329-14.089zm-15.305-.637a.638.638 0 1 1 0 1.277.638.638 0 0 1 0-1.277zm2.101 14.864 2.184-1.948.603 2.84-2.787-.892z"/>
			<path d="M15.354 3.185V4.46a.638.638 0 1 0 1.276 0V3.185a.638.638 0 0 0-1.276 0zM3.876 14.664a.638.638 0 0 0 0 1.276h1.275a.638.638 0 1 0 0-1.276H3.876zM28.108 15.939a.638.638 0 1 0 0-1.276h-1.275a.638.638 0 0 0 0 1.276h1.275z"/>
		</symbol>
		<symbol id="g-diagram" viewBox="0 0 32 32">
			<path d="M14.926 14.965h1.066v4.798h-1.066v-4.797zM19.19 17.097h1.066v2.665H19.19v-2.665zM10.661 18.696h1.066v1.066h-1.066v-1.066zM7.463 18.163h1.066v1.599H7.463v-1.599z"/>
			<path d="M1.599 28.291h25.587a1.6 1.6 0 0 0 1.599-1.599V24.56a1.6 1.6 0 0 0-1.599-1.599h-.533V9.668L29.681 6.8a1.608 1.608 0 1 0-.746-.763L26.654 8.2V6.97a1.6 1.6 0 0 0-1.599-1.599H3.733A1.6 1.6 0 0 0 2.134 6.97v15.992h-.533a1.6 1.6 0 0 0-1.599 1.599v2.132a1.6 1.6 0 0 0 1.599 1.599zM30.384 4.837a.533.533 0 1 1 0 1.067.533.533 0 0 1 0-1.067zM3.198 6.969c0-.294.239-.533.533-.533h21.322c.294 0 .533.239.533.533v2.239l-1.066 1.013V8.035a.533.533 0 0 0-.533-.533H4.797a.533.533 0 0 0-.533.533v13.326c0 .294.239.533.533.533h19.19a.533.533 0 0 0 .533-.533v-9.674l1.066-1.01v12.284H3.198V6.969zm4.798 6.93a1.598 1.598 0 1 0 1.107 2.749l1.853.93a.532.532 0 0 0 .636-.123l3.939-4.431 3.872 2.901a.533.533 0 0 0 .686-.039l3.365-3.188v8.131H5.33V8.569h18.124v2.66l-3.771 3.572-3.904-2.927a.533.533 0 0 0-.718.072l-3.993 4.493-1.493-.746c.011-.064.018-.129.02-.193a1.6 1.6 0 0 0-1.599-1.599zm.533 1.599a.533.533 0 1 1-1.067 0 .533.533 0 0 1 1.067 0zm3.198 8.529h5.331v.533a.533.533 0 0 1-.533.533h-4.264a.533.533 0 0 1-.533-.533v-.533zm-10.661.533c0-.294.239-.533.533-.533h9.062v.533a1.6 1.6 0 0 0 1.599 1.599h4.264a1.6 1.6 0 0 0 1.599-1.599v-.533h9.062c.294 0 .533.239.533.533v2.132a.533.533 0 0 1-.533.533H1.598a.533.533 0 0 1-.533-.533V24.56z"/>
		</symbol>
		<symbol id="s-Ellipse" viewBox="0 0 32 32">
			<path d="M32 16c0 4.418-1.791 8.418-4.686 11.314S20.419 32 16 32s-8.418-1.791-11.314-4.686C1.791 24.419 0 20.419 0 16S1.791 7.582 4.686 4.686C7.581 1.791 11.581 0 16 0s8.418 1.791 11.314 4.686A15.95 15.95 0 0 1 32 16z"/>
			<path d="M23.273 11.49a6.248 6.248 0 0 1-1.718.471 2.967 2.967 0 0 0 1.312-1.648 5.963 5.963 0 0 1-1.891.722 2.981 2.981 0 0 0-5.158 2.039c0 .236.02.464.069.68a8.439 8.439 0 0 1-6.146-3.119 2.985 2.985 0 0 0 .917 3.985 2.943 2.943 0 0 1-1.347-.367v.033a2.996 2.996 0 0 0 2.389 2.93 2.992 2.992 0 0 1-.782.098 2.64 2.64 0 0 1-.565-.051 3.01 3.01 0 0 0 2.786 2.077 5.991 5.991 0 0 1-3.697 1.272 5.59 5.59 0 0 1-.714-.041 8.393 8.393 0 0 0 4.575 1.338c5.487 0 8.487-4.545 8.487-8.485 0-.132-.005-.259-.011-.385a5.95 5.95 0 0 0 1.495-1.548z"/>
		</symbol>
		<symbol id="s-facebook" viewBox="0 0 32 32">
			<path d="M32 16c0 4.418-1.791 8.418-4.686 11.314S20.419 32 16 32s-8.418-1.791-11.314-4.686C1.791 24.419 0 20.419 0 16S1.791 7.582 4.686 4.686C7.581 1.791 11.581 0 16 0s8.418 1.791 11.314 4.686A15.95 15.95 0 0 1 32 16z"/>
			<path d="M18.422 11.142h1.328V8.829a17.317 17.317 0 0 0-1.935-.102c-1.915 0-3.226 1.204-3.226 3.418v2.037h-2.113v2.585h2.113v6.505h2.59v-6.505h2.027l.322-2.585h-2.35v-1.781c.001-.747.202-1.259 1.243-1.259z"/>
		</symbol>
		<symbol id="s-instagram" viewBox="0 0 32 32">
			<path d="M32 16c0 4.418-1.791 8.418-4.686 11.314S20.419 32 16 32s-8.418-1.791-11.314-4.686C1.791 24.419 0 20.419 0 16S1.791 7.582 4.686 4.686C7.581 1.791 11.581 0 16 0s8.418 1.791 11.314 4.686A15.95 15.95 0 0 1 32 16z"/>
			<path d="M23.258 13.004c-.034-.773-.159-1.304-.338-1.765a3.557 3.557 0 0 0-.841-1.29 3.589 3.589 0 0 0-1.287-.838c-.463-.179-.992-.304-1.764-.338-.779-.037-1.026-.046-3.001-.046s-2.222.009-2.998.043c-.773.034-1.304.159-1.764.338a3.557 3.557 0 0 0-1.29.841 3.589 3.589 0 0 0-.838 1.287c-.179.463-.304.992-.338 1.764-.037.779-.045 1.026-.045 3.001s.008 2.222.043 2.998c.034.773.159 1.304.338 1.765.185.489.472.926.841 1.29.364.369.804.656 1.287.838.463.179.992.304 1.765.338.776.034 1.023.043 2.998.043s2.222-.008 2.998-.043c.773-.034 1.304-.159 1.764-.338a3.72 3.72 0 0 0 2.128-2.128c.179-.463.304-.992.338-1.765.034-.776.043-1.023.043-2.998s-.003-2.222-.037-2.998zm-1.309 5.938c-.031.71-.151 1.094-.25 1.35a2.409 2.409 0 0 1-1.381 1.381c-.256.099-.642.219-1.35.25-.767.034-.997.043-2.938.043s-2.174-.008-2.938-.043c-.71-.031-1.094-.15-1.35-.25a2.228 2.228 0 0 1-.835-.543 2.264 2.264 0 0 1-.543-.835c-.099-.256-.219-.642-.25-1.35-.034-.767-.043-.997-.043-2.938s.008-2.174.043-2.938c.031-.71.151-1.094.25-1.35.117-.315.301-.602.546-.835.236-.242.52-.426.835-.543.256-.099.642-.219 1.35-.25.767-.034.997-.043 2.938-.043 1.944 0 2.174.008 2.938.043.71.031 1.094.151 1.35.25.315.116.602.301.835.543.241.236.426.52.543.835.099.256.219.642.25 1.35.034.767.043.997.043 2.938s-.009 2.168-.043 2.935z"/>
			<path d="M16.027 12.265a3.737 3.737 0 1 0 .003 7.475 3.737 3.737 0 0 0-.003-7.475zm0 6.16a2.424 2.424 0 1 1 0-4.849 2.424 2.424 0 0 1 0 4.849zM20.784 12.117a.872.872 0 1 1-1.744 0 .872.872 0 0 1 1.744 0z"/>
		</symbol>
		<symbol id="s-linkedin" viewBox="0 0 32 32">
			<path d="M32 16c0 4.418-1.791 8.418-4.686 11.314S20.419 32 16 32s-8.418-1.791-11.314-4.686C1.791 24.419 0 20.419 0 16S1.791 7.582 4.686 4.686C7.581 1.791 11.581 0 16 0s8.418 1.791 11.314 4.686A15.95 15.95 0 0 1 32 16z"/>
			<path d="M23.269 23.273v-.001h.004v-5.335c0-2.61-.562-4.62-3.613-4.62-1.467 0-2.451.805-2.853 1.568h-.042v-1.324h-2.893v9.711h3.012v-4.809c0-1.266.24-2.49 1.808-2.49 1.545 0 1.568 1.445 1.568 2.572v4.728h3.009zM8.967 13.562h3.016v9.711H8.967v-9.711zM10.474 8.727c-.964 0-1.747.782-1.747 1.747s.782 1.763 1.747 1.763c.964 0 1.747-.799 1.747-1.763s-.783-1.747-1.747-1.747z"/>
		</symbol>
		<symbol id="s-twitter" viewBox="0 0 32 32">
			<path d="M32 16c0 4.418-1.791 8.418-4.686 11.314S20.419 32 16 32s-8.418-1.791-11.314-4.686C1.791 24.419 0 20.419 0 16S1.791 7.582 4.686 4.686C7.581 1.791 11.581 0 16 0s8.418 1.791 11.314 4.686A15.95 15.95 0 0 1 32 16z"/>
			<path d="M23.273 11.49a6.248 6.248 0 0 1-1.718.471 2.967 2.967 0 0 0 1.312-1.648 5.963 5.963 0 0 1-1.891.722 2.981 2.981 0 0 0-5.158 2.039c0 .236.02.464.069.68a8.439 8.439 0 0 1-6.146-3.119 2.985 2.985 0 0 0 .917 3.985 2.943 2.943 0 0 1-1.347-.367v.033a2.996 2.996 0 0 0 2.389 2.93 2.992 2.992 0 0 1-.782.098 2.64 2.64 0 0 1-.565-.051 3.01 3.01 0 0 0 2.786 2.077 5.991 5.991 0 0 1-3.697 1.272 5.59 5.59 0 0 1-.714-.041 8.393 8.393 0 0 0 4.575 1.338c5.487 0 8.487-4.545 8.487-8.485 0-.132-.005-.259-.011-.385a5.95 5.95 0 0 0 1.495-1.548z"/>
		</symbol>
	</defs>
</svg>